<?xml version="1.0" encoding="utf-8"?>
<!-- Generator: Adobe Illustrator 21.0.2, SVG Export Plug-In . SVG Version: 6.00 Build 0)  -->
<svg version="1.1" id="Layer_1" xmlns="http://www.w3.org/2000/svg" xmlns:xlink="http://www.w3.org/1999/xlink" x="0px" y="0px"
	 viewBox="0 0 92.9 92.9" style="enable-background:new 0 0 92.9 92.9;" xml:space="preserve">
<style type="text/css">
	.st0{fill:none;stroke:#393F47;stroke-width:3;stroke-linecap:round;stroke-linejoin:round;stroke-miterlimit:10;}
</style>
<g>
	<path class="st0" d="M77.3,46.5c0,22-11.2,39.2-30.6,39.2c-17.9,0-31.2-17.2-31.2-39.2c0-16.2,6.3-29.8,17-35.5
		c3.9-2.1,9.4,0.4,14.2,0.4c4.3,0,9.5-2.7,13.1-1C71.1,15.8,77.3,29.8,77.3,46.5z"/>
	<path class="st0" d="M74.9,46.5c0,17.4-11.4,30-28.2,30s-28.8-12.6-28.8-30c0-12.7,5.4-23.6,15.4-28.1c3.7-1.6,8.9,1.3,13.4,1.3
		c4,0,8.9-3.1,12.3-1.7C69.7,22.2,74.9,33.3,74.9,46.5z"/>
	<path class="st0" d="M19.6,39c7.1,0,10.4-15.6,27.2-15.6c16.8,0,21.8,15.7,27.2,15.6"/>
	<path class="st0" d="M32.2,53.7c-2.5-8.6,3.7-18.6,8.4-18.6c4,0,6.1,2.4,3.1,7.3c-1.8,2.9-0.2,6.2,3.1,6.1c3,0.1,4.9-3.1,3.1-6.1
		c-3.1-4.9-0.9-7.3,3.1-7.3c4.6,0,10.1,9.3,8.4,18.6"/>
	<path class="st0" d="M23.1,64.3c4.4-7.4,10.2-14,21-10.8c2.2,0.6,4.5,0.6,6.7-0.1c10.1-3.4,15.1,3.8,19.2,10.8"/>
	<path class="st0" d="M29.6,71.1c10.8,3.5,23.2,3.5,34-0.1"/>
</g>
</svg>
