<?xml version="1.0" encoding="utf-8"?>
<!-- Generator: Adobe Illustrator 21.0.2, SVG Export Plug-In . SVG Version: 6.00 Build 0)  -->
<svg version="1.1" id="Layer_1" xmlns="http://www.w3.org/2000/svg" xmlns:xlink="http://www.w3.org/1999/xlink" x="0px" y="0px"
	 viewBox="0 0 92.9 92.9" style="enable-background:new 0 0 92.9 92.9;" xml:space="preserve">
<style type="text/css">
	.st0{fill:#393F47;}
	.st1{fill:none;stroke:#393F47;stroke-width:2;stroke-linecap:round;stroke-linejoin:round;stroke-miterlimit:10;}
</style>
<g>
	<g>
		<path class="st0" d="M65.7,37.1c-1.4-4.7-4-8.4-7.7-11c-2.5-1.7-5.2-2.6-8.5-2.6c-2.7,0-5.2,0.6-7.6,1.1c-2.1,0.5-4,0.9-5.8,0.9
			c-0.1,0-0.2,0-0.2,0c-1.5,0-3.1-0.4-4.8-0.8c-2.2-0.5-4.7-1.1-7.5-1.1c-2.5,0-4.9,0.5-7.3,1.5c-4.4,1.9-7.6,5.2-9.6,10
			c-1.8,4.5-2.5,10.1-2,17.2c0.8,12.4,5.2,20.7,8.8,25.4c2.1,2.7,4.4,5.1,6.8,6.7c1.8,1.2,4.5,2.7,7.1,2.7c2,0,3.7-0.8,4.8-2.2
			c0.7-0.8,1.7-2.7,1.1-5.5c-0.6-2.7-0.6-6.5-0.1-9.8c0.5-3.1,1.3-4.7,1.8-5.4c0.5,0.8,1.4,2.8,1.9,6.4c0.6,3.9,0.4,7.5,0.1,8.7
			c-0.7,2.9,0.1,4.8,0.9,5.9c1.1,1.3,2.7,2.1,4.5,2.1c2.2,0,4.6-1.1,7.4-3.3c2.4-1.9,4.8-4.4,7-7.2c2.5-3.3,4.6-6.9,6.3-10.7
			c1.9-4.5,3.1-9.1,3.5-13.7C67.2,46.2,66.9,41.2,65.7,37.1z M27.3,82.6c-3.9,0-13.7-7.6-17.2-22.8c0.3-0.2,0.7-0.4,0.9-0.5
			c0,0,0.1,0,0.1,0c0.7,0.3,2.4,1.3,3.7,2.1l0.4,0.2l0.4-0.1c2-0.6,3.3-1,3.7-1.4c0.3-0.3,0.9-0.9,1.3-1.5c1.1,0.5,2.2,1.1,2.5,1.4
			c0.1,0.3,0.4,1.2,0.5,2.1l0.2,1l3.3-0.7l2.3,3.2c-1.4,4.6-1.5,10.9-0.7,14.9C29.2,81.9,28.6,82.6,27.3,82.6z M35.1,59.4
			c-2.1,0-3.6,1.5-4.7,3.8l-2.3-3.2l-2.7,0.6c-0.2-1-0.5-1.6-0.7-1.9c-0.1-0.2-0.4-0.6-3.9-2.3l-0.7-0.3l-0.5,0.6
			c-0.5,0.6-1.3,1.5-1.6,1.8c-0.3,0.2-1.4,0.6-2.5,0.9c-0.4-0.2-1-0.7-1.7-1.1c-2.1-1.2-2.8-1.4-3.4-1.1c-0.1,0-0.2,0.1-0.3,0.2
			c-0.1,0.1-0.2,0.1-0.3,0.2c-0.3-1.8-0.6-3.8-0.7-5.8c-0.8-13,2.4-20.1,8.9-22.8c2-0.8,3.8-1.1,5.5-1.1c4.4,0,8.1,1.9,12.2,2
			c0.1,0,0.2,0,0.3,0c4.4,0,9-2,13.4-2c2.1,0,4.1,0.4,5.9,1.8c5.9,4.2,7.8,11.4,6.8,22.2c-0.1,1.4-0.3,2.7-0.6,4c-0.6,0-1.6,0-2.6,0
			c-0.7,0-1.3,0.2-1.7,0.6c-0.6,0.6-0.8,1.4-0.8,2L54,59.6l-2.2-1.7l-0.6,0.4c-0.6,0.4-2.4,1.6-2.5,3c-0.3,0.5-2.2,1.4-2.8,1.5
			c-0.1,0-0.2-0.2-0.6-1c-0.7-1.5-3.3-1.4-4.1-1.3l-0.4,0l-1.8,1.9C38.1,60.6,36.8,59.4,35.1,59.4z M42.4,82.8c-1,0-1.5-0.8-1.1-2.4
			c0.7-3,0.5-10.9-1.4-16.1l1.8-1.9c0.8,0,1.6,0.1,1.8,0.3c0.4,0.8,1,2.1,2.4,2.1c0.8,0,4.7-1.4,4.7-3.3c0.1-0.2,0.5-0.7,1-1.1
			l2,1.6l4.1-2l0.6-0.3l0-0.6c0-0.3,0.1-0.9,0.3-1.1c0,0,0.1-0.1,0.2,0c0.8,0.1,1.7,0.1,2.3,0C57.4,72.6,46.2,82.8,42.4,82.8z"/>
	</g>
	<g>
		<path class="st0" d="M48.3,33.2c-0.2-0.5-0.7-0.8-1.2-0.6c-13.6,4.6-22.3,0.1-22.4,0.1c-0.5-0.3-1.1-0.1-1.3,0.4
			c-0.3,0.5-0.1,1.1,0.4,1.3C24,34.5,28,36.6,35,36.6c3.5,0,7.8-0.6,12.7-2.2C48.2,34.3,48.4,33.7,48.3,33.2z"/>
	</g>
	<g>
		<path class="st0" d="M20.9,67.3l0.3-1.4l0.3-1.1l-0.8-0.8l-1-1l-0.8-0.8l-1.1,0.3L16.5,63l-1.1,0.3l-0.3,1.1l-0.3,1.4l-0.3,1.1
			l0.8,0.8l1,1l0.8,0.8l1.1-0.3l1.3-0.4l1.1-0.3L20.9,67.3z M19,66.9l-1.3,0.4l-1-1l0.3-1.4l1.3-0.4l1,1L19,66.9z"/>
	</g>
	<g>
		<polygon class="st0" points="22.7,67.6 22.4,68.9 23.4,69.9 24.7,69.5 25.1,68.2 24.1,67.2 		"/>
	</g>
	<g>
		<polygon class="st0" points="20.2,73 19.7,75 21.3,76.5 23.3,75.9 23.8,73.9 22.3,72.4 		"/>
	</g>
	<g>
		<polygon class="st0" points="51.8,66 50.9,67.2 51.5,68.4 52.9,68.6 53.7,67.4 53.1,66.2 		"/>
	</g>
	<g>
		<polygon class="st0" points="48.5,70.1 47.3,71.8 48.2,73.8 50.3,74 51.5,72.2 50.6,70.3 		"/>
	</g>
</g>
<g>
	<path class="st1" d="M32.2,21.2c-2.6-8.6,1-14.9,8-15.4c12.3-0.9,14.6,13.8,14.6,13.8l15.1-1.1"/>
	<path class="st1" d="M89.8,21.9l-16,0.4c-2,0.1-3.6-0.6-3.8-2.5l-0.2-2.6c-0.1-2,1.4-2.9,3.3-3.1L89,12.1"/>
</g>
</svg>
