<?xml version="1.0" encoding="utf-8"?>
<!-- Generator: Adobe Illustrator 21.0.2, SVG Export Plug-In . SVG Version: 6.00 Build 0)  -->
<svg version="1.1" id="Layer_1" xmlns="http://www.w3.org/2000/svg" xmlns:xlink="http://www.w3.org/1999/xlink" x="0px" y="0px"
	 viewBox="0 0 92.9 92.9" style="enable-background:new 0 0 92.9 92.9;" xml:space="preserve">
<style type="text/css">
	.st0{fill:none;stroke:#393F47;stroke-width:3;stroke-linecap:round;stroke-linejoin:round;stroke-miterlimit:10;}
</style>
<g>
	<g>
		<g>
			<g>
				<path class="st0" d="M66.4,48.1L66.4,48.1c-3.3,0-5.9,0.2-5.9-2.6v-8.2c0-2.8,3.2-7,6.4-7l0,0c3.3,0,5.4,4.2,5.4,7v8.2
					C72.3,48.3,69.6,48.1,66.4,48.1z"/>
				<path class="st0" d="M77.5,47.4L77.5,47.4c-2.6,0-5.2-0.8-5.2-3.3v-7.5c0-2.5,3.4-6.9,6-6.9h0c2.6,0,3.4,4.3,3.4,6.9V44
					C81.7,46.4,80,47.4,77.5,47.4z"/>
				<path class="st0" d="M85.6,44.2L85.6,44.2c-1.8,0-3.9-0.2-3.9-2.1v-5.7c0-1.9,2.4-5.2,4.2-5.2l0,0c1.6,0,2.3,3.3,2.3,5.2v5.7
					C88.1,43.7,86.9,44.3,85.6,44.2z"/>
			</g>
			<g>
				<path class="st0" d="M26.5,48.1L26.5,48.1c3.3,0,5.9,0.2,5.9-2.6v-8.2c0-2.8-3.2-7-6.4-7l0,0c-3.3,0-5.4,4.2-5.4,7v8.2
					C20.6,48.3,23.2,48.1,26.5,48.1z"/>
				<path class="st0" d="M15.4,47.4L15.4,47.4c2.6,0,5.2-0.8,5.2-3.3v-7.5c0-2.5-3.4-6.9-6-6.9l0,0c-2.6,0-3.4,4.3-3.4,6.9V44
					C11.2,46.4,12.8,47.4,15.4,47.4z"/>
				<path class="st0" d="M7.3,44.2L7.3,44.2c1.8,0,3.9-0.2,3.9-2.1v-5.7c0-1.9-2.4-5.2-4.2-5.2l0,0c-1.6,0-2.3,3.3-2.3,5.2v5.7
					C4.8,43.7,5.9,44.3,7.3,44.2z"/>
			</g>
			<path class="st0" d="M39.4,49.7L39.4,49.7c-3.9,0-7,0.1-7-3.4V37c0-3.5,3.1-7.6,7-7.6l0,0c3.9,0,7,4.1,7,7.6v9.3
				C46.4,49.8,43.3,49.7,39.4,49.7z"/>
			<path class="st0" d="M53.4,49.7L53.4,49.7c-3.9,0-7,0.1-7-3.4V37c0-3.5,3.1-7.6,7-7.6l0,0c3.9,0,7,4.1,7,7.6v9.3
				C60.5,49.8,57.3,49.7,53.4,49.7z"/>
		</g>
		<path class="st0" d="M4.7,36.5V26.1c0-3.8,2.6-7.3,6.5-8.5c22.8-7.3,47.6-7.3,70.5,0c3.9,1.2,6.5,4.7,6.5,8.5c0,3.4,0,6.9,0,10.3"
			/>
	</g>
	<g>
		<g>
			<path class="st0" d="M51.7,70.9L51.7,70.9c-2.9,0-5.2-2.3-5.2-5.2v-8.8c0-0.9,0.8-1.7,1.7-1.7h7.1c0.9,0,1.7,0.8,1.7,1.7v8.8
				C56.9,68.5,54.6,70.9,51.7,70.9z"/>
			<path class="st0" d="M62.1,69.1L62.1,69.1c-2.9,0-5.2-1.7-5.2-4.6v-8.4c0-0.8,0.7-1.5,1.5-1.5h6.2c0.8,0,1.5,0.7,1.5,1.5v8.4
				C66.2,67.3,64.8,69.1,62.1,69.1z"/>
			<path class="st0" d="M71.2,67.3L71.2,67.3c-2.5,0-5-1.6-5-4.2v-7.7c0-0.8,0.6-1.4,1.3-1.4h5.4c0.7,0,1.3,0.6,1.3,1.4V63
				C74.1,65.7,73.5,67.3,71.2,67.3z"/>
			<path class="st0" d="M78.2,66.4L78.2,66.4c-2,0-4-1.4-4-3.9v-7.2c0-0.7,0.5-1.3,1-1.3h4.3c0.6,0,1,0.6,1,1.3v7.2
				C80.5,65,80,66.4,78.2,66.4z"/>
			<path class="st0" d="M21.6,67.3L21.6,67.3c2.5,0,5-1.6,5-4.2v-7.7c0-0.8-0.6-1.4-1.3-1.4H20c-0.7,0-1.3,0.6-1.3,1.4V63
				C18.7,65.7,19.4,67.3,21.6,67.3z"/>
			<path class="st0" d="M14.7,66.4L14.7,66.4c2,0,4-1.4,4-3.9v-7.2c0-0.7-0.5-1.3-1-1.3h-4.3c-0.6,0-1,0.6-1,1.3v7.2
				C12.4,65,12.9,66.4,14.7,66.4z"/>
			<path class="st0" d="M30.7,69.1L30.7,69.1c2.9,0,5.2-1.7,5.2-4.6v-8.4c0-0.8-0.7-1.5-1.5-1.5h-6.2c-0.8,0-1.5,0.7-1.5,1.5v8.4
				C26.7,67.3,28.1,69.1,30.7,69.1z"/>
			<path class="st0" d="M41.2,70.9L41.2,70.9c-2.9,0-5.2-2.3-5.2-5.2v-8.8c0-0.9,0.8-1.7,1.7-1.7h7.1c0.9,0,1.7,0.8,1.7,1.7v8.8
				C46.4,68.5,44.1,70.9,41.2,70.9z"/>
		</g>
		<path class="st0" d="M80.7,63c2.2,0,3.4,2.1,3.4,4.1c0,2.7,0,5.3,0,8c0,1.6-1.2,3-2.9,3.4c-22.7,5.7-46.7,5.7-69.4,0
			c-1.7-0.4-2.9-1.8-2.9-3.4c0-2.7,0-5.3,0-8c0-2,1.2-4.1,3.4-4.1"/>
	</g>
</g>
</svg>
