<?xml version="1.0" encoding="utf-8"?>
<!-- Generator: Adobe Illustrator 21.0.2, SVG Export Plug-In . SVG Version: 6.00 Build 0)  -->
<svg version="1.1" id="Layer_1" xmlns="http://www.w3.org/2000/svg" xmlns:xlink="http://www.w3.org/1999/xlink" x="0px" y="0px"
	 viewBox="0 0 92.9 92.9" style="enable-background:new 0 0 92.9 92.9;" xml:space="preserve">
<style type="text/css">
	.st0{fill-rule:evenodd;clip-rule:evenodd;fill:#393F47;}
	
		.st1{fill-rule:evenodd;clip-rule:evenodd;fill:none;stroke:#393F47;stroke-width:3;stroke-linecap:round;stroke-linejoin:round;stroke-miterlimit:10;}
</style>
<g>
	<path class="st0" d="M67.6,27.3c-2.1-1.5-4.4-2.2-7.2-2.2c-2.2,0-4.4,0.5-6.4,0.9c-1.8,0.4-3.4,0.8-4.9,0.8c-0.1,0-0.1,0-0.2,0
		c-1.2,0-2.6-0.4-4-0.7c-1.9-0.4-4-1-6.3-1c-2.1,0-4.1,0.4-6.1,1.3c-3.7,1.6-6.4,4.4-8.1,8.4c-1.5,3.8-2.1,8.5-1.7,14.5
		c0.6,10.4,4.4,17.4,7.4,21.5c1.7,2.3,3.7,4.3,5.7,5.7c1.5,1,3.8,2.3,6,2.3c1.6,0,3.1-0.6,4-1.8c0.6-0.7,1.5-2.2,1-4.6
		c-0.5-2.2-0.5-5.5-0.1-8.3c0.4-2.6,1.1-4,1.5-4.6c0.5,0.7,1.2,2.4,1.6,5.4c0.5,3.3,0.3,6.3,0.1,7.3c-0.6,2.5,0.1,4,0.8,4.9
		c0.9,1.1,2.3,1.8,3.8,1.8c1.8,0,3.9-0.9,6.2-2.8c2-1.6,4-3.7,5.9-6.1c2.1-2.8,3.9-5.8,5.3-9.1c1.6-3.8,2.6-7.7,3-11.6
		c0.5-5.2,0.2-9.4-0.8-12.9C73,32.6,70.8,29.5,67.6,27.3z M71.2,49.1c-1.4,15.1-13.1,26.1-16.6,26.1c-0.9,0-1.3-0.7-0.9-2.1
		c0.9-3.8,0.1-17.7-5.2-17.7c-5.3,0-6.5,11.8-5.3,17.7c0.3,1.3-0.3,1.9-1.3,1.9c-3.8,0-14.3-8.6-15.4-25.9
		c-0.7-11,2.1-16.9,7.5-19.2c1.7-0.7,3.2-1,4.7-1c3.7,0,6.9,1.6,10.3,1.7c0.1,0,0.2,0,0.3,0c3.7,0,7.6-1.7,11.3-1.7
		c1.7,0,3.4,0.4,5,1.5C70.5,33.9,72.1,40,71.2,49.1z"/>
	<path class="st0" d="M58.4,32.8c-11.5,3.9-18.8,0.1-18.9,0.1c-0.4-0.2-0.9-0.1-1.1,0.3c-0.2,0.4-0.1,0.9,0.3,1.1
		c0.2,0.1,3.6,1.9,9.5,1.9c3,0,6.6-0.5,10.7-1.9c0.4-0.1,0.7-0.6,0.5-1C59.3,32.9,58.9,32.6,58.4,32.8z"/>
	<polygon class="st0" points="79.4,20.2 77.5,14.6 75.6,20.2 70,22.1 75.6,24 77.5,29.6 79.4,24 85,22.1 	"/>
	<polygon class="st0" points="64.9,19.9 65.9,16.9 68.9,15.9 65.9,14.9 64.9,11.9 63.9,14.9 61,15.9 63.9,16.9 	"/>
	<polygon class="st0" points="14.2,68.3 16.1,74 18,68.3 23.6,66.4 18,64.6 16.1,58.9 14.2,64.6 8.6,66.4 	"/>
	<polygon class="st0" points="7,56.9 6,59.8 3,60.8 6,61.8 7,64.8 8,61.8 10.9,60.8 8,59.8 	"/>
	<path class="st1" d="M5.8,48.8h14.6c0,0-3.8-35.2,28-24.5c0,0,31-11.1,29.1,24.5H89"/>
</g>
</svg>
