<?xml version="1.0" encoding="utf-8"?>
<!-- Generator: Adobe Illustrator 21.0.2, SVG Export Plug-In . SVG Version: 6.00 Build 0)  -->
<svg version="1.1" id="Layer_1" xmlns="http://www.w3.org/2000/svg" xmlns:xlink="http://www.w3.org/1999/xlink" x="0px" y="0px"
	 viewBox="0 0 92.9 92.9" style="enable-background:new 0 0 92.9 92.9;" xml:space="preserve">
<style type="text/css">
	.st0{fill:#333333;stroke:#393F47;stroke-width:2;stroke-miterlimit:10;}
	.st1{fill-rule:evenodd;clip-rule:evenodd;fill:#393F47;}
</style>
<g>
	<path class="st0" d="M84.5,15.8c-0.1,0.1-0.2,0.2-0.3,0.3c-3.1,0.1-6.1,0.1-8.1,0.2c-6.2,0.2-11.4-0.6-16.2-2.7
		c-0.2-0.1-1.3-0.7-2.3-1.3c-0.7-0.4-1.2-0.7-1.7-1c-0.1-1.8-1.2-3.5-3-4.3l-3.2-1.4c-2.5-1.1-5.5,0-6.6,2.6c0,0,0,0.1,0,0.1
		L40.2,17c-1,2.4-0.1,5.1,2.1,6.3l-1.8,4.1c-0.2,0.4,0,1,0.4,1.1c0.3,0.1,0.7,0.1,0.9-0.1c0.1-0.1,0.2-0.2,0.2-0.3l1.8-4.1l0.2,0.1
		c2.4,1,5.2,0.1,6.4-2.2c1.9,1.5,4,2.8,6.3,4c7.7,3.9,16.4,6.4,26.1,7.3 M79.4,31.1l0.9-13.1c1,0,2,0,3.1-0.1c-0.3,1.7-0.4,5-1,13.1
		c0,0.2,0,0.3,0,0.5C81.4,31.3,80.3,31.2,79.4,31.1z M53.7,12.9c0,0.1-4.6,7.8-4.6,7.9c-0.7,1.7-2.7,2.4-4.3,1.7L43.5,22
		c-1.7-0.7-2.4-2.7-1.7-4.3c0,0,0-0.1,0-0.1c2.8-9.1,2.6-9,3.5-9.7c1-0.8,2.3-1.1,3.5-0.5L52,8.6c0.8,0.4,1.4,1,1.7,1.8
		C54.1,11.3,54.1,12.1,53.7,12.9z M76.1,18c0.7,0,1.5,0,2.4-0.1l-0.8,12.8c-0.9-0.2-1.9-0.3-2.8-0.5l1-9.5c0.1-0.5-0.3-0.9-0.8-1
		c-0.5,0-0.9,0.3-1,0.8l-1,9.3c-5.6-1.3-10.7-3.1-15.5-5.5c-2.4-1.2-4.4-2.5-6.3-4c1.3-2.2,3.9-6.6,3.9-6.7c0.1-0.2,0.1-0.3,0.2-0.5
		c0.4,0.2,0.8,0.4,1.2,0.6c1.5,0.8,2.2,1.2,2.5,1.3C64.2,17.4,69.6,18.3,76.1,18z"/>
</g>
<g>
	<path class="st1" d="M65.2,43c-1.2-4.1-3.5-7.4-6.8-9.7c-2.2-1.5-4.6-2.3-7.5-2.3c-2.3,0-4.5,0.5-6.7,1c-1.8,0.4-3.6,0.8-5.1,0.8
		c-0.1,0-0.1,0-0.2,0c-1.3,0-2.7-0.4-4.2-0.7c-1.9-0.5-4.2-1-6.6-1c-2.2,0-4.3,0.4-6.4,1.3C17.9,34,15,37,13.3,41.1
		c-1.6,3.9-2.2,8.9-1.8,15.2c0.7,10.9,4.6,18.2,7.7,22.4c1.8,2.4,3.9,4.5,6,5.9c1.6,1.1,3.9,2.4,6.3,2.4c1.7,0,3.2-0.7,4.2-1.9
		c0.6-0.7,1.5-2.3,1-4.8c-0.5-2.3-0.5-5.7-0.1-8.6c0.4-2.7,1.2-4.2,1.6-4.8c0.5,0.7,1.2,2.5,1.7,5.7c0.5,3.5,0.3,6.6,0.1,7.6
		c-0.6,2.6,0.1,4.2,0.8,5.1c0.9,1.2,2.4,1.9,3.9,1.9c1.9,0,4-0.9,6.5-2.9c2.1-1.6,4.2-3.8,6.1-6.4c2.2-2.9,4.1-6.1,5.5-9.4
		c1.7-3.9,2.7-8,3.1-12.1C66.5,51,66.3,46.7,65.2,43z M62.1,56.1c-1.5,15.7-13.6,27.2-17.3,27.2c-0.9,0-1.3-0.7-1-2.1
		c1-4,0.1-18.4-5.5-18.4c-5.5,0-6.8,12.3-5.5,18.4c0.3,1.3-0.3,2-1.4,2c-4,0-14.9-9-16.1-27c-0.7-11.5,2.1-17.7,7.8-20.1
		c1.7-0.7,3.3-1,4.9-1c1.7,0,3.3,0.3,4.9,0.7c-0.8,1.1-1.4,2.5-0.4,3.3c0.8,0.7,0.8,1.1,0.5,1.4c-2.6-0.5-4-1.2-4-1.3
		c-0.4-0.2-0.9-0.1-1.2,0.4c-0.2,0.4-0.1,0.9,0.4,1.2c0.2,0.1,3.8,2,9.9,2c3.1,0,6.9-0.5,11.2-1.9c0.2-0.1,0.4-0.2,0.5-0.4
		c0.4,0,0.7,0.1,0.9,0.1c0.6,0.3,3.7,2.1,4.5,1.2c0.4-0.5,2.3-1.6,3.6-2.7C61.9,42.7,62.9,48.4,62.1,56.1z"/>
	<circle class="st1" cx="56.5" cy="50.2" r="3.1"/>
	<circle class="st1" cx="55.6" cy="59.2" r="1.5"/>
</g>
</svg>
