<?xml version="1.0" encoding="utf-8"?>
<!-- Generator: Adobe Illustrator 21.0.2, SVG Export Plug-In . SVG Version: 6.00 Build 0)  -->
<svg version="1.1" id="Layer_1" xmlns="http://www.w3.org/2000/svg" xmlns:xlink="http://www.w3.org/1999/xlink" x="0px" y="0px"
	 viewBox="0 0 92.9 92.9" style="enable-background:new 0 0 92.9 92.9;" xml:space="preserve">
<style type="text/css">
	.st0{fill:none;stroke:#393F47;stroke-width:2;stroke-linecap:round;stroke-linejoin:round;stroke-miterlimit:10;}
</style>
<g>
	<path class="st0" d="M46.4,17.4c0-0.1,0-0.1,0-0.2c0.1-1.9,1.6-3.4,3.3-3.3l7.2,0.5c1.7,0.1,3,1.8,2.9,3.7
		c-0.1,2.1-1.8,3.7-3.7,3.6l-6.6-0.4c-1.7-0.1-3.1-1.7-3.1-3.6c-0.1,1.9-1.4,3.5-3.1,3.6l-6.6,0.4c-1.9,0.1-3.5-1.5-3.7-3.6
		c-0.1-1.9,1.2-3.6,2.9-3.7l7.2-0.5c1.7-0.1,3.2,1.4,3.3,3.3C46.4,17.2,46.4,17.3,46.4,17.4z"/>
	<path class="st0" d="M49.6,21.3l-0.4,1.8c-0.1,0.4,0,0.9,0.3,1.3c0.3,0.4,0.7,0.6,1.2,0.6l3.2,0.2c0.4,0,0.8-0.1,1.1-0.4
		c0.3-0.3,0.5-0.7,0.5-1.1v-2"/>
	<path class="st0" d="M43.3,21.3l0.4,1.8c0.1,0.4,0,0.9-0.3,1.3c-0.3,0.4-0.7,0.6-1.2,0.6l-3.2,0.2c-0.4,0-0.8-0.1-1.1-0.4
		c-0.3-0.3-0.5-0.7-0.5-1.1v-2"/>
	<path class="st0" d="M76.7,33.1c0.6,1.9-0.7,3.9-2.8,4.6c-2.3,0.7-5.3-1.7-5.4-2.4l-1.9-5c-0.3-0.9,0.7-4.3,3.1-5
		c2.1-0.7,4.3,0.3,4.9,2.2L76.7,33.1z"/>
	<path class="st0" d="M16.2,33.1c-0.6,1.9,0.7,3.9,2.8,4.6c2.3,0.7,5.3-1.7,5.4-2.4l1.9-5c0.3-0.9-0.7-4.3-3.1-5
		c-2.1-0.7-4.3,0.3-4.9,2.2L16.2,33.1z"/>
	<path class="st0" d="M68.8,19.4c1.7,1,2.1,3.4,0.9,5.3c-1.3,2.1-3.8,2.9-5.6,1.8L61,24.3c-1.8-1.1-2.3-3.7-1-5.8
		c1.2-1.9,3.4-2.6,5.1-1.6L68.8,19.4z"/>
	<path class="st0" d="M24.1,19.4c-1.7,1-2.1,3.4-0.9,5.3c1.3,2.1,3.8,2.9,5.6,1.8l3.2-2.1c1.8-1.1,2.3-3.7,1-5.8
		c-1.2-1.9-3.4-2.6-5.1-1.6L24.1,19.4z"/>
	<path class="st0" d="M80.8,46.7c0.2,2.3-1.7,4.4-4.3,4.7c-2.9,0.3-5.4-1.5-5.7-4l-0.3-4.5c-0.3-2.5,1.9-4.8,4.8-5.1
		c2.6-0.3,5,2.1,5.3,4.4L80.8,46.7z"/>
	<path class="st0" d="M12.1,46.7c-0.2,2.3,1.7,4.4,4.3,4.7c2.9,0.3,5.4-1.5,5.7-4l0.3-4.5c0.3-2.5-1.9-4.8-4.8-5.1
		c-2.6-0.3-5,2.1-5.3,4.4L12.1,46.7z"/>
	<path class="st0" d="M84,60.1c0.2,2.3-1.7,4.4-4.3,4.7c-2.9,0.3-5.4-1.5-5.7-4l-0.7-4.2C73,54,75.1,51.7,78,51.4
		c2.6-0.3,5,1.4,5.2,3.7L84,60.1z"/>
	<path class="st0" d="M8.9,60.1c-0.2,2.3,1.7,4.4,4.3,4.7c2.9,0.3,5.4-1.5,5.7-4l0.7-4.2c0.3-2.5-1.9-4.8-4.8-5.1
		c-2.6-0.3-5,1.4-5.2,3.7L8.9,60.1z"/>
	<path class="st0" d="M86.5,75.2c0.1,2.4-2.1,4.5-4.9,4.5c-3.1,0.1-5.6-2-5.7-4.7l-0.4-5.3c-0.1-2.7,2.3-4.9,5.4-5
		c2.8-0.1,5.1,1.8,5.2,4.2L86.5,75.2z"/>
	<path class="st0" d="M6.4,75.2c-0.1,2.4,2.1,4.5,4.9,4.5c3.1,0.1,5.6-2,5.7-4.7l0.4-5.3c0.1-2.7-2.3-4.9-5.4-5
		c-2.8-0.1-5.1,1.8-5.2,4.2L6.4,75.2z"/>
	<path class="st0" d="M67,31.4l-1.8,0.7c-0.9,0.3-1.4,1.3-1.1,2.3l0.6,2c0.2,0.7,0.9,1,1.6,0.9l3.5-0.7"/>
	<path class="st0" d="M25.9,31.4l1.8,0.7c0.9,0.3,1.4,1.3,1.1,2.3l-0.6,2c-0.2,0.7-0.9,1-1.6,0.9l-3.5-0.7"/>
	<path class="st0" d="M60.7,24.1L59.4,26c-0.2,0.3-0.3,0.7-0.2,1.1c0.1,0.4,0.4,0.7,0.7,0.9l2.1,1.1c0.8,0.4,1.7,0.2,2.2-0.5
		l1.2-1.8"/>
	<path class="st0" d="M32.2,24.1l1.3,1.9c0.2,0.3,0.3,0.7,0.2,1.1c-0.1,0.4-0.4,0.7-0.7,0.9l-2.1,1.1c-0.8,0.4-1.7,0.2-2.2-0.5
		l-1.2-1.8"/>
	<path class="st0" d="M70.5,43.3l-2.2,0.1c-0.4,0-0.7,0.2-0.9,0.4c-0.2,0.3-0.4,0.6-0.3,1l0.2,2.4c0,0.5,0.3,0.9,0.7,1.2
		s0.9,0.4,1.4,0.3l1.7-0.5"/>
	<path class="st0" d="M22.4,43.3l2.2,0.1c0.4,0,0.7,0.2,0.9,0.4c0.2,0.3,0.4,0.6,0.3,1l-0.2,2.4c0,0.5-0.3,0.9-0.7,1.2
		c-0.4,0.3-0.9,0.4-1.4,0.3l-1.7-0.5"/>
	<path class="st0" d="M73.2,56.5l-2.5,0.8c-0.7,0.2-1.1,0.9-1,1.5l0.3,1.8c0.1,0.7,0.8,1.3,1.5,1.2l2.6-0.1"/>
	<path class="st0" d="M19.7,56.5l2.5,0.8c0.7,0.2,1.1,0.9,1,1.5l-0.3,1.8c-0.1,0.7-0.8,1.3-1.5,1.2l-2.6-0.1"/>
	<path class="st0" d="M75.5,69.8l-2,0.5c-1.1,0.3-1.8,1.3-1.7,2.4l0.1,1.5c0.1,1.1,0.9,2,2,2.3l2.6,0.6"/>
	<path class="st0" d="M17.4,69.8l2,0.5c1.1,0.3,1.8,1.3,1.7,2.4L21,74.2c-0.1,1.1-0.9,2-2,2.3l-2.6,0.6"/>
	<line class="st0" x1="55.4" y1="24.1" x2="59.4" y2="26"/>
	<line class="st0" x1="37.5" y1="24.1" x2="33.5" y2="26"/>
	<line class="st0" x1="66.3" y1="37.1" x2="67.4" y2="43.8"/>
	<line class="st0" x1="26.6" y1="37.1" x2="25.5" y2="43.8"/>
	<line class="st0" x1="68.5" y1="48.7" x2="70.7" y2="57.3"/>
	<line class="st0" x1="24.3" y1="48.7" x2="22.2" y2="57.3"/>
	<line class="st0" x1="71.5" y1="61.8" x2="72.7" y2="70.6"/>
	<line class="st0" x1="21.3" y1="61.8" x2="20.2" y2="70.6"/>
	<path class="st0" d="M73.9,76.5c0,0-0.8,3.8,1.9,4.8"/>
	<path class="st0" d="M19,76.5c0,0,0.8,3.8-1.9,4.8"/>
	<line class="st0" x1="49.2" y1="23.1" x2="43.7" y2="23.1"/>
	<line class="st0" x1="63.2" y1="29.3" x2="64.8" y2="32.2"/>
	<line class="st0" x1="29.7" y1="29.3" x2="28.1" y2="32.2"/>
</g>
<g>
	<line class="st0" x1="10.6" y1="70.4" x2="13.7" y2="74.7"/>
	<line class="st0" x1="9.9" y1="74.3" x2="14.2" y2="71.1"/>
</g>
<g>
	<line class="st0" x1="12.8" y1="55.9" x2="15.9" y2="60.1"/>
	<line class="st0" x1="12.2" y1="59.7" x2="16.4" y2="56.6"/>
</g>
<g>
	<line class="st0" x1="15.8" y1="42.3" x2="18.9" y2="46.6"/>
	<line class="st0" x1="15.1" y1="46.2" x2="19.4" y2="43.1"/>
</g>
<g>
	<line class="st0" x1="79.4" y1="70.6" x2="82.5" y2="74.8"/>
	<line class="st0" x1="78.7" y1="74.5" x2="83" y2="71.3"/>
</g>
<g>
	<line class="st0" x1="77" y1="55.9" x2="80.1" y2="60.1"/>
	<line class="st0" x1="76.3" y1="59.7" x2="80.6" y2="56.6"/>
</g>
<g>
	<line class="st0" x1="74" y1="42.3" x2="77.2" y2="46.6"/>
	<line class="st0" x1="73.4" y1="46.2" x2="77.6" y2="43.1"/>
</g>
</svg>
