<?xml version="1.0" encoding="utf-8"?>
<!-- Generator: Adobe Illustrator 21.0.2, SVG Export Plug-In . SVG Version: 6.00 Build 0)  -->
<svg version="1.1" id="Layer_1" xmlns="http://www.w3.org/2000/svg" xmlns:xlink="http://www.w3.org/1999/xlink" x="0px" y="0px"
	 viewBox="0 0 92.9 92.9" style="enable-background:new 0 0 92.9 92.9;" xml:space="preserve">
<style type="text/css">
	.st0{fill:none;stroke:#393F47;stroke-width:3;stroke-linecap:round;stroke-linejoin:round;stroke-miterlimit:10;}
</style>
<g id="XMLID_789_">
	<path id="XMLID_106_" class="st0" d="M28.8,37.2l-0.4-1.3c-0.9-3.3-2.1-6.5-3.3-9.7c-0.7-2-1.1-4.2-1.1-6.3c0-3.8,0.9-6.7,2.2-8.8
		c1.9-3.3,5.5-5.3,9.4-5.3h0c0.6,0,1.3,0.1,1.9,0.2l8.6,1.5L54.8,6c0.6-0.1,1.3-0.2,1.9-0.2h0c3.8,0,7.5,2,9.4,5.3
		c0.6,1.1,1.2,2.3,1.5,3.8c0.4,1.5,0.6,3.1,0.6,5c0,2.2-0.4,4.3-1.1,6.3c-1.2,3.3-2.4,6.6-3.4,10l-0.3,1"/>
	<rect id="XMLID_108_" x="28.8" y="37.2" class="st0" width="34.6" height="13.8"/>
	<g id="XMLID_100_">
		<path id="XMLID_101_" class="st0" d="M32.4,51l4.7,3.6v23.5c0,1.7,0.7,3.4,2,4.5l7,6.2"/>
		<path id="XMLID_102_" class="st0" d="M59.9,51l-4.7,3.6v23.5c0,1.7-0.7,3.4-2,4.5l-7,6.2"/>
	</g>
	<path id="XMLID_103_" class="st0" d="M37.1,54.6l8.7,1.8c3.1,0.6,6.1,1.9,8.7,3.7l0.7,0.5"/>
	<path id="XMLID_112_" class="st0" d="M37.1,63.3l8.6,1.8c3.4,0.7,6.6,2,9.4,3.8"/>
	<path id="XMLID_111_" class="st0" d="M37.1,71.9l8.6,1.8c1.6,0.3,3.1,0.8,4.5,1.4c1.7,0.7,3.4,1.5,4.9,2.5"/>
	<path id="XMLID_110_" class="st0" d="M37.3,79.4L37.3,79.4l8.5,1.8c2.3,0.5,4.5,1.2,6.6,2.2"/>
	<polyline id="XMLID_104_" class="st0" points="34.1,41.6 34.1,45.5 47.2,45.5 	"/>
	<path id="XMLID_107_" class="st0" d="M47.2,13.4l6.3-1.4c2.8-0.6,5.7,0.2,7.5,2.4c0.1,0.2,0.3,0.3,0.4,0.5c1.1,1.5,1.6,3.3,1.6,5.1
		"/>
</g>
</svg>
