<?xml version="1.0" encoding="utf-8"?>
<!-- Generator: Adobe Illustrator 21.0.2, SVG Export Plug-In . SVG Version: 6.00 Build 0)  -->
<svg version="1.1" id="Layer_1" xmlns="http://www.w3.org/2000/svg" xmlns:xlink="http://www.w3.org/1999/xlink" x="0px" y="0px"
	 viewBox="0 0 92.9 92.9" style="enable-background:new 0 0 92.9 92.9;" xml:space="preserve">
<style type="text/css">
	.st0{fill:#393F47;}
	.st1{fill:none;stroke:#393F47;stroke-width:3;stroke-linecap:round;stroke-linejoin:round;stroke-miterlimit:10;}
</style>
<g>
	<path class="st0" d="M76.8,34.1c-0.1-4.5-1.5-8.4-4.2-11.7c-1.8-2.1-4.1-3.6-7-4.3c-2.4-0.6-4.7-0.7-7-0.8c-2-0.1-3.8-0.2-5.4-0.6
		c-0.1,0-0.1,0-0.2-0.1c-1.3-0.4-2.6-1.1-4.1-1.9c-1.8-1-3.9-2.1-6.4-2.8c-2.3-0.6-4.5-0.7-6.8-0.4c-4.4,0.6-8.1,2.8-10.9,6.6
		c-2.7,3.5-4.6,8.4-5.9,14.9c-2.3,11.2-0.3,19.7,1.7,24.8c1.2,2.9,2.7,5.6,4.4,7.6c1.3,1.5,3.3,3.5,5.7,4.1c1.7,0.5,3.4,0.2,4.8-0.8
		c0.8-0.6,2.2-2,2.3-4.6c0.1-2.5,1-6,2.3-8.8c1.2-2.7,2.3-3.9,2.9-4.4c0.3,0.9,0.6,2.8,0.2,6.2c-0.4,3.6-1.4,6.8-2,7.7
		c-1.3,2.4-1,4.3-0.6,5.4c0.6,1.4,1.9,2.5,3.5,3c1.9,0.5,4.3,0.1,7.4-1.1c2.6-1.1,5.3-2.7,8-4.8c3-2.3,5.8-5.1,8.2-8.1
		c2.8-3.5,4.9-7.4,6.4-11.4C76,42.6,76.9,38.1,76.8,34.1z M70.1,46.5c-5.8,15.5-21.2,23.9-25,22.8c-0.9-0.2-1.2-1-0.4-2.4
		c2.1-3.8,5.1-18.7-0.5-20.2C38.6,45.2,34,57.3,33.6,63.9c-0.1,1.4-0.8,1.9-1.9,1.6c-4-1.1-12.7-13.2-8.9-31.8
		c2.4-11.8,7-17.3,13.4-18.2c2-0.3,3.7-0.1,5.2,0.3c3.9,1,6.8,3.6,10.4,4.7c0.1,0,0.2,0.1,0.3,0.1c3.9,1.1,8.5,0.4,12.4,1.4
		c1.8,0.5,3.5,1.4,4.9,3C73.7,30.2,73.6,37.1,70.1,46.5z"/>
	<path class="st0" d="M61.2,25.6c-13.3,0.8-19.9-5.2-20-5.3c-0.4-0.3-0.9-0.3-1.3,0c-0.3,0.4-0.3,0.9,0,1.3c0.2,0.2,3.3,3,9.5,4.7
		c3.1,0.8,7.1,1.4,11.8,1.1c0.5,0,0.9-0.5,0.8-1C62.2,26,61.7,25.6,61.2,25.6z"/>
</g>
<path class="st1" d="M2,42.2c21.7-0.5,7.5,32,37.6,35.9C73.1,82.5,67.7,48.9,90,42.9"/>
</svg>
