<?xml version="1.0" encoding="utf-8"?>
<!-- Generator: Adobe Illustrator 21.0.2, SVG Export Plug-In . SVG Version: 6.00 Build 0)  -->
<svg version="1.1" id="Layer_1" xmlns="http://www.w3.org/2000/svg" xmlns:xlink="http://www.w3.org/1999/xlink" x="0px" y="0px"
	 viewBox="0 0 92.9 92.9" style="enable-background:new 0 0 92.9 92.9;" xml:space="preserve">
<style type="text/css">
	.st0{fill:#393F47;}
</style>
<g>
	<path class="st0" d="M83.1,24.1c-1.7-5.7-4.8-10.2-9.4-13.5c-3-2.1-6.4-3.2-10.4-3.2c-3.2,0-6.3,0.7-9.3,1.3
		c-2.5,0.6-4.9,1.1-7.1,1.1c-0.1,0-0.2,0-0.3,0c-1.8,0-3.8-0.5-5.9-1C38,8.2,35,7.5,31.6,7.5c-3.1,0-6,0.6-8.9,1.8
		c-5.4,2.3-9.3,6.4-11.7,12.2c-2.2,5.5-3,12.3-2.5,21.1c0.9,15.1,6.4,25.3,10.8,31.1c2.5,3.3,5.4,6.2,8.3,8.2
		c2.2,1.5,5.4,3.3,8.7,3.3c2.4,0,4.5-0.9,5.9-2.7c0.8-1,2.1-3.2,1.4-6.7c-0.7-3.3-0.7-8-0.1-12c0.6-3.8,1.6-5.8,2.2-6.6
		c0.7,1,1.7,3.4,2.3,7.9c0.7,4.8,0.5,9.2,0.1,10.6c-0.9,3.6,0.1,5.9,1.2,7.2c1.3,1.6,3.3,2.6,5.5,2.6c2.6,0,5.6-1.3,9-4
		c2.9-2.3,5.8-5.3,8.5-8.9c3.1-4,5.7-8.5,7.7-13.1c2.3-5.5,3.8-11.1,4.3-16.8C84.9,35.2,84.6,29.1,83.1,24.1z M78.8,42.2
		C76.7,64,59.9,80,54.7,80c-1.3,0-1.8-0.9-1.3-3c1.4-5.6,0.1-25.6-7.6-25.6c-7.7,0-9.4,17-7.6,25.6c0.4,1.8-0.4,2.7-1.9,2.7
		c-5.5,0-20.8-12.5-22.3-37.5c-1-16,3-24.6,10.9-27.9c2.4-1,4.7-1.4,6.8-1.4c3,0,5.9,0.7,8.7,1.4l3.7,4.2l-5.2,0.8l0.3,1.2
		c-3.9-0.7-6-1.8-6.1-1.9c-0.6-0.3-1.3-0.1-1.6,0.5c-0.3,0.6-0.1,1.3,0.5,1.6c0.2,0.1,3.3,1.7,8.6,2.4l3.5,5.4l-3.4,8.1l6,8.7
		l-3.7-8.1l5.6-7.6l6.1,3l-5.2-5.3l-2-3.9c3.9-0.2,8.5-0.9,13.7-2.6c0.6-0.2,1-0.9,0.8-1.5c-0.2-0.6-0.9-1-1.5-0.8
		c-3.8,1.3-7.3,2-10.4,2.3l2.8-2.4l4.9-4.9c1.9-0.4,3.8-0.7,5.6-0.7c2.5,0,5,0.5,7.3,2.2C77.8,20.2,80,29,78.8,42.2z"/>
</g>
</svg>
