<?xml version="1.0" encoding="utf-8"?>
<!-- Generator: Adobe Illustrator 21.0.2, SVG Export Plug-In . SVG Version: 6.00 Build 0)  -->
<svg version="1.1" id="Layer_1" xmlns="http://www.w3.org/2000/svg" xmlns:xlink="http://www.w3.org/1999/xlink" x="0px" y="0px"
	 viewBox="0 0 92.9 92.9" style="enable-background:new 0 0 92.9 92.9;" xml:space="preserve">
<style type="text/css">
	.st0{fill:#393F47;}
</style>
<path class="st0" d="M92.8,43.3c-0.2-0.8-1-1.2-1.7-1c-0.9,0.2-1.8,0.5-2.7,0.7c0,0,0,0,0-0.1c0-2-0.4-3.7-1.2-5.2
	c-0.8-1.4-1.9-2.6-3.4-3.4c-2.3-1.3-5.5-2-9.6-2c-4.2,0-7.3,0.7-9.6,2c-1.5,0.9-2.6,2-3.4,3.4c-0.2,0.3-0.3,0.7-0.5,1
	c-0.1-0.3-0.3-0.7-0.5-1c-0.8-1.4-1.9-2.6-3.4-3.4c-2.3-1.3-5.5-2-9.6-2c-4.2,0-7.3,0.7-9.6,2c-1.5,0.9-2.6,2-3.4,3.4
	c-0.2,0.3-0.3,0.7-0.5,1c-0.1-0.3-0.3-0.7-0.5-1c-0.8-1.4-1.9-2.6-3.4-3.4c-2.3-1.3-5.5-2-9.6-2s-7.3,0.7-9.6,2
	c-1.5,0.9-2.6,2-3.4,3.4C6.2,39.3,5.7,41,5.7,43c0,0.1,0,0.3,0,0.4c-1-0.1-1.9-0.3-2.8-0.4c-0.8-0.1-1.5,0.4-1.6,1.2
	c-0.1,0.8,0.4,1.5,1.2,1.6C3.6,46,4.8,46.1,6,46.3c0,0.1,0,0.2,0,0.2l1.8,19.3c0.3,2.7,2,4.5,4.6,4.5h69.2c2.5,0,4.2-1.8,4.6-4.5
	L88.1,46c1.3-0.3,2.5-0.6,3.7-0.9C92.6,44.9,93,44.1,92.8,43.3z M62.1,42.6C62.1,42.5,62.1,42.5,62.1,42.6c0-0.2,0-0.4,0-0.5
	c0,0,0,0,0,0c0-0.1,0-0.3,0-0.4c0,0,0,0,0,0c0-0.1,0-0.3,0.1-0.4c0.9-5.2,5.9-6.6,11.8-6.6c6.3,0,11.4,1.5,11.9,7.3
	c0,0.1,0,0.2,0,0.2c0,0,0,0,0,0c0,0.1,0,0.1,0,0.2c0,0,0,0.1,0,0.1c0,0.1,0,0.1,0,0.2c0,0.1,0,0.2,0,0.3c0,0.2,0,0.4,0,0.5
	c-2.7,0.5-5.4,0.9-8.5,1.2v-0.9c0-0.7-0.6-1.2-1.3-1.2H72c-0.7,0-1.2,0.6-1.2,1.2v1.4c-2.8,0.2-5.6,0.3-8.5,0.3
	c-0.1-0.9-0.2-1.8-0.2-2.6C62.1,42.8,62.1,42.7,62.1,42.6z M35.1,42.6C35.1,42.5,35.1,42.5,35.1,42.6c0-0.2,0-0.4,0-0.5c0,0,0,0,0,0
	c0-0.1,0-0.3,0-0.4c0,0,0,0,0,0c0-0.1,0-0.3,0.1-0.4c0.9-5.2,5.9-6.6,11.8-6.6c6,0,10.9,1.4,11.8,6.6c0,0.1,0,0.3,0.1,0.4
	c0,0,0,0,0,0c0,0.1,0,0.3,0,0.4c0,0,0,0,0,0c0,0.1,0,0.3,0,0.4c0,0,0,0.1,0,0.1c0,0.1,0,0.3,0,0.4c0,0.8-0.1,1.7-0.2,2.7
	c-2.8,0-5.6,0.1-8.4,0.1v-0.6c0-0.7-0.6-1.2-1.3-1.2h-4.3c-0.7,0-1.2,0.6-1.2,1.2v0.5c-2.8,0-5.6-0.1-8.3-0.1
	c-0.1-0.9-0.2-1.8-0.2-2.6C35.1,42.8,35.1,42.7,35.1,42.6z M8,43c0-0.1,0-0.2,0-0.3c0-0.1,0-0.1,0-0.2c0,0,0-0.1,0-0.1
	c0-0.1,0-0.1,0-0.2c0,0,0,0,0,0c0-0.1,0-0.2,0-0.2c0.5-5.8,5.7-7.3,11.9-7.3c6,0,10.9,1.4,11.8,6.6c0,0.1,0,0.3,0.1,0.4c0,0,0,0,0,0
	c0,0.1,0,0.3,0,0.4c0,0,0,0,0,0c0,0.1,0,0.3,0,0.4c0,0,0,0.1,0,0.1c0,0.1,0,0.3,0,0.4c0,0.7-0.1,1.6-0.2,2.5
	c-3.2-0.1-6.2-0.3-9.2-0.4v-1.2c0-0.7-0.6-1.2-1.3-1.2H17c-0.7,0-1.2,0.6-1.2,1.2v0.7c-2.8-0.2-5.4-0.5-7.7-0.8C8,43.5,8,43.2,8,43z
	 M20,63.2c-5.6,0-10.2-9.6-11.6-16.6c2.3,0.3,4.7,0.5,7.3,0.7v0.8c0,0.7,0.5,1.2,1.2,1.2h4.3c0.7,0,1.3-0.6,1.3-1.2v-0.3
	c2.8,0.2,5.7,0.3,8.7,0.4C29.5,55,25.1,63.2,20,63.2z M47,63.2c-5.1,0-9.4-8.1-11.2-14.8c2.5,0.1,5,0.1,7.7,0.1v1
	c0,0.7,0.5,1.2,1.2,1.2h4.3c0.7,0,1.3-0.6,1.3-1.2v-0.9c2.6,0,5.2,0,7.8,0C56.5,55.2,52.1,63.2,47,63.2z M74.1,63.2
	c-5.1,0-9.4-8.1-11.2-14.8c2.6-0.1,5.2-0.2,7.9-0.3v0.1c0,0.7,0.5,1.2,1.2,1.2h4.3c0.7,0,1.3-0.6,1.3-1.2v-0.6
	c2.8-0.3,5.5-0.6,8.1-1.1C84.4,53.5,79.7,63.2,74.1,63.2z"/>
</svg>
