<?xml version="1.0" encoding="utf-8"?>
<!-- Generator: Adobe Illustrator 21.0.2, SVG Export Plug-In . SVG Version: 6.00 Build 0)  -->
<svg version="1.1" id="Layer_1" xmlns="http://www.w3.org/2000/svg" xmlns:xlink="http://www.w3.org/1999/xlink" x="0px" y="0px"
	 viewBox="0 0 92.9 92.9" style="enable-background:new 0 0 92.9 92.9;" xml:space="preserve">
<style type="text/css">
	.st0{fill-rule:evenodd;clip-rule:evenodd;fill:#393F47;}
	.st1{fill:#393F47;stroke:#393F47;stroke-width:0.75;stroke-linecap:round;stroke-linejoin:round;stroke-miterlimit:10;}
</style>
<path class="st0" d="M67.3,24.5c-2.3-1.6-4.8-2.4-7.8-2.4c-2.4,0-4.7,0.5-6.9,1c-1.9,0.4-3.7,0.8-5.3,0.8c-0.1,0-0.1,0-0.2,0
	c-1.3,0-2.8-0.4-4.4-0.8c-2-0.5-4.3-1-6.9-1c-2.3,0-4.5,0.4-6.6,1.4c-4,1.7-7,4.8-8.7,9.1c-1.7,4.1-2.3,9.2-1.9,15.7
	c0.7,11.3,4.8,18.9,8,23.2c1.9,2.5,4,4.6,6.2,6.1c1.6,1.1,4.1,2.5,6.5,2.5c1.8,0,3.3-0.7,4.4-2c0.6-0.8,1.6-2.4,1-5
	c-0.5-2.4-0.5-5.9-0.1-9c0.5-2.8,1.2-4.3,1.6-4.9c0.5,0.8,1.3,2.5,1.7,5.9c0.5,3.6,0.4,6.8,0.1,7.9c-0.7,2.7,0.1,4.4,0.9,5.3
	c1,1.2,2.4,1.9,4.1,1.9c2,0,4.2-1,6.7-3c2.2-1.7,4.4-4,6.4-6.6c2.3-3,4.2-6.3,5.7-9.8c1.7-4.1,2.8-8.3,3.2-12.5
	c0.5-5.6,0.2-10.1-0.9-13.9C73.1,30.3,70.7,26.9,67.3,24.5z M71.2,48.1c-1.5,16.3-14.1,28.2-18,28.2c-0.9,0-1.4-0.7-1-2.2
	c1-4.2,0.1-19.1-5.7-19.1c-5.7,0-7,12.7-5.7,19.1c0.3,1.4-0.3,2-1.4,2c-4.1,0-15.5-9.3-16.7-28C22,36.2,25,29.7,30.8,27.3
	c1.8-0.8,3.5-1,5.1-1c4,0,7.4,1.7,11.1,1.8c0.1,0,0.2,0,0.3,0c4,0,8.2-1.8,12.2-1.8c1.9,0,3.7,0.4,5.4,1.6
	C70.4,31.6,72.1,38.2,71.2,48.1z"/>
<path class="st0" d="M57.3,30.5c-12.4,4.2-20.3,0.1-20.4,0.1c-0.4-0.2-1-0.1-1.2,0.4c-0.2,0.4-0.1,1,0.4,1.2
	c0.2,0.1,3.9,2.1,10.3,2.1c3.2,0,7.1-0.5,11.6-2c0.5-0.2,0.7-0.7,0.6-1.1C58.3,30.5,57.8,30.3,57.3,30.5z"/>
<polygon class="st0" points="10.3,70.1 12.5,76.9 14.8,70.1 21.7,67.8 14.8,65.6 12.5,58.7 10.3,65.6 3.4,67.8 "/>
<polygon class="st0" points="11.9,41 10.3,46 5.3,47.6 10.3,49.3 11.9,54.2 13.6,49.3 18.5,47.6 13.6,46 "/>
<polygon class="st0" points="16.1,26.3 15,29.4 11.9,30.4 15,31.4 16.1,34.5 17.1,31.4 20.2,30.4 17.1,29.4 "/>
<g>
	<path class="st1" d="M59.9,7.6c0,0.1-0.1,0.3-0.2,0.4c-0.4,0.4-0.6,0.9-0.6,1.4l0,0c0,0.5,0.2,1,0.6,1.4c0.2,0.2,0.2,0.5,0,0.7
		c-0.2,0.2-0.5,0.2-0.7,0c-0.6-0.6-0.9-1.3-0.9-2.1l0,0c0-0.8,0.3-1.6,0.9-2.1c0.2-0.2,0.5-0.2,0.7,0C59.8,7.3,59.9,7.4,59.9,7.6z"
		/>
	<g>
		<g>
			<path class="st1" d="M78.1,26.3c0,0.1-0.1,0.3-0.2,0.4c-0.2,0.2-0.5,0.2-0.7,0l-5.7-5.9c-0.2-0.2-0.2-0.5,0-0.7
				c0.2-0.2,0.5-0.2,0.7,0L78,26C78.1,26.1,78.1,26.2,78.1,26.3z"/>
		</g>
		<g>
			<path class="st1" d="M81.1,29.3c0,0.1-0.1,0.3-0.2,0.4c-0.2,0.2-0.5,0.2-0.7,0l-1.5-1.5c-0.2-0.2-0.2-0.5,0-0.7
				c0.2-0.2,0.5-0.2,0.7,0l1.5,1.5C81,29.1,81.1,29.2,81.1,29.3z"/>
		</g>
		<g>
			<path class="st1" d="M89.1,37.6c0,0.1-0.1,0.3-0.2,0.4c-0.2,0.2-0.5,0.2-0.7,0l-6.6-6.8c-0.2-0.2-0.2-0.5,0-0.7
				c0.2-0.2,0.5-0.2,0.7,0l6.6,6.8C89.1,37.3,89.1,37.5,89.1,37.6z"/>
		</g>
	</g>
	<path class="st1" d="M55.6,9.3c-0.1,4.7,5.4,7.3,9,4.3l2.6,2.7c-0.6,1.2,0.4,1.8,2.2,3.7c-0.4,0.7-0.4,1.7,0.3,2.3l17,17.5
		c0.8,0.8,2,0.8,2.8,0l1.3-1.3c0.4-0.4,0.6-0.9,0.6-1.4c0-0.5-0.2-1-0.6-1.4l-17-17.5c-0.6-0.7-1.6-0.7-2.3-0.3l-1.9-2
		c-0.4-0.5-1.1-0.6-1.7-0.3l-2.6-2.7c3-3.6,0.5-9-4.1-9.1C58.2,3.8,55.7,6.2,55.6,9.3z M90.2,36.5c0.4,0.4,0.4,1,0,1.4l-1.3,1.3
		c-0.4,0.4-1,0.4-1.4,0C69.1,20.3,70.2,21.6,70.2,21c0-0.2,0.1-0.5,0.3-0.7c1.5-1.4,1.5-1.6,2-1.6C73.1,18.7,71.8,17.6,90.2,36.5z
		 M68.9,16.7l1.9,2l-0.7,0.7l-1.9-2C67.8,16.9,68.5,16.2,68.9,16.7z M65.6,9.4c0,4-4.9,6-7.7,3.1c-2.8-2.8-0.8-7.7,3.3-7.6
		C63.7,4.9,65.6,6.9,65.6,9.4z"/>
</g>
</svg>
