<?xml version="1.0" encoding="utf-8"?>
<!-- Generator: Adobe Illustrator 16.0.0, SVG Export Plug-In . SVG Version: 6.00 Build 0)  -->
<!DOCTYPE svg PUBLIC "-//W3C//DTD SVG 1.1//EN" "http://www.w3.org/Graphics/SVG/1.1/DTD/svg11.dtd">
<svg version="1.1" id="Layer_1" xmlns="http://www.w3.org/2000/svg" xmlns:xlink="http://www.w3.org/1999/xlink" x="0px" y="0px"
	 width="239.425px" height="389.394px" viewBox="0 0 239.425 389.394" enable-background="new 0 0 239.425 389.394"
	 xml:space="preserve">
<g id="XMLID_50_" opacity="0.11">
	<g>
		<g id="XMLID_99_">
			<polygon id="XMLID_110_" fill="#333E47" points="-131.969,587.854 -104.421,587.854 -118.194,611.603 			"/>
			<polygon id="XMLID_109_" fill="#333E47" points="-165.454,530.051 -70.936,530.051 -84.71,553.799 -151.681,553.799 			"/>
			<polygon id="XMLID_108_" fill="#333E47" points="-232.425,414.489 -3.964,414.489 -17.738,438.238 -218.651,438.238 			"/>
			<polygon id="XMLID_107_" fill="#333E47" points="-198.94,472.294 -37.45,472.294 -51.224,496.043 -185.166,496.043 			"/>
			<polygon id="XMLID_106_" fill="#333E47" points="-265.911,356.686 29.521,356.686 15.747,380.435 -252.137,380.435 			"/>
			<polygon id="XMLID_105_" fill="#333E47" points="-299.396,298.93 63.007,298.93 49.233,322.678 -285.622,322.678 			"/>
			<polygon id="XMLID_104_" fill="#333E47" points="-332.882,241.125 96.493,241.125 82.719,264.874 -319.107,264.874 			"/>
			<polygon id="XMLID_103_" fill="#333E47" points="-366.368,183.321 129.978,183.321 116.204,207.07 -352.593,207.07 			"/>
			<polygon id="XMLID_102_" fill="#333E47" points="-399.853,125.564 163.464,125.564 149.689,149.313 -386.079,149.313 			"/>
			<polygon id="XMLID_101_" fill="#333E47" points="-433.339,67.761 196.949,67.761 183.175,91.509 -419.564,91.509 			"/>
			<polygon id="XMLID_100_" fill="#333E47" points="-466.824,9.956 230.435,9.956 216.66,33.705 -453.05,33.705 			"/>
		</g>
	</g>
</g>
</svg>
