<?xml version="1.0" encoding="utf-8"?>
<!-- Generator: Adobe Illustrator 16.0.0, SVG Export Plug-In . SVG Version: 6.00 Build 0)  -->
<!DOCTYPE svg PUBLIC "-//W3C//DTD SVG 1.1//EN" "http://www.w3.org/Graphics/SVG/1.1/DTD/svg11.dtd">
<svg version="1.1" id="Layer_1" xmlns="http://www.w3.org/2000/svg" xmlns:xlink="http://www.w3.org/1999/xlink" x="0px" y="0px"
	 width="380.762px" height="501.176px" viewBox="0 0 380.762 501.176" enable-background="new 0 0 380.762 501.176"
	 xml:space="preserve">
<g id="XMLID_4_" opacity="0.1">
	<g id="XMLID_5_">
		<polygon id="XMLID_14_" fill="#43B3D8" points="-100.49,424.269 127.971,424.269 114.197,448.018 -86.716,448.018 		"/>
		<polygon id="XMLID_13_" fill="#43B3D8" points="-67.005,482.073 94.485,482.073 80.711,505.822 -53.23,505.822 		"/>
		<polygon id="XMLID_12_" fill="#43B3D8" points="-133.976,366.465 161.456,366.465 147.683,390.214 -120.202,390.214 		"/>
		<polygon id="XMLID_11_" fill="#43B3D8" points="-167.462,308.709 194.942,308.709 181.168,332.457 -153.688,332.457 		"/>
		<polygon id="XMLID_10_" fill="#43B3D8" points="-200.947,250.904 228.428,250.904 214.653,274.653 -187.173,274.653 		"/>
		<polygon id="XMLID_9_" fill="#43B3D8" points="-234.433,193.101 261.913,193.101 248.139,216.85 -220.658,216.85 		"/>
		<polygon id="XMLID_8_" fill="#43B3D8" points="-267.918,135.344 295.398,135.344 281.624,159.093 -254.144,159.093 		"/>
		<polygon id="XMLID_7_" fill="#43B3D8" points="-301.403,77.54 328.884,77.54 315.11,101.288 -287.63,101.288 		"/>
		<polygon id="XMLID_6_" fill="#43B3D8" points="-334.89,19.735 362.37,19.735 348.596,43.484 -321.115,43.484 		"/>
	</g>
</g>
</svg>
