<?xml version="1.0" encoding="utf-8"?>
<!-- Generator: Adobe Illustrator 16.0.0, SVG Export Plug-In . SVG Version: 6.00 Build 0)  -->
<!DOCTYPE svg PUBLIC "-//W3C//DTD SVG 1.1//EN" "http://www.w3.org/Graphics/SVG/1.1/DTD/svg11.dtd">
<svg version="1.1" id="Layer_1" xmlns="http://www.w3.org/2000/svg" xmlns:xlink="http://www.w3.org/1999/xlink" x="0px" y="0px"
	 width="380.762px" height="1407.141px" viewBox="0 0 380.762 1407.141" enable-background="new 0 0 380.762 1407.141"
	 xml:space="preserve">
<linearGradient id="SVGID_1_" gradientUnits="userSpaceOnUse" x1="3506.6484" y1="1544.9419" x2="2569.0334" y2="-79.0547" gradientTransform="matrix(0.4984 -0.8669 0.8669 0.4984 -1139.2775 2988.5798)">
	<stop  offset="0" style="stop-color:#263B8C"/>
	<stop  offset="0.5301" style="stop-color:#4E8096"/>
	<stop  offset="1" style="stop-color:#7BC795"/>
</linearGradient>
<path opacity="0.11" fill="url(#SVGID_1_)" d="M456.46,1459.12c382.824,220.088,866.747,108.642,1117.778-243.938
	c0.934-1.228,1.705-2.774,2.637-3.998c2.139-2.921,3.826-6.161,5.922-9.107c13.002-18.168,25.279-37.153,36.592-56.921
	c11.348-19.74,21.643-39.925,30.75-60.214c1.01-2.15,2.312-4.417,3.371-6.651c0.152-0.366,0.393-0.683,0.451-0.99
	c182.918-395.604,36.551-873.791-348.408-1095.106c-407.264-234.138-928.977-93.409-1163.071,313.88
	C-91.661,703.343,49.24,1225.006,456.46,1459.12z M1396.254,318.353c-289.447-166.405-660.364-66.178-826.786,223.198
	c-166.41,289.56-66.314,660.4,223.09,826.78c54.232,31.179,111.261,52.937,169.288,65.94
	c-61.286-12.775-121.429-34.957-178.564-67.804c-290.899-167.239-391.55-539.994-224.267-830.869
	c167.244-291.007,539.999-391.657,830.958-224.326c57.035,32.734,106.586,73.729,148.402,120.174
	C1497.984,387.869,1450.443,349.507,1396.254,318.353z M1538.324,440.628c-39.531-42.4-85.896-79.746-138.76-110.138
	c-285.211-163.969-650.631-65.301-814.625,219.954c-163.973,285.215-65.394,650.694,219.836,814.732
	c52.846,30.322,108.449,51.601,165.004,64.388c-59.765-12.642-118.54-34.432-174.182-66.421
	c-286.541-164.733-385.742-531.996-220.916-818.596c164.781-286.624,531.995-385.738,818.551-220.939
	C1448.98,355.603,1497.363,395.472,1538.324,440.628z M807.822,1359.878c-282.35-162.324-380.062-524.062-217.688-806.5
	c162.325-282.352,524.059-379.955,806.432-217.674c54.721,31.516,102.377,70.57,142.695,115.072
	c-38.938-41.661-84.539-78.453-136.436-108.347c-281.01-161.497-641.071-64.24-802.633,216.784
	c-161.676,281.133-64.481,641.1,216.561,802.73c51.908,29.783,106.582,50.694,162.114,63.289
	C920.216,1412.727,862.523,1391.326,807.822,1359.878z M1392.955,305.994c-293.807-168.911-670.308-67.232-839.213,226.515
	c-168.886,293.762-67.331,670.279,226.559,839.237c70.9,40.762,146.537,65.369,222.999,75.778
	c-79.663-9.693-158.73-35.248-232.538-77.681c-295.366-169.75-397.451-548.161-227.68-843.464
	c169.793-295.341,548.153-397.486,843.512-227.625c73.871,42.412,135.652,97.945,184.127,161.976
	C1523.275,399.851,1463.895,346.779,1392.955,305.994z M819.761,1356.623C541.57,1196.748,445.472,840.31,605.367,562.189
	c159.916-278.162,516.315-374.396,794.452-214.438c53.744,30.842,100.49,69.201,140.09,112.778
	c-38.23-40.913-82.902-76.944-133.928-106.278c-276.865-159.114-631.583-63.334-790.83,213.562
	c-159.186,276.992-63.448,631.685,213.392,790.841c51.025,29.335,104.64,49.812,159.209,62.307
	C930.211,1408.691,873.521,1387.53,819.761,1356.623z M1389.641,293.457c-298.291-171.489-680.405-68.261-851.819,229.9
	c-171.467,298.252-68.329,680.279,229.938,851.812c72.135,41.472,149.122,66.401,226.881,76.934
	c-81.049-9.752-161.443-35.673-236.616-78.891C458.32,1200.911,354.55,816.924,526.903,517.08
	c172.3-299.7,556.468-403.395,856.173-231.093c75.172,43.217,138.025,99.649,187.186,164.871
	C1522.082,388.873,1461.693,334.879,1389.641,293.457z M831.564,1353.399c-273.978-157.511-368.733-508.564-211.197-782.586
	c157.534-274.017,508.569-368.842,782.567-211.263c52.586,30.175,98.479,67.646,137.408,110.213
	c-37.518-39.878-81.355-75.089-131.227-103.76c-272.822-156.846-622.401-62.491-779.178,210.312
	c-156.94,272.886-62.508,622.332,210.228,779.129c49.918,28.698,102.385,48.801,155.681,61.13
	C939.574,1404.467,884.169,1383.642,831.564,1353.399z M1386.143,280.755c-302.631-174.04-690.458-69.321-864.409,233.354
	c-173.996,302.654-69.365,690.431,233.264,864.472c73.676,42.356,152.459,67.807,231.875,78.324
	c-82.764-9.828-165-36.011-241.752-80.136c-304.36-174.979-409.56-564.794-234.629-869.123
	c174.951-304.261,564.78-409.535,869.141-234.557c76.752,44.125,140.738,101.949,190.889,168.707
	C1521.502,378.305,1459.818,323.112,1386.143,280.755z M843.226,1350.322c-270-155.224-363.318-501.072-208.115-771.033
	c155.199-269.956,501.096-363.358,770.969-208.207c51.541,29.632,96.488,66.275,134.586,107.908
	c-36.771-38.994-79.66-73.488-128.482-101.612C1143.422,222.865,799.046,315.89,644.51,584.693
	c-154.621,268.758-61.623,613.176,207.139,767.688c48.821,28.125,100.237,47.787,152.437,59.945
	C948.919,1400.285,894.68,1379.903,843.226,1350.322z M1382.654,267.833c-307.266-176.649-700.731-70.337-877.352,236.829
	c-176.58,307.196-70.43,700.736,236.798,877.363c75.022,43.072,155.304,69.099,236.189,79.722
	c-84.358-9.831-168.139-36.391-246.359-81.417c-308.807-177.535-415.648-573.295-238.062-882.242
	c177.628-308.918,573.398-415.724,882.244-238.167c78.248,44.986,143.383,103.981,194.346,172.001
	C1520.539,367.232,1457.783,311.024,1382.654,267.833z M854.623,1347.208c-265.881-152.798-357.814-493.529-204.961-759.606
	c152.955-265.85,493.629-357.875,759.549-205.054c50.494,28.973,94.643,64.93,132.152,105.713
	c-36.225-38.168-78.266-72.061-126.17-99.602C1150.406,236.432,811.06,328.029,658.785,592.9
	c-152.19,264.926-60.596,604.27,204.13,756.403c47.924,27.61,98.343,46.931,149.47,58.869
	C958.355,1396.33,905.111,1376.292,854.623,1347.208z M1379.084,254.75c-311.752-179.228-711.204-71.354-890.41,240.41
	c-179.249,311.74-71.388,711.162,240.282,890.343c76.406,43.926,158.162,70.456,240.53,81.075
	c-85.95-9.837-171.202-36.898-250.751-82.69c-313.528-180.19-421.985-581.939-241.723-895.542
	c180.239-313.562,581.955-422.011,895.544-241.727c79.551,45.791,145.77,105.865,197.584,175.171
	C1519.43,355.904,1455.451,298.653,1379.084,254.75z M865.955,1344.117c-261.9-150.626-352.541-486.295-201.936-748.26
	c150.67-261.876,486.29-352.43,748.153-201.94c49.572,28.499,92.977,63.574,129.76,103.542
	c-35.518-37.42-76.715-70.602-123.723-97.626c-260.941-150.017-595.247-59.673-745.237,201.224
	c-150.066,261.028-59.852,595.259,201.114,745.231c46.925,26.978,96.275,45.969,146.58,57.771
	C967.551,1392.406,915.484,1372.591,865.955,1344.117z M1375.555,241.405c-316.41-181.905-721.891-72.495-903.799,243.97
	c-181.91,316.469-72.476,721.906,243.934,903.812c77.779,44.716,161.034,71.596,244.869,82.437
	c-87.484-10.033-174.328-37.393-255.439-84.024c-318.207-182.938-428.233-590.76-245.243-909.106
	c182.941-318.263,590.808-428.407,909.015-245.468c81.109,46.631,148.424,107.961,201.049,178.529
	C1518.393,344.449,1453.311,286.164,1375.555,241.405z M877.058,1341.12c-258.036-148.346-347.285-479.011-198.935-737.155
	c148.347-258.036,479.027-347.222,737.087-198.918c48.461,27.86,90.965,62.133,127.053,101.132
	c-34.816-36.562-75.109-68.938-121.049-95.35c-257.051-147.78-586.505-58.855-734.309,198.237
	c-147.855,257.183-58.88,586.55,198.197,734.286c45.939,26.411,94.167,44.984,143.219,56.585
	C976.48,1388.439,925.504,1368.914,877.058,1341.12z M1371.838,227.896C1050.75,43.245,639.253,154.315,454.64,475.536
	c-184.634,321.157-73.564,732.652,247.505,917.236c79.146,45.502,163.741,72.814,249.032,83.694
	c-88.988-9.989-177.289-37.784-259.725-85.178c-323.034-185.714-434.736-599.675-249.035-922.779
	c185.761-323.064,599.749-434.862,922.782-249.148c82.438,47.393,150.838,109.803,204.357,181.68
	C1517.221,332.744,1450.984,273.398,1371.838,227.896z M888.048,1338.227c-254.164-146.178-342.109-472.001-195.975-726.19
	C838.255,357.765,1164.01,269.84,1418.242,416c33.762,19.41,64.32,42.211,92.115,67.343c-26.066-23.003-54.871-43.713-86.195-61.722
	c-253.311-145.686-577.94-58.025-723.563,195.377c-145.645,253.336-58.049,577.873,195.264,723.557
	c31.324,18.009,63.68,32.349,96.801,43.372C956.917,1372.528,921.849,1357.66,888.048,1338.227z M1368.146,214.232
	c-325.963-187.341-743.514-74.692-930.922,251.291c-187.412,325.987-74.617,743.535,251.348,930.876
	c80.662,46.431,166.971,74.326,253.933,85.259c-90.696-10.18-180.829-38.341-264.933-86.692
	C349.707,1206.473,236.25,786.269,424.765,458.361c188.514-327.906,608.762-441.336,936.67-252.82
	c84.061,48.327,153.814,112.14,208.223,185.438C1516.475,321.283,1448.854,260.688,1368.146,214.232z M898.816,1335.317
	C648.429,1191.369,561.82,870.355,705.75,619.9c143.956-250.492,464.971-337.104,715.442-193.107
	c33.229,19.047,63.258,41.484,90.617,66.197c-25.758-22.654-53.963-43.021-84.795-60.803
	c-249.596-143.437-569.448-57.066-712.928,192.505c-143.531,249.66-57.156,569.403,192.479,712.978
	c30.75,17.62,62.586,31.771,95.1,42.674C966.586,1369.161,932.09,1354.389,898.816,1335.317z M1364.389,200.302
	c-330.795-190.119-754.631-75.681-944.814,255.075c-190.233,330.846-75.752,754.708,255.058,944.892
	c82.077,47.129,169.946,75.583,258.543,86.547c-92.332-10.211-184.1-38.8-269.652-87.984
	c-332.91-191.392-448.027-617.896-256.664-950.706c191.414-332.949,617.87-448.042,950.78-256.65
	c85.553,49.185,156.48,114.126,211.693,188.799C1515.297,309.292,1446.588,247.615,1364.389,200.302z M909.542,1332.389
	c-246.754-141.86-332.104-457.946-190.244-704.7c141.907-246.837,457.945-332.103,704.695-190.245
	c32.566,18.724,62.031,40.552,88.807,64.702c-25.15-22.021-52.828-42.027-82.973-59.415c-245.9-141.37-561.04-56.27-702.407,189.627
	c-141.33,245.923-56.315,561.013,189.586,702.383c30.168,17.344,61.383,31.196,93.092,41.811
	C975.777,1365.629,942.042,1351.125,909.542,1332.389z M1360.611,186.303C1024.883-6.709,594.66,109.288,401.625,445.056
	c-193.012,335.729-76.845,765.905,258.967,958.965c83.719,48.131,173.437,77.025,263.838,88.112
	c-94.229-10.16-187.908-39.284-275.285-89.459C311.28,1208.435,194.371,775.498,388.636,437.589
	c194.256-337.853,627.225-454.716,965.09-260.476c87.281,50.236,159.523,116.446,215.768,192.791
	C1514.42,297.359,1444.369,234.457,1360.611,186.303z M919.976,1329.573c-243.053-139.791-327.16-451.122-187.414-694.2
	c139.746-243.077,451.233-327.15,694.307-187.405c31.605,18.114,60.422,39.4,86.531,62.825
	c-24.572-21.348-51.486-40.8-80.801-57.654c-242.312-139.306-552.757-55.545-692.021,186.785
	c-139.308,242.312-55.523,552.717,186.79,692.023c29.314,16.854,59.643,30.365,90.549,40.797
	C984.494,1361.942,951.667,1347.733,919.976,1329.573z M1356.723,171.9C1015.979-24.053,579.373,93.847,383.46,434.672
	c-195.933,340.757-78.082,777.304,262.662,973.258c103.787,59.609,216.415,89.792,328.45,93.816
	c-115.848-2.637-232.599-33.366-339.993-95.107C291.617,1209.41,173.003,770.037,370.173,426.975
	C567.41,83.899,1006.859-34.697,1349.824,162.532c107.393,61.741,192.758,147.265,253.328,245.94
	C1543.342,313.815,1460.568,231.601,1356.723,171.9z M930.341,1326.775c-239.428-137.59-322.307-444.523-184.634-683.903
	c137.632-239.401,444.517-322.196,683.919-184.562c30.793,17.646,58.943,38.207,84.379,61.02
	c-24.027-20.808-50.111-39.727-78.637-56.183c-238.715-137.239-544.636-54.63-681.907,184.241
	c-137.267,238.764-54.766,544.676,184.037,681.965c28.485,16.323,57.959,29.345,88.03,39.64
	C992.975,1358.462,961.086,1344.507,930.341,1326.775z M1352.846,157.275c-345.924-198.816-789.034-79.14-987.867,266.714
	c-198.837,345.859-79.272,788.964,266.623,987.932c105.517,60.661,220.087,91.222,333.98,95.173
	c-117.776-2.545-236.527-33.743-345.758-96.541c-348.121-200.138-468.504-646.215-268.389-994.35
	C551.551,68.016,997.684-52.369,1345.867,147.862c109.17,62.705,195.82,149.65,257.346,250.126
	C1542.488,301.555,1458.381,218.005,1352.846,157.275z M940.503,1324.028C704.65,1188.435,622.996,886.195,758.7,650.341
	c135.511-235.902,437.814-317.464,673.71-181.846c30.213,17.369,57.816,37.504,82.924,59.898
	c-23.584-20.496-49.201-39.033-77.238-55.151c-235.215-135.226-536.649-53.79-671.942,181.441
	c-135.246,235.146-53.902,536.642,181.33,671.938c28.02,16.05,57.084,28.893,86.547,38.955
	C1002.131,1355.196,970.777,1341.492,940.503,1324.028z M1348.889,142.605C997.818-59.228,548.072,62.148,346.262,413.228
	c-201.833,351.072-80.47,800.841,270.603,1002.674c107.262,61.665,223.791,92.78,339.627,96.714
	c-119.824-2.535-240.609-34.158-351.635-97.987c-353.4-203.119-475.624-655.938-272.44-1009.359
	C535.599,51.85,988.418-70.374,1341.771,132.827c111.025,63.829,199.176,152.318,261.639,254.528
	C1541.725,289.232,1456.176,204.228,1348.889,142.605z M950.531,1321.322c-232.348-133.578-312.703-431.264-179.097-663.66
	c133.579-232.35,431.267-312.697,663.64-179.162c29.377,16.946,56.379,36.449,80.754,58.139
	c-22.965-19.799-47.904-37.832-75.129-53.483c-231.709-133.211-528.654-53.06-661.914,178.733
	c-133.261,231.797-53.11,528.742,178.556,661.928c27.311,15.702,55.401,28.153,84.02,38.016
	C1010.336,1351.61,979.914,1338.157,950.531,1321.322z M1344.857,127.664C988.555-77.233,532.033,45.991,327.179,402.316
	c-204.828,356.283-81.671,812.714,274.678,1017.633c109.21,62.733,227.873,94.389,345.788,98.271
	c-121.975-2.461-245.03-34.486-358.065-99.471C230.878,1212.587,106.848,752.872,313.123,394.176
	C519.378,35.361,979.02-88.742,1337.715,117.531c113.035,64.984,202.561,155.231,266.037,259.445
	C1541.047,276.959,1454.025,190.369,1344.857,127.664z M960.333,1318.712c-228.892-131.591-308.035-424.94-176.419-653.875
	c131.613-228.931,424.945-308.145,653.837-176.555c28.828,16.518,55.287,35.766,79.199,57.075
	c-22.498-19.415-46.924-37.155-73.637-52.512c-228.33-131.269-520.905-52.301-652.223,176.117
	C659.77,897.386,738.744,1189.958,967.1,1321.182c26.668,15.332,54.309,27.583,82.324,37.209
	C1019.002,1348.406,989.111,1335.316,960.333,1318.712z M1340.664,112.403C979.037-95.498,515.765,29.531,307.867,391.155
	c-207.876,361.583-82.799,824.916,278.766,1032.723c111.302,64.047,232.115,96.204,352.27,99.948
	c-124.262-2.129-249.609-34.727-364.734-100.913C210.041,1213.627,84.046,747.041,293.421,382.85
	C502.82,18.62,969.385-107.188,1333.488,102.137c115.125,66.187,206.385,158.169,270.779,264.445
	C1540.641,264.614,1451.947,176.38,1340.664,112.403z M970.117,1316.035c-225.512-129.648-303.46-418.556-173.809-644.072
	c129.604-225.537,418.542-303.525,644.01-173.902c15.896,9.14,30.898,19.242,45.234,29.815
	c-12.656-9.038-25.811-17.511-39.57-25.421c-225.088-129.404-513.35-51.597-642.752,173.487
	c-129.385,225.157-51.597,513.35,173.506,642.82c13.77,7.8,27.729,14.975,41.889,21.294
	C1002.209,1333.011,985.973,1325.15,970.117,1316.035z M1336.51,96.88C969.525-114.158,499.29,12.838,288.292,379.902
	c-211.021,367.053-84.181,837.314,282.828,1048.31c112.889,64.843,235.533,97.482,357.406,101.306
	c-126.045-2.298-253.195-35.315-369.992-102.463C188.96,1214.584,61.117,741.078,273.607,371.517
	C486.087,1.836,959.654-125.974,1329.248,86.564c116.797,67.147,209.346,160.44,274.73,268.252
	C1539.381,251.38,1449.441,161.749,1336.51,96.88z M979.719,1313.484c-222.14-127.708-298.941-412.382-171.213-634.451
	C936.169,456.871,1220.779,379.977,1443,507.734c15.494,8.85,30.139,18.691,44.217,29.115c-12.445-8.917-25.299-17.217-38.715-24.93
	c-221.711-127.463-505.84-50.918-633.307,170.9c-127.487,221.754-50.737,505.827,170.999,633.246
	c13.393,7.757,27.117,14.74,41,20.956C1011.1,1330.105,995.252,1322.356,979.719,1313.484z M1332.225,81.283
	C959.791-132.833,482.47-3.996,268.377,368.4C54.187,741.019,183.1,1218.156,555.535,1432.271
	c115.131,66.188,240.239,99.395,364.439,103.019c-128.512-1.957-258.243-35.428-377.303-103.876
	C167.453,1215.699,37.667,734.992,253.335,359.805C469.064-15.343,949.769-145.076,1324.988,70.639
	c119.143,68.496,213.297,163.85,279.764,273.932C1539.154,238.912,1447.375,147.54,1332.225,81.283z M989.139,1310.941
	c-218.847-125.816-294.461-406.227-168.644-625.074c125.79-218.803,406.23-294.568,625.033-168.776
	c15.154,8.654,29.496,18.321,43.307,28.422c-12.178-8.594-24.689-16.696-37.854-24.264
	c-218.42-125.57-498.379-50.04-623.948,168.377c-125.529,218.448-50.016,498.342,168.469,623.891
	c13.139,7.611,26.523,14.398,39.973,20.477C1019.842,1327.166,1004.268,1319.638,989.139,1310.941z M1327.984,65.426
	C949.861-151.96,465.5-21.258,248.142,356.819c-217.336,378.036-86.568,862.382,291.533,1079.807
	c117.223,67.392,244.654,101.194,371.1,104.578c-130.861-1.829-263.023-35.62-384.394-105.396
	C145.654,1216.924,13.885,728.882,232.839,348.08C451.8-32.886,939.86-164.533,1320.588,54.35
	c121.371,69.776,217.098,166.943,284.543,279.181C1538.5,225.913,1445.207,132.817,1327.984,65.426z M998.451,1308.387
	c-215.514-123.899-290.138-400.095-166.203-615.763c123.88-215.58,400.23-290.17,615.783-166.248
	c14.592,8.445,28.371,17.617,41.629,27.287c-11.641-8.229-23.617-16.08-36.182-23.303
	c-215.215-123.729-491.076-49.197-614.78,165.973c-123.818,215.28-49.304,491.069,165.952,614.82
	c12.523,7.2,25.357,13.56,38.326,19.479C1027.857,1324.1,1012.984,1316.743,998.451,1308.387z M1323.605,49.204
	c-383.635-220.553-875.37-87.95-1095.997,295.81C7.002,728.792,139.773,1220.426,523.408,1440.979
	c119.147,68.499,248.777,102.937,377.387,106.312c-133.07-1.848-267.414-36.095-390.793-107.026
	C123.462,1218.042-10.2,722.71,212.053,336.019C434.324-50.553,929.681-184.258,1316.199,37.953
	c123.334,70.906,220.639,169.775,289.127,283.864C1537.652,212.347,1442.734,117.635,1323.605,49.204z M1007.607,1305.919
	C795.296,1183.861,721.806,911.73,843.851,699.242c122.145-212.26,394.321-285.725,606.631-163.667
	c13.928,8.009,27.225,16.732,39.953,26.04c-11.072-7.844-22.535-15.4-34.5-22.279c-212.051-121.91-483.875-48.469-605.784,163.582
	c-121.961,212.139-48.604,483.915,163.493,605.85c11.92,6.853,24.135,12.909,36.484,18.53
	C1035.746,1320.961,1021.537,1313.927,1007.607,1305.919z M1319.146,32.824C929.746-191.045,430.69-56.395,206.796,333.048
	c-223.944,389.533-89.142,888.42,300.282,1112.302c121.175,69.723,252.937,104.704,383.735,108.029
	c-135.289-1.755-271.936-36.646-397.344-108.686C101.056,1219.036-34.668,716.264,190.898,323.909
	C416.487-68.483,919.247-204.188,1311.707,21.439c125.34,72.058,224.229,172.635,293.859,288.688
	C1536.809,198.785,1440.328,102.435,1319.146,32.824z M1589.984,1179.884c-129.27,179.844-377.162,236.393-573.359,123.598
	c-209.147-120.239-281.573-388.289-161.258-597.566c120.288-209.229,388.401-281.562,597.547-161.324
	c196.154,112.77,272.062,355.477,181.619,557.701c-6.02,13.541-12.756,26.838-20.273,39.914
	C1606.717,1155.326,1598.568,1167.818,1589.984,1179.884z M1314.771,16.208c-395.387-227.31-901.85-90.551-1129.088,304.761
	C-41.559,716.28,95.101,1222.72,490.423,1449.994c123.316,70.837,257.393,106.24,390.406,109.471
	c-137.616-1.556-276.645-36.849-404.252-110.211C78.24,1220.248-59.512,709.882,169.447,311.577
	C398.402-86.671,908.812-224.515,1307.172,4.504c127.539,73.379,227.994,175.767,298.57,293.841
	C1536.045,184.983,1437.957,86.971,1314.771,16.208z M1302.605-12.678c151.797,87.269,266.221,214.916,337.781,361.531
	C1569.172,207.269,1457.58,84.094,1310.121-0.625C908.902-231.344,394.905-92.661,164.23,308.578
	c-230.676,401.243-91.87,915.224,309.377,1145.844c147.434,84.761,310.094,119.311,468.304,109.573
	c-162.782,11.947-330.682-22.773-482.479-110.043C55.029,1221.458-84.778,703.433,147.738,299.095
	C380.156-105.178,898.264-245.078,1302.605-12.678z"/>
</svg>
