<?xml version="1.0" encoding="utf-8"?>
<!-- Generator: Adobe Illustrator 16.0.0, SVG Export Plug-In . SVG Version: 6.00 Build 0)  -->
<!DOCTYPE svg PUBLIC "-//W3C//DTD SVG 1.1//EN" "http://www.w3.org/Graphics/SVG/1.1/DTD/svg11.dtd">
<svg version="1.1" id="Layer_1" xmlns="http://www.w3.org/2000/svg" xmlns:xlink="http://www.w3.org/1999/xlink" x="0px" y="0px"
	 width="819.353px" height="660.065px" viewBox="0 0 819.353 660.065" enable-background="new 0 0 819.353 660.065"
	 xml:space="preserve">
<linearGradient id="SVGID_1_" gradientUnits="userSpaceOnUse" x1="1902.0742" y1="5159.1221" x2="1250.0972" y2="4029.8647" gradientTransform="matrix(0.5316 0.847 -0.847 0.5316 3629.6479 -3073.7664)">
	<stop  offset="0" style="stop-color:#263B8C"/>
	<stop  offset="0.5301" style="stop-color:#4E8096"/>
	<stop  offset="1" style="stop-color:#7BC795"/>
</linearGradient>
<path opacity="0.12" fill="url(#SVGID_1_)" d="M26.232,647.112c11.887,306.797,256.383,550.59,556.805,568.106
	c1.068,0.096,2.266-0.021,3.33,0.075c2.511,0.18,5.043-0.023,7.553,0.121c15.504,0.941,31.223,1.154,47.045,0.51
	c15.82-0.612,31.512-2.011,46.826-4.146c1.641-0.2,3.457-0.271,5.163-0.474c0.272-0.046,0.548-0.021,0.751-0.1
	c300.584-38.5,528.093-301.44,516.14-609.948C1197.201,274.874,921.492,19.648,595.11,32.328
	C268.724,44.974,13.59,320.765,26.232,647.112z M1045.402,778.921c-8.986-231.964-205.107-413.354-437.035-404.403
	c-232.033,9.024-413.427,205.04-404.441,436.969c1.684,43.462,9.949,85.089,23.738,124.068
	c-15.129-40.813-24.296-84.432-26.069-130.22c-9.032-233.128,173.284-430.177,406.414-439.174
	c233.192-9.069,430.241,173.248,439.241,406.443c1.805,45.688-4.023,90.021-15.918,131.814
	C1042.064,864.524,1047.085,822.349,1045.402,778.921z M1025.904,907.783c10.359-38.952,15.215-80.062,13.573-122.427
	c-8.854-228.568-202.025-407.299-430.63-398.441c-228.572,8.855-407.37,201.996-398.549,430.602
	c1.675,42.328,9.697,82.938,23.07,120.971c-14.646-39.869-23.537-82.536-25.266-127.127
	c-8.896-229.636,170.723-423.802,400.426-432.666c229.7-8.898,423.797,170.722,432.66,400.39
	C1042.955,823.741,1037.357,866.97,1025.904,907.783z M214.546,817.352c-8.767-226.275,168.148-417.523,394.493-426.293
	c226.279-8.767,417.46,168.187,426.261,394.46c1.665,43.874-3.72,86.374-15.024,126.567c10.143-38.329,14.955-78.784,13.377-120.396
	c-8.758-225.18-199.117-401.275-424.332-392.551c-225.318,8.698-401.381,198.986-392.689,424.235
	c1.646,41.577,9.539,81.505,22.646,118.863C224.966,903.075,216.244,861.188,214.546,817.352z M1051.461,772.41
	c-9.121-235.457-208.162-419.6-443.582-410.497c-235.422,9.121-419.62,208.094-410.495,443.617
	c2.201,56.82,15.666,110.458,37.798,159.334c-23.736-50.496-37.912-106.505-40.203-165.654
	c-9.205-236.687,175.913-436.671,412.57-445.84c236.686-9.17,436.688,175.895,445.824,412.619
	c2.328,59.18-7.541,116.088-27.333,168.303C1044.357,883.849,1053.664,829.262,1051.461,772.41z M220.876,823.179
	c-8.671-222.921,165.718-411.258,388.606-419.894c222.918-8.636,411.322,165.681,419.924,388.602
	c1.703,43.051-3.609,84.757-14.637,124.185c9.965-37.637,14.672-77.262,13.088-118.154
	c-8.63-221.858-196.145-395.353-418.072-386.79c-221.96,8.635-395.455,196.115-386.86,417.976
	c1.584,40.891,9.343,80.033,22.153,116.788C231.036,907.47,222.545,866.263,220.876,823.179z M1057.62,765.825
	c-9.261-239.052-211.288-425.928-450.235-416.67c-239.02,9.26-425.878,211.201-416.652,450.254
	c2.24,57.811,16.015,112.362,38.553,162.049c-24.215-51.335-38.664-108.261-40.998-168.504
	c-9.305-240.185,178.474-443.223,418.759-452.549c240.181-9.306,443.241,178.608,452.547,418.793
	c2.334,60.243-7.669,118.115-27.907,171.173C1050.381,879.088,1059.857,823.567,1057.62,765.825z M227.137,828.938
	c-8.506-219.566,163.209-405.123,382.811-413.631c219.598-8.508,405.189,163.172,413.663,382.774
	c1.666,42.121-3.438,82.998-14.117,121.657c9.617-36.834,14.149-75.666,12.601-115.631
	c-8.471-218.641-193.246-389.635-411.85-381.131c-218.711,8.438-389.601,193.211-381.133,411.782
	c1.551,40.004,9.104,78.332,21.543,114.276C236.984,911.423,228.77,871.097,227.137,828.938z M1063.807,759.069
	c-9.362-242.549-214.379-432.238-456.922-422.807c-242.547,9.397-432.239,214.343-422.877,456.893
	c2.287,59.044,16.419,114.848,39.578,165.503c-24.803-52.373-39.779-110.479-42.162-171.989
	c-9.45-243.915,181.232-449.949,425.112-459.415c243.846-9.43,449.929,181.233,459.38,425.148
	c2.383,61.51-8.021,120.563-28.799,174.772C1056.391,874.841,1066.095,818.113,1063.807,759.069z M233.26,834.669
	c-8.383-216.379,160.799-399.164,377.146-407.547c216.344-8.381,399.197,160.798,407.577,377.075
	c1.6,41.306-3.367,81.319-13.804,119.144c9.372-36.068,13.835-74.075,12.353-113.223
	c-8.346-215.386-190.415-383.809-405.834-375.463c-215.424,8.279-383.882,190.35-375.537,405.735
	c1.481,39.146,8.906,76.693,21.041,111.929C242.902,915.38,234.857,875.904,233.26,834.669z M1070.128,752.239
	c-9.54-246.244-217.578-438.665-463.753-429.145c-246.178,9.555-438.702,217.525-429.163,463.738
	c2.363,60.102,16.71,116.999,40.351,168.561c-25.391-53.312-40.717-112.47-43.111-175.176
	C164.863,532.738,358.439,323.54,606.02,313.931c247.579-9.574,456.76,184.021,466.35,431.531
	c2.43,62.709-8.239,122.873-29.461,178.025C1062.555,870.18,1072.461,812.448,1070.128,752.239z M239.305,840.229
	c-8.289-213.056,158.393-393.135,371.584-401.465c213.095-8.186,393.208,158.427,401.498,371.515
	c1.602,40.445-3.256,79.735-13.41,116.898c9.088-35.439,13.51-72.726,12.021-111.116c-8.221-212.201-187.59-378.189-399.857-369.966
	c-212.27,8.294-378.258,187.661-370.004,399.792c1.453,38.428,8.711,75.261,20.578,109.783
	C248.719,919.475,240.838,880.713,239.305,840.229z M1076.514,745.301c-9.68-249.839-220.852-445.208-470.689-435.511
	c-249.84,9.662-445.194,220.815-435.519,470.588c2.372,61.232,16.967,119.185,41.157,171.616
	c-25.975-54.252-41.549-114.46-43.984-178.233c-9.769-251.24,186.738-463.604,438.049-473.358
	c251.279-9.752,463.625,186.737,473.361,438.049c2.437,63.772-8.466,124.976-30.13,181.104
	C1068.816,865.34,1078.885,806.502,1076.514,745.301z M245.314,845.761c-8.097-209.909,156.079-387.356,366.02-395.49
	c209.91-8.062,387.288,156.117,395.451,365.954c1.54,39.728-3.072,78.253-13.015,114.688c8.909-34.748,13.223-71.274,11.763-108.946
	c-8.102-209.119-184.869-372.603-393.952-364.502c-209.189,8.104-372.677,184.77-364.539,393.888
	c1.456,37.605,8.513,73.688,20.155,107.674C254.429,923.44,246.853,885.453,245.314,845.761z M1083.066,738.29
	c-9.823-253.57-224.129-451.923-477.732-442.08c-253.609,9.843-451.926,224.146-442.103,477.716
	c2.415,62.333,17.358,121.298,41.961,174.677c-26.427-55.229-42.414-116.485-44.933-181.488
	c-9.88-255.012,189.623-470.544,444.736-480.445c255.045-9.898,470.663,189.587,480.543,444.599
	c2.518,65.003-8.719,127.313-30.826,184.388C1075.18,860.495,1085.447,800.624,1083.066,738.29z M251.184,851.191
	c-8.012-206.79,153.732-381.568,360.588-389.617c206.791-8.012,381.538,153.765,389.584,360.555
	c1.504,38.836-2.969,76.534-12.598,112.202c8.664-34.018,12.837-69.713,11.41-106.53c-7.98-206.001-182.119-367.151-388.154-359.169
	c-206.107,7.984-367.188,182.122-359.171,388.122c1.427,36.816,8.313,72.083,19.612,105.259
	C260.064,927.232,252.722,889.995,251.184,851.191z M1089.648,731.108c-9.936-257.342-227.441-458.622-484.846-448.614
	c-257.376,9.971-458.656,227.476-448.688,484.781c2.458,63.428,17.641,123.342,42.759,177.592
	c-27.009-56.098-43.277-118.372-45.837-184.438c-10.029-258.88,192.469-477.668,451.386-487.731
	c258.916-10.013,477.771,192.466,487.8,451.346c2.56,66.064-8.911,129.414-31.46,187.499
	C1081.639,855.479,1092.105,794.536,1089.648,731.108z M256.949,856.595c-7.857-203.709,151.517-375.93,355.225-383.821
	c203.775-7.895,375.957,151.445,383.851,355.188c1.048,27.057-1.083,53.48-5.611,79.138c3.912-23.853,5.462-48.47,4.489-73.573
	c-7.831-203.025-179.443-361.801-382.498-353.898c-203.023,7.865-361.771,179.404-353.937,382.43
	c0.972,25.104,4.487,49.458,10.237,73.038C262.204,909.831,257.998,883.683,256.949,856.595z M1096.332,723.885
	c-10.154-261.208-230.827-465.47-492.07-455.349c-261.248,10.121-465.454,230.879-455.3,492.087
	c2.471,64.663,17.943,125.803,43.647,181.056c-27.527-57.174-44.258-120.663-46.869-188.064
	c-10.18-262.752,195.348-484.882,458.135-495.062c262.783-10.182,484.914,195.381,495.095,458.168
	c2.61,67.365-9.188,132.03-32.244,191.164C1088.112,850.803,1098.804,788.583,1096.332,723.885z M262.643,861.86
	c-7.773-200.66,149.262-370.317,349.956-378.128c200.726-7.808,370.384,149.228,378.16,349.954
	c1.065,26.61-1.05,52.588-5.491,77.834c3.821-23.543,5.391-47.68,4.467-72.409c-7.783-200.007-176.869-356.446-376.877-348.698
	c-200.078,7.752-356.453,176.801-348.736,376.88c0.989,24.621,4.422,48.601,10.02,71.778
	C267.761,914.279,263.71,888.505,262.643,861.86z M1103.146,716.522c-10.305-265.079-234.354-472.383-499.433-462.131
	c-265.151,10.256-472.454,234.34-462.183,499.452c2.582,65.755,18.303,128.02,44.593,184.247
	c-28.113-58.148-45.196-122.759-47.853-191.32c-10.336-266.796,198.287-492.231,465.013-502.547
	c266.826-10.338,492.229,198.266,502.565,465.061c2.656,68.562-9.373,134.335-32.939,194.451
	C1094.738,845.678,1105.665,782.417,1103.146,716.522z M268.332,867.095C260.67,669.346,415.27,502.251,613.02,494.591
	c197.814-7.664,364.841,146.938,372.502,344.684c1.012,26.099-0.953,51.52-5.279,76.213c3.673-22.95,5.225-46.645,4.322-70.823
	C976.93,647.599,810.334,493.465,613.271,501.1c-197.064,7.666-351.201,174.194-343.566,371.26
	c0.937,24.177,4.316,47.681,9.786,70.277C273.238,918.388,269.31,893.16,268.332,867.095z M1109.994,709.124
	c-10.424-269.055-237.752-479.543-506.838-469.117C334.102,250.43,123.705,477.842,134.131,746.962
	c2.6,67.093,18.744,130.608,45.629,187.944c-28.846-59.248-46.319-125.181-49.066-195.183
	c-10.49-270.766,201.26-499.635,472.06-510.126c270.765-10.476,499.618,201.31,510.108,472.074
	c2.676,69.97-9.613,136.985-33.785,198.326C1101.442,840.751,1112.595,776.248,1109.994,709.124z M273.848,872.198
	c-7.513-194.805,144.745-359.408,339.549-366.956c194.803-7.547,359.443,144.815,366.99,339.615
	c1.016,25.309-0.869,50.147-5.015,74.181c3.489-22.361,4.997-45.4,4.088-68.894c-7.523-194.19-171.596-346.055-365.78-338.5
	C419.49,519.169,267.658,683.239,275.181,877.43c0.91,23.493,4.163,46.348,9.442,68.404
	C278.631,922.158,274.865,897.574,273.848,872.198z M1117.039,701.51c-10.546-273.095-241.354-486.638-514.481-476.038
	C329.463,236.034,115.937,466.791,126.48,739.887c3.258,83.153,27.111,160.637,66.15,228.102
	c-41.266-69.198-66.321-149.312-69.656-235.377C112.361,457.737,327.27,225.487,602.18,214.802
	c274.941-10.652,507.211,204.309,517.826,479.183c3.335,86.065-15.479,167.948-51.203,240.091
	C1102.44,863.864,1120.264,784.731,1117.039,701.51z M279.326,877.269c-7.469-191.856,142.654-354.112,334.513-361.514
	c191.856-7.433,354.044,142.692,361.478,334.55c0.989,24.656-0.715,48.834-4.748,72.245c3.373-21.84,4.874-44.193,4.021-67.075
	c-7.411-191.307-169.134-340.934-360.544-333.482c-191.347,7.413-341.007,169.067-333.593,360.445
	c0.916,22.809,4.143,44.979,9.193,66.493C283.814,925.866,280.246,901.928,279.326,877.269z M1124.218,693.821
	C1113.445,416.618,879.187,199.9,602.018,210.639C324.846,221.377,108.091,455.567,118.765,732.81
	c3.276,84.561,27.626,163.328,67.396,231.861c-42.033-70.3-67.552-151.766-70.943-239.304
	C104.408,446.382,322.613,210.61,601.598,199.784c279.017-10.845,514.809,207.391,525.585,486.447
	c3.422,87.468-15.753,170.633-52.183,244.004C1109.346,858.831,1127.462,778.419,1124.218,693.821z M284.699,882.237
	c-7.323-189.013,140.488-348.812,329.543-356.07c189.012-7.389,348.779,140.494,356.104,329.543
	c0.938,24.212-0.716,47.91-4.625,70.972c3.354-21.463,4.802-43.4,3.932-65.87C962.35,672.31,802.977,524.894,614.439,532.162
	c-188.468,7.267-335.956,166.607-328.688,355.146c0.904,22.433,4.084,44.296,9.049,65.367
	C289.123,930.051,285.605,906.521,284.699,882.237z M1131.396,686.069c-10.901-281.35-248.613-501.348-529.958-490.43
	c-281.35,10.899-501.365,248.613-490.465,529.963c3.33,85.96,28.077,166.085,68.575,235.756
	c-42.796-71.503-68.817-154.322-72.264-243.299c-11.003-283.195,210.49-522.544,493.724-533.517
	c283.229-10.973,522.578,210.521,533.515,493.72c3.447,88.977-16.083,173.596-53.188,248.158
	C1116.32,853.826,1134.759,772.028,1131.396,686.069z M290,887.143c-7.215-186.204,138.395-343.554,324.638-350.77
	c186.206-7.214,343.554,138.398,350.802,324.602c0.879,23.565-0.627,46.675-4.391,69.046c3.172-20.842,4.574-42.194,3.729-64.012
	c-7.194-185.692-164.151-330.941-349.911-323.744c-185.763,7.197-331.012,164.154-323.819,349.811
	c0.849,21.888,3.898,43.033,8.668,63.531C294.267,933.558,290.946,910.67,290,887.143z M1138.705,678.171
	c-11.029-285.562-252.333-508.866-537.894-497.804C315.284,191.43,92.009,432.662,103.042,718.26
	c3.421,87.502,28.639,169.085,69.936,239.96c-43.634-72.741-70.257-157.048-73.767-247.633
	C88.04,423.143,312.928,180.183,600.408,169.081c287.545-11.158,530.521,213.658,541.623,501.14
	c3.51,90.586-16.547,176.665-54.457,252.565C1123.298,848.892,1142.126,765.638,1138.705,678.171z M295.159,891.951
	c-7.106-183.434,136.397-338.469,319.866-345.576c183.465-7.108,338.535,136.359,345.643,319.794
	c0.928,23.081-0.629,45.777-4.339,67.736c3.118-20.426,4.536-41.367,3.707-62.774c-7.089-182.985-161.733-326.097-344.788-319.005
	c-183.059,7.092-326.166,161.739-319.043,344.723c0.828,21.372,3.83,42.179,8.516,62.234
	C299.357,937.477,296.019,915.036,295.159,891.951z M1146.142,670.062c-11.229-289.809-256.091-516.421-545.897-505.192
	C310.472,176.095,83.841,421.009,95.102,710.745c3.421,89.22,29.138,172.255,71.344,244.398
	c-44.676-73.966-71.809-159.833-75.383-252.095C79.727,411.257,307.934,164.6,599.797,153.292
	c291.895-11.309,538.433,216.956,549.738,508.749c3.574,92.263-16.863,180.004-55.65,257.206
	C1130.417,844.089,1149.597,759.244,1146.142,670.062z M300.353,896.724C293.351,715.997,434.68,563.309,615.41,556.307
	c180.725-7.037,333.447,134.295,340.447,314.986c0.494,12.741,0.09,25.31-0.838,37.659c0.645-10.793,0.771-21.672,0.345-32.698
	c-6.988-180.387-159.356-321.388-339.739-314.399C435.205,568.88,294.238,721.21,301.193,901.63
	c0.495,10.991,1.43,21.864,2.942,32.539C302.217,921.897,300.846,909.43,300.353,896.724z M1153.748,661.878
	c-11.361-294.123-259.956-524.109-554.111-512.696C305.48,160.578,75.421,409.091,86.815,703.213
	c3.539,90.448,29.648,174.739,72.443,247.924c-45.235-75.078-72.788-162.162-76.414-255.764
	C71.37,399.196,302.969,148.892,599.146,137.435c296.245-11.509,546.55,220.14,557.992,516.354
	c3.627,93.602-17.107,182.588-56.431,260.941C1137.746,838.456,1157.287,752.36,1153.748,661.878z M305.402,901.435
	c-6.896-178.022,132.363-328.471,310.352-335.332c178.02-6.932,328.5,132.257,335.398,310.346
	c0.516,12.396,0.133,24.658-0.803,36.801c0.651-10.625,0.787-21.262,0.371-32.014c-6.884-177.68-156.979-316.714-334.725-309.793
	c-177.713,6.886-316.639,157.082-309.72,334.76c0.382,10.754,1.343,21.418,2.812,31.891
	C307.214,926.06,305.92,913.862,305.402,901.435z M1161.349,653.589c-11.562-298.47-263.861-531.948-562.299-520.386
	C300.443,144.789,67.102,397.064,78.665,695.535c3.574,92.266,30.261,178.217,74.032,252.698
	c-46.348-76.405-74.586-165.176-78.282-260.591c-11.65-300.701,223.472-554.809,524.138-566.475
	c300.663-11.616,554.74,223.524,566.39,524.226c3.699,95.481-17.656,186.174-57.916,266.004
	C1145.003,833.714,1164.89,745.892,1161.349,653.589z M310.383,906.043c-6.795-175.386,130.393-323.559,305.778-330.353
	c175.349-6.794,323.622,130.354,330.416,305.705c0.504,12.122,0.112,24.143-0.731,36.008c0.559-10.348,0.707-20.711,0.298-31.26
	c-6.782-175.042-154.739-311.996-329.779-305.214C441.32,587.746,304.4,735.67,311.219,910.741
	c0.373,10.551,1.323,20.941,2.715,31.108C312.176,930.12,310.853,918.167,310.383,906.043z M1169.121,645.231
	c-11.74-303.03-267.738-539.965-570.73-528.227c-302.959,11.737-539.861,267.769-528.153,570.8
	c3.64,93.941,30.834,181.481,75.577,257.197c-47.291-77.742-76.24-168.062-80.008-265.329
	C53.985,374.557,292.694,116.569,597.881,104.764c305.286-11.862,563.207,226.901,575.029,532.018
	c3.768,97.267-18.072,189.556-59.242,270.759C1152.417,828.523,1172.759,739.173,1169.121,645.231z M315.328,910.582
	c-6.691-172.713,128.381-318.745,301.198-325.473c172.744-6.728,318.814,128.448,325.507,301.193
	c0.42,11.714,0.111,23.219-0.683,34.601c0.542-9.897,0.74-19.852,0.351-29.92c-6.683-172.475-152.537-307.385-324.975-300.704
	C444.181,596.933,309.308,742.75,315.99,915.256c0.389,10.037,1.388,19.945,2.695,29.771
	C316.944,933.708,315.779,922.229,315.328,910.582z M1177.054,636.656C1165.144,329.211,905.3,88.636,597.753,100.55
	C290.203,112.483,49.75,372.389,61.661,679.833c3.699,95.486,31.332,184.554,76.88,261.541
	c-48.098-79.049-77.584-170.823-81.414-269.699c-12.002-309.773,230.3-571.57,540.174-583.61
	c309.811-11.985,571.642,230.315,583.642,540.071c3.83,98.842-18.432,192.688-60.304,275.19
	C1160.093,823.011,1180.787,732.104,1177.054,636.656z M320.166,915.062c-6.592-170.146,126.506-314.009,296.751-320.675
	c170.149-6.521,314.014,126.611,320.604,296.758c0.434,11.162,0.21,22.217-0.566,33.152c0.526-9.419,0.739-18.963,0.368-28.551
	c-6.584-169.939-150.304-302.874-320.241-296.29c-170.01,6.586-302.946,150.239-296.361,320.214
	c0.37,9.553,1.318,18.984,2.572,28.335C321.709,937.193,320.599,926.226,320.166,915.062z M1185.052,627.977
	c-12.09-312.067-275.843-556.197-587.945-544.105C284.935,95.965,40.961,359.747,53.052,671.833
	c3.728,97.131,31.828,187.656,78.215,265.914c-48.972-80.321-78.931-173.689-82.858-274.171
	C36.259,349.073,282.18,83.312,596.613,71.13c314.465-12.183,580.208,233.738,592.394,548.257
	c3.893,100.447-18.787,195.859-61.396,279.76C1167.769,817.501,1188.849,725.07,1185.052,627.977z M609.645,1211.445
	c-153.691-9.654-278.618-134.74-284.71-291.974c-6.493-167.61,124.595-309.337,292.31-315.834
	C784.921,597.141,926.617,728.3,933.111,895.91c6.09,157.198-108.785,291.609-261.307,313.092
	c-10.199,1.459-20.52,2.407-30.999,2.813C630.292,1212.223,619.924,1212.041,609.645,1211.445z M1193.22,619.259
	C1180.945,302.394,913.211,54.682,596.417,66.972C279.623,79.26,31.887,346.928,44.161,663.74
	c3.863,98.806,32.569,190.849,79.831,270.376c-49.949-81.618-80.551-176.539-84.513-278.803
	C27.111,336.085,276.754,66.322,595.947,53.938c319.156-12.364,588.99,237.272,601.357,556.518
	c3.928,102.231-19.24,199.234-62.689,284.439C1175.615,811.949,1197.08,717.958,1193.22,619.259z M1205.736,601.416
	c4.713,121.651-28.166,236.217-88.06,332.55c57.058-94.271,88.351-205.516,83.74-323.668
	C1188.992,288.739,917.34,37.301,595.785,49.759C274.229,62.216,22.846,333.936,35.338,655.474
	C39.915,773.628,79.689,882.19,143.9,971.763C76.698,880.314,35.088,768.603,30.375,646.952
	C17.818,322.862,271.215,49.06,595.273,36.54C919.259,23.988,1193.148,277.398,1205.736,601.416z"/>
</svg>
