<?xml version="1.0" encoding="utf-8"?>
<!-- Generator: Adobe Illustrator 21.0.2, SVG Export Plug-In . SVG Version: 6.00 Build 0)  -->
<svg version="1.1" id="Layer_1" xmlns="http://www.w3.org/2000/svg" xmlns:xlink="http://www.w3.org/1999/xlink" x="0px" y="0px"
	 viewBox="0 0 150 36" style="enable-background:new 0 0 150 36;" xml:space="preserve">
<style type="text/css">
	.st0{fill:#FFFFFF;}
</style>
<g>
	<g>
		<path class="st0" d="M52.5,14.9c-1,0-1.9,0.2-2.7,0.6c-0.8,0.4-1.4,0.9-1.7,1.7v7.9h-3.3V12h3.1v2.8c0.2-0.4,0.5-0.9,0.8-1.2
			s0.7-0.7,1-0.9c0.4-0.3,0.7-0.5,1.1-0.6s0.7-0.2,1.1-0.2c0.2,0,0.3,0,0.4,0s0.2,0,0.3,0L52.5,14.9C52.5,14.9,52.5,14.9,52.5,14.9z
			"/>
		<path class="st0" d="M59.8,25.3c-1,0-2-0.2-2.8-0.5c-0.8-0.4-1.6-0.8-2.2-1.5c-0.6-0.6-1.1-1.3-1.4-2.1c-0.3-0.8-0.5-1.7-0.5-2.6
			c0-0.9,0.2-1.8,0.5-2.6c0.3-0.8,0.8-1.6,1.4-2.2c0.6-0.6,1.3-1.1,2.2-1.5c0.9-0.4,1.8-0.6,2.9-0.6s2,0.2,2.9,0.6
			c0.8,0.4,1.6,0.9,2.1,1.5c0.6,0.6,1,1.3,1.3,2.1c0.3,0.8,0.5,1.7,0.5,2.6c0,0.2,0,0.4,0,0.6c0,0.2,0,0.4-0.1,0.5H56.5
			c0,0.5,0.2,1,0.4,1.4c0.2,0.4,0.5,0.7,0.8,1c0.3,0.3,0.7,0.5,1.1,0.6c0.4,0.1,0.8,0.2,1.3,0.2c0.7,0,1.3-0.2,1.9-0.5
			c0.6-0.3,1-0.8,1.2-1.3l2.9,0.8c-0.5,1-1.3,1.8-2.3,2.5C62.6,25,61.3,25.3,59.8,25.3z M63.2,17.4c-0.1-1-0.4-1.8-1.1-2.4
			c-0.6-0.6-1.4-0.9-2.3-0.9c-0.5,0-0.9,0.1-1.3,0.2c-0.4,0.2-0.7,0.4-1,0.7c-0.3,0.3-0.5,0.6-0.7,1c-0.2,0.4-0.3,0.8-0.3,1.3
			L63.2,17.4L63.2,17.4z"/>
		<path class="st0" d="M73.8,25.2c-0.9,0-1.7-0.2-2.4-0.5c-0.7-0.4-1.3-0.8-1.9-1.4c-0.5-0.6-0.9-1.3-1.2-2.1s-0.4-1.6-0.4-2.5
			c0-1,0.2-1.8,0.4-2.7c0.3-0.8,0.7-1.5,1.3-2.1c0.5-0.6,1.2-1.1,1.9-1.4c0.8-0.4,1.6-0.5,2.5-0.5c1,0,1.9,0.2,2.7,0.7
			c0.8,0.5,1.4,1.1,1.9,1.8V12h2.9v12.5c0,1-0.2,1.8-0.6,2.6c-0.4,0.8-0.9,1.4-1.5,1.9c-0.6,0.5-1.4,0.9-2.3,1.2
			c-0.9,0.3-1.9,0.4-2.9,0.4c-1.4,0-2.6-0.2-3.6-0.7c-1-0.5-1.8-1.1-2.5-2l1.8-1.8c0.5,0.6,1.1,1.1,1.9,1.5c0.8,0.4,1.6,0.5,2.4,0.5
			c0.5,0,1-0.1,1.5-0.2c0.5-0.1,0.9-0.4,1.3-0.7c0.4-0.3,0.7-0.7,0.9-1.1c0.2-0.5,0.3-1,0.3-1.6v-1.6c-0.4,0.8-1,1.3-1.8,1.7
			S74.7,25.2,73.8,25.2z M75,22.5c0.4,0,0.7-0.1,1.1-0.2c0.3-0.1,0.6-0.3,0.9-0.5c0.3-0.2,0.5-0.4,0.8-0.7c0.2-0.3,0.4-0.5,0.5-0.9
			v-3.1c-0.3-0.8-0.8-1.4-1.4-1.9c-0.6-0.5-1.3-0.7-2-0.7c-0.5,0-1,0.1-1.4,0.3c-0.4,0.2-0.8,0.5-1.1,0.9c-0.3,0.4-0.5,0.8-0.7,1.3
			c-0.2,0.5-0.2,1-0.2,1.5c0,0.5,0.1,1,0.3,1.5c0.2,0.5,0.4,0.9,0.8,1.2c0.3,0.4,0.7,0.6,1.1,0.8C74,22.4,74.5,22.5,75,22.5z"/>
		<path class="st0" d="M92.4,14.9c-1,0-1.9,0.2-2.7,0.6c-0.8,0.4-1.4,0.9-1.7,1.7v7.9h-3.3V12h3.1v2.8c0.2-0.4,0.5-0.9,0.8-1.2
			c0.3-0.4,0.7-0.7,1-0.9c0.4-0.3,0.7-0.5,1.1-0.6s0.7-0.2,1.1-0.2c0.2,0,0.3,0,0.4,0s0.2,0,0.3,0L92.4,14.9
			C92.4,14.9,92.4,14.9,92.4,14.9z"/>
		<path class="st0" d="M99.7,25.3c-1,0-2-0.2-2.8-0.5c-0.8-0.4-1.6-0.8-2.2-1.5c-0.6-0.6-1.1-1.3-1.4-2.1c-0.3-0.8-0.5-1.7-0.5-2.6
			c0-0.9,0.2-1.8,0.5-2.6c0.3-0.8,0.8-1.6,1.4-2.2s1.3-1.1,2.2-1.5c0.9-0.4,1.8-0.6,2.9-0.6c1.1,0,2,0.2,2.9,0.6
			c0.8,0.4,1.6,0.9,2.2,1.5c0.6,0.6,1,1.3,1.3,2.1c0.3,0.8,0.5,1.7,0.5,2.6c0,0.2,0,0.4,0,0.6c0,0.2,0,0.4-0.1,0.5H96.3
			c0.1,0.5,0.2,1,0.4,1.4c0.2,0.4,0.5,0.7,0.8,1c0.3,0.3,0.7,0.5,1.1,0.6c0.4,0.1,0.8,0.2,1.3,0.2c0.7,0,1.3-0.2,1.9-0.5
			c0.6-0.3,1-0.8,1.2-1.3l2.9,0.8c-0.5,1-1.3,1.8-2.3,2.5C102.4,25,101.1,25.3,99.7,25.3z M103.1,17.4c-0.1-1-0.4-1.8-1.1-2.4
			c-0.6-0.6-1.4-0.9-2.3-0.9c-0.4,0-0.9,0.1-1.3,0.2s-0.7,0.4-1,0.7c-0.3,0.3-0.5,0.6-0.7,1c-0.2,0.4-0.3,0.8-0.3,1.3L103.1,17.4
			L103.1,17.4z"/>
		<path class="st0" d="M113.5,25.3c-1.1,0-2.2-0.2-3.2-0.5c-1.1-0.4-1.9-0.9-2.7-1.5l1.3-2.1c0.8,0.6,1.6,1,2.3,1.3
			c0.8,0.3,1.5,0.4,2.3,0.4c0.7,0,1.2-0.1,1.6-0.4c0.4-0.3,0.6-0.6,0.6-1.1s-0.2-0.8-0.7-1c-0.4-0.2-1.2-0.5-2.2-0.8
			c-0.9-0.2-1.6-0.5-2.2-0.7s-1.1-0.5-1.4-0.7c-0.4-0.3-0.6-0.6-0.8-1c-0.2-0.4-0.3-0.8-0.3-1.3c0-0.7,0.1-1.3,0.4-1.8
			c0.3-0.5,0.6-1,1.1-1.4s1-0.7,1.6-0.9s1.3-0.3,2-0.3c1,0,1.9,0.1,2.8,0.4s1.6,0.7,2.4,1.4l-1.3,2c-0.7-0.5-1.3-0.9-1.9-1.1
			c-0.6-0.2-1.2-0.4-1.9-0.4c-0.6,0-1,0.1-1.4,0.4c-0.4,0.2-0.6,0.6-0.6,1.1c0,0.2,0,0.4,0.1,0.6c0.1,0.1,0.2,0.3,0.4,0.4
			c0.2,0.1,0.5,0.2,0.8,0.3c0.3,0.1,0.7,0.2,1.2,0.3c0.9,0.2,1.7,0.5,2.3,0.7c0.6,0.2,1.2,0.5,1.6,0.8c0.4,0.3,0.7,0.6,0.9,1
			c0.2,0.4,0.3,0.9,0.3,1.4c0,1.3-0.5,2.3-1.4,3C116.4,25,115.2,25.3,113.5,25.3z"/>
		<path class="st0" d="M124.6,25.3c-0.6,0-1.2-0.1-1.8-0.3c-0.5-0.2-1-0.5-1.4-0.9s-0.7-0.8-0.9-1.3c-0.2-0.5-0.3-1-0.3-1.6
			c0-0.6,0.1-1.2,0.4-1.7c0.3-0.5,0.7-1,1.1-1.3c0.5-0.4,1.1-0.7,1.8-0.9c0.7-0.2,1.4-0.3,2.3-0.3c0.6,0,1.2,0,1.7,0.1
			c0.6,0.1,1.1,0.2,1.5,0.4v-0.8c0-0.9-0.2-1.5-0.7-2c-0.5-0.5-1.2-0.7-2.2-0.7c-0.7,0-1.4,0.1-2,0.4c-0.7,0.3-1.4,0.6-2.1,1.1
			l-1-2.1c1.7-1.1,3.5-1.7,5.5-1.7c1.9,0,3.3,0.5,4.4,1.4s1.6,2.3,1.6,4v4.1c0,0.4,0.1,0.6,0.2,0.8c0.1,0.1,0.3,0.2,0.6,0.3v2.9
			c-0.6,0.1-1.1,0.2-1.5,0.2c-0.6,0-1.1-0.1-1.5-0.4c-0.3-0.3-0.6-0.7-0.6-1.1l-0.1-0.7c-0.6,0.8-1.3,1.4-2.1,1.8
			C126.4,25.1,125.5,25.3,124.6,25.3z M125.5,22.9c0.6,0,1.1-0.1,1.6-0.3c0.5-0.2,0.9-0.5,1.2-0.8c0.4-0.3,0.6-0.6,0.6-1v-1.5
			c-0.4-0.1-0.8-0.3-1.3-0.4c-0.5-0.1-0.9-0.1-1.3-0.1c-0.9,0-1.6,0.2-2.1,0.6c-0.6,0.4-0.8,0.9-0.8,1.5c0,0.6,0.2,1,0.7,1.4
			C124.4,22.7,124.9,22.9,125.5,22.9z"/>
		<path class="st0" d="M143.1,14.9c-1,0-1.9,0.2-2.7,0.6c-0.8,0.4-1.4,0.9-1.7,1.7v7.9h-3.4V12h3.1v2.8c0.2-0.4,0.5-0.9,0.8-1.2
			c0.3-0.4,0.7-0.7,1-0.9c0.4-0.3,0.7-0.5,1.1-0.6s0.7-0.2,1.1-0.2c0.2,0,0.3,0,0.4,0c0.1,0,0.2,0,0.3,0L143.1,14.9
			C143.1,14.9,143.1,14.9,143.1,14.9z"/>
	</g>
</g>
<g>
	<line class="st0" x1="5.6" y1="18.5" x2="33.4" y2="18.5"/>
	<polyline class="st0" points="13.1,30.3 4.4,18.1 13.1,6.8 	"/>
</g>
</svg>
