<?xml version="1.0" encoding="utf-8"?>
<!-- Generator: Adobe Illustrator 16.0.0, SVG Export Plug-In . SVG Version: 6.00 Build 0)  -->
<!DOCTYPE svg PUBLIC "-//W3C//DTD SVG 1.1//EN" "http://www.w3.org/Graphics/SVG/1.1/DTD/svg11.dtd">
<svg version="1.1" id="Layer_1" xmlns="http://www.w3.org/2000/svg" xmlns:xlink="http://www.w3.org/1999/xlink" x="0px" y="0px"
	 width="191px" height="66.75px" viewBox="0 0 191 66.75" enable-background="new 0 0 191 66.75" xml:space="preserve">
<g>
	<g>
		<path fill="#333D46" d="M2.406,35.784c0-1.417,0.233-2.758,0.702-4.021c0.466-1.262,1.143-2.371,2.028-3.325
			c0.886-0.953,1.956-1.715,3.208-2.281c1.255-0.568,2.668-0.852,4.242-0.852c2.115,0,3.917,0.478,5.403,1.431
			c1.488,0.955,2.603,2.204,3.339,3.751l-4.832,1.547c-0.417-0.747-0.971-1.32-1.66-1.72s-1.451-0.6-2.286-0.6
			c-0.713,0-1.377,0.148-1.992,0.444c-0.615,0.297-1.15,0.709-1.604,1.238c-0.456,0.528-0.812,1.166-1.07,1.913
			c-0.258,0.75-0.387,1.573-0.387,2.475c0,0.903,0.134,1.728,0.404,2.476c0.271,0.747,0.634,1.393,1.089,1.934
			c0.455,0.541,0.99,0.961,1.604,1.257c0.615,0.297,1.267,0.444,1.956,0.444c0.886,0,1.702-0.23,2.453-0.694
			c0.749-0.466,1.271-1.031,1.567-1.703l4.832,1.547c-0.664,1.547-1.757,2.812-3.284,3.791c-1.523,0.979-3.354,1.47-5.495,1.47
			c-1.573,0-2.988-0.285-4.242-0.852c-1.254-0.567-2.324-1.334-3.21-2.301c-0.884-0.969-1.567-2.088-2.045-3.364
			C2.646,38.512,2.406,37.177,2.406,35.784z"/>
		<path fill="#333D46" d="M33.206,46.305c-1.548,0-2.951-0.277-4.205-0.834c-1.254-0.554-2.324-1.308-3.21-2.261
			c-0.884-0.954-1.567-2.063-2.045-3.326c-0.48-1.263-0.721-2.59-0.721-3.981c0-1.445,0.233-2.805,0.702-4.081
			c0.466-1.276,1.143-2.398,2.028-3.364c0.886-0.967,1.96-1.734,3.227-2.301c1.267-0.568,2.688-0.852,4.261-0.852
			c1.573,0,2.98,0.283,4.223,0.852c1.242,0.566,2.299,1.328,3.172,2.281c0.872,0.954,1.536,2.063,1.992,3.325
			c0.455,1.264,0.683,2.579,0.683,3.944c0,0.336-0.006,0.658-0.019,0.967c-0.012,0.311-0.044,0.567-0.093,0.773H28.263
			c0.074,0.8,0.258,1.508,0.554,2.128c0.294,0.618,0.675,1.147,1.144,1.584c0.466,0.438,0.994,0.774,1.586,1.006
			c0.588,0.233,1.204,0.349,1.844,0.349c0.982,0,1.91-0.25,2.785-0.755c0.872-0.502,1.468-1.166,1.788-1.991l4.242,1.238
			c-0.712,1.546-1.85,2.816-3.411,3.809C37.232,45.807,35.371,46.305,33.206,46.305z M38.222,34.084
			c-0.123-1.521-0.658-2.74-1.604-3.655c-0.947-0.915-2.097-1.372-3.449-1.372c-0.664,0-1.285,0.122-1.863,0.366
			c-0.578,0.245-1.087,0.587-1.531,1.026c-0.442,0.438-0.806,0.966-1.089,1.584c-0.282,0.618-0.447,1.303-0.498,2.051H38.222z"/>
		<path fill="#333D46" d="M57.846,30.139c-1.501,0.027-2.84,0.329-4.022,0.909c-1.18,0.579-2.026,1.449-2.544,2.609v12.259h-4.942
			V25.652h4.538v4.332c0.343-0.697,0.749-1.321,1.216-1.875c0.468-0.555,0.971-1.039,1.512-1.451
			c0.542-0.412,1.089-0.729,1.641-0.947c0.554-0.219,1.089-0.329,1.605-0.329c0.269,0,0.474,0,0.609,0
			c0.136,0,0.265,0.015,0.387,0.04V30.139z"/>
		<path fill="#333D46" d="M72.121,30.139c-1.501,0.027-2.84,0.329-4.021,0.909c-1.181,0.579-2.027,1.449-2.545,2.609v12.259h-4.942
			V25.652h4.538v4.332c0.343-0.697,0.749-1.321,1.217-1.875c0.467-0.555,0.971-1.039,1.512-1.451
			c0.541-0.412,1.089-0.729,1.642-0.947c0.554-0.219,1.089-0.329,1.604-0.329c0.27,0,0.474,0,0.609,0
			c0.135,0,0.264,0.015,0.387,0.04L72.121,30.139L72.121,30.139z"/>
		<path fill="#333D46" d="M79.903,46.305c-0.935,0-1.806-0.162-2.618-0.484c-0.812-0.321-1.514-0.773-2.103-1.354
			c-0.591-0.578-1.051-1.256-1.384-2.029c-0.331-0.772-0.498-1.625-0.498-2.553c0-0.953,0.203-1.837,0.609-2.648
			c0.404-0.812,0.971-1.502,1.696-2.068s1.592-1.012,2.601-1.334c1.008-0.322,2.115-0.483,3.32-0.483
			c0.859,0,1.702,0.077,2.527,0.231c0.822,0.156,1.555,0.374,2.193,0.658v-1.16c0-1.341-0.362-2.371-1.089-3.094
			c-0.724-0.722-1.8-1.082-3.226-1.082c-1.034,0-2.043,0.191-3.026,0.579c-0.983,0.387-1.99,0.955-3.023,1.702l-1.513-3.287
			c2.483-1.728,5.164-2.592,8.041-2.592c2.778,0,4.938,0.717,6.473,2.146c1.538,1.431,2.307,3.5,2.307,6.206v6.304
			c0,0.541,0.092,0.929,0.277,1.161c0.183,0.23,0.484,0.359,0.903,0.386v4.408c-0.837,0.181-1.562,0.271-2.178,0.271
			c-0.935,0-1.652-0.219-2.157-0.656c-0.505-0.438-0.816-1.02-0.939-1.74l-0.111-1.12c-0.861,1.185-1.906,2.088-3.137,2.706
			C82.621,45.993,81.306,46.305,79.903,46.305z M81.306,42.514c0.836,0,1.629-0.154,2.379-0.465
			c0.751-0.309,1.333-0.721,1.751-1.236c0.542-0.438,0.812-0.929,0.812-1.471v-2.318c-0.59-0.232-1.23-0.42-1.918-0.562
			s-1.352-0.212-1.991-0.212c-1.28,0-2.325,0.304-3.136,0.909c-0.812,0.605-1.218,1.371-1.218,2.301
			c0,0.876,0.319,1.604,0.958,2.184C79.584,42.225,80.371,42.514,81.306,42.514z"/>
		<path fill="#333D46" d="M107.311,30.139c-1.502,0.027-2.843,0.329-4.021,0.909c-1.18,0.579-2.025,1.449-2.546,2.609v12.259h-4.94
			V25.652h4.537v4.332c0.344-0.697,0.749-1.321,1.215-1.875c0.471-0.555,0.973-1.039,1.514-1.451
			c0.543-0.412,1.09-0.729,1.641-0.947c0.555-0.219,1.089-0.329,1.605-0.329c0.271,0,0.475,0,0.609,0s0.266,0.015,0.387,0.04V30.139
			L107.311,30.139z"/>
	</g>
</g>
<g>
	<circle fill="#75CFE8" cx="155.572" cy="33.352" r="31.351"/>
	<path fill="#FFFFFF" d="M159.091,33.352l13.916-13.919c0.854-0.853,0.854-2.236,0-3.089c-0.85-0.854-2.233-0.854-3.088,0
		L156,30.262l-13.916-13.918c-0.854-0.853-2.236-0.854-3.09,0c-0.854,0.853-0.854,2.236,0,3.089l13.916,13.919l-13.916,13.916
		c-0.854,0.854-0.854,2.238,0,3.092c0.425,0.428,0.984,0.642,1.545,0.642c0.557,0,1.117-0.214,1.545-0.642L156,36.441l13.919,13.916
		c0.425,0.429,0.985,0.643,1.546,0.643c0.557,0,1.117-0.214,1.542-0.643c0.854-0.853,0.854-2.236,0-3.09L159.091,33.352z"/>
</g>
</svg>
