<?xml version="1.0" encoding="utf-8"?>
<!-- Generator: Adobe Illustrator 16.0.0, SVG Export Plug-In . SVG Version: 6.00 Build 0)  -->
<!DOCTYPE svg PUBLIC "-//W3C//DTD SVG 1.1//EN" "http://www.w3.org/Graphics/SVG/1.1/DTD/svg11.dtd">
<svg version="1.1" id="Layer_1" xmlns="http://www.w3.org/2000/svg" xmlns:xlink="http://www.w3.org/1999/xlink" x="0px" y="0px"
	 width="111.318px" height="111.556px" viewBox="0 0 111.318 111.556" enable-background="new 0 0 111.318 111.556"
	 xml:space="preserve">
<circle opacity="0.76" fill="#333E47" cx="57.458" cy="57.696" r="53.86"/>
<circle fill="#43B3D8" cx="54.401" cy="53.86" r="53.861"/>
<g>
	<path fill="#FFFFFF" d="M31.978,69.635l3.061-7.62c0.094-0.229,0.267-0.346,0.519-0.349h0.349c0.255,0,0.428,0.116,0.519,0.349
		l3.06,7.62c0.012,0.022,0.017,0.04,0.017,0.051c0,0.042-0.038,0.062-0.113,0.062h-0.828c-0.075,0-0.134-0.038-0.175-0.113
		l-0.806-1.967h-3.697l-0.806,1.967c-0.038,0.075-0.096,0.113-0.175,0.113h-0.828c-0.072,0-0.107-0.021-0.107-0.062
		C31.963,69.674,31.966,69.657,31.978,69.635z M34.176,66.862h3.117l-1.562-3.866L34.176,66.862z"/>
	<path fill="#FFFFFF" d="M41.33,68.547c-0.554-0.529-0.831-1.253-0.831-2.169c0-0.917,0.278-1.642,0.837-2.176
		c0.558-0.533,1.278-0.8,2.161-0.8c0.492,0,0.966,0.058,1.42,0.172c0.455,0.115,0.781,0.23,0.98,0.347l0.315,0.169v4.965
		c0,1.849-0.961,2.773-2.885,2.773c-0.74,0-1.334-0.156-1.781-0.468c-0.447-0.312-0.701-0.734-0.761-1.268
		c-0.007-0.075,0.032-0.113,0.119-0.113h0.727c0.067,0,0.113,0.038,0.135,0.113c0.094,0.278,0.273,0.501,0.539,0.671
		c0.264,0.169,0.605,0.253,1.022,0.253c0.639,0,1.105-0.156,1.401-0.468c0.294-0.312,0.442-0.81,0.442-1.494v-0.056
		c-0.5,0.229-1.076,0.344-1.73,0.344C42.587,69.342,41.884,69.077,41.33,68.547z M42.107,64.779
		c-0.381,0.382-0.571,0.916-0.571,1.604s0.188,1.219,0.566,1.593c0.377,0.374,0.858,0.56,1.443,0.56
		c0.583,0,1.126-0.114,1.625-0.344v-3.641c0-0.007-0.065-0.038-0.194-0.09c-0.13-0.052-0.327-0.107-0.589-0.167
		c-0.263-0.058-0.521-0.087-0.772-0.087C42.991,64.208,42.488,64.398,42.107,64.779z"/>
	<path fill="#FFFFFF" d="M50.816,69.934c-0.838,0-1.532-0.285-2.082-0.854c-0.551-0.57-0.826-1.379-0.826-2.43
		c0-1.05,0.275-1.854,0.826-2.412c0.55-0.558,1.269-0.837,2.158-0.837s1.614,0.285,2.175,0.854c0.562,0.568,0.843,1.323,0.843,2.262
		v0.288c0,0.154-0.077,0.231-0.231,0.231h-4.723c0.064,0.699,0.271,1.221,0.62,1.567c0.349,0.346,0.792,0.519,1.33,0.519
		c0.849,0,1.465-0.346,1.848-1.037c0.045-0.075,0.092-0.113,0.141-0.113h0.727c0.098,0,0.135,0.045,0.113,0.135
		c-0.154,0.556-0.47,1-0.947,1.33C52.312,69.768,51.654,69.934,50.816,69.934z M48.957,66.225h3.917
		c-0.034-0.605-0.241-1.092-0.62-1.462c-0.379-0.37-0.832-0.556-1.355-0.556c-0.525,0-0.963,0.171-1.316,0.513
		C49.229,65.062,49.021,65.564,48.957,66.225z"/>
	<path fill="#FFFFFF" d="M55.725,69.635v-5.946c0-0.079,0.038-0.118,0.113-0.118h0.637c0.075,0,0.116,0.04,0.124,0.118l0.107,0.631
		c0.045-0.064,0.143-0.161,0.293-0.29c0.15-0.13,0.297-0.234,0.44-0.313c0.368-0.21,0.796-0.316,1.285-0.316
		c0.778,0,1.415,0.241,1.911,0.722s0.744,1.144,0.744,1.989v3.522c0,0.075-0.038,0.113-0.113,0.113h-0.812
		c-0.075,0-0.113-0.038-0.113-0.113v-3.522c0-0.608-0.158-1.078-0.474-1.409c-0.315-0.331-0.716-0.496-1.2-0.496
		c-0.222,0-0.441,0.042-0.657,0.127c-0.216,0.084-0.395,0.184-0.538,0.298c-0.143,0.115-0.269,0.232-0.377,0.353
		c-0.222,0.237-0.333,0.381-0.333,0.434v4.215c0,0.075-0.038,0.113-0.113,0.113h-0.812C55.762,69.748,55.725,69.71,55.725,69.635z"
		/>
	<path fill="#FFFFFF" d="M63.876,69.085c-0.532-0.557-0.797-1.364-0.797-2.417c0-1.055,0.273-1.862,0.82-2.423
		c0.547-0.562,1.254-0.843,2.122-0.843c0.293,0,0.584,0.028,0.874,0.085c0.29,0.056,0.501,0.112,0.637,0.169l0.22,0.09v-1.961
		c0-0.075,0.04-0.115,0.119-0.118h0.806c0.075,0,0.115,0.039,0.119,0.118v7.851c0,0.075-0.04,0.113-0.119,0.113h-0.631
		c-0.075,0-0.119-0.038-0.13-0.113l-0.102-0.637c-0.045,0.064-0.142,0.161-0.29,0.29c-0.149,0.13-0.291,0.234-0.426,0.313
		c-0.35,0.214-0.746,0.321-1.189,0.321C65.085,69.922,64.407,69.644,63.876,69.085z M66.114,64.208
		c-0.592,0-1.073,0.204-1.443,0.612c-0.371,0.408-0.555,1.017-0.555,1.829s0.169,1.425,0.507,1.84
		c0.338,0.416,0.785,0.623,1.341,0.623c0.526,0,1.016-0.259,1.471-0.778c0.21-0.241,0.315-0.385,0.315-0.434v-3.348
		C67.251,64.322,66.705,64.208,66.114,64.208z"/>
	<path fill="#FFFFFF" d="M71.252,69.396c-0.434-0.351-0.651-0.83-0.651-1.438c0-0.606,0.223-1.085,0.668-1.437
		c0.444-0.352,1.067-0.527,1.868-0.527h1.967v-0.057c0-1.153-0.579-1.73-1.736-1.73c-0.361,0-0.667,0.086-0.922,0.259
		c-0.253,0.173-0.427,0.395-0.521,0.665c-0.022,0.075-0.068,0.113-0.135,0.113h-0.727c-0.086,0-0.126-0.038-0.118-0.113
		c0.06-0.522,0.308-0.941,0.744-1.257c0.436-0.315,0.996-0.474,1.68-0.474c0.894,0,1.58,0.221,2.057,0.663
		c0.477,0.441,0.715,1.066,0.715,1.874v3.697c0,0.075-0.039,0.113-0.118,0.113h-0.631c-0.075,0-0.118-0.038-0.129-0.113
		l-0.102-0.637c-0.045,0.071-0.145,0.17-0.299,0.296c-0.154,0.126-0.308,0.228-0.462,0.307c-0.406,0.214-0.864,0.321-1.375,0.321
		C72.277,69.922,71.687,69.747,71.252,69.396z M71.639,67.961c0,0.376,0.125,0.661,0.375,0.856c0.25,0.196,0.606,0.293,1.068,0.293
		c0.248,0,0.488-0.042,0.718-0.127c0.231-0.084,0.421-0.183,0.57-0.298c0.148-0.115,0.281-0.232,0.397-0.353
		c0.117-0.12,0.202-0.221,0.257-0.301c0.054-0.081,0.082-0.125,0.082-0.133v-1.093h-1.967
		C72.139,66.806,71.639,67.191,71.639,67.961z"/>
	<path fill="#FFFFFF" d="M30.798,80.03v-3.517c0-0.075,0.038-0.115,0.113-0.118h0.812c0.075,0,0.113,0.039,0.113,0.118v3.517
		c0,0.609,0.158,1.079,0.473,1.409c0.316,0.331,0.716,0.496,1.201,0.496c0.222,0,0.44-0.042,0.656-0.127
		c0.216-0.084,0.396-0.184,0.539-0.298c0.143-0.115,0.271-0.232,0.383-0.353c0.218-0.237,0.327-0.381,0.327-0.434v-4.21
		c0-0.075,0.038-0.115,0.113-0.118h0.812c0.075,0,0.113,0.039,0.113,0.118v5.946c0,0.075-0.038,0.113-0.113,0.113h-0.637
		c-0.075,0-0.117-0.038-0.124-0.113l-0.107-0.637c-0.049,0.075-0.148,0.174-0.296,0.298c-0.149,0.124-0.294,0.226-0.437,0.305
		c-0.375,0.214-0.804,0.321-1.285,0.321c-0.778,0-1.415-0.241-1.911-0.725C31.046,81.54,30.798,80.876,30.798,80.03z"/>
	<path fill="#FFFFFF" d="M38.727,82.459v-5.946c0-0.079,0.038-0.118,0.113-0.118h0.637c0.075,0,0.116,0.039,0.124,0.118l0.107,0.631
		c0.045-0.064,0.143-0.161,0.293-0.29c0.15-0.13,0.297-0.234,0.439-0.313c0.369-0.21,0.797-0.316,1.285-0.316
		c0.778,0,1.415,0.241,1.911,0.722s0.744,1.144,0.744,1.989v3.522c0,0.075-0.038,0.113-0.112,0.113h-0.812
		c-0.075,0-0.113-0.038-0.113-0.113v-3.522c0-0.609-0.158-1.078-0.474-1.409c-0.315-0.331-0.716-0.496-1.2-0.496
		c-0.222,0-0.441,0.042-0.657,0.127c-0.216,0.084-0.395,0.184-0.538,0.298c-0.143,0.115-0.269,0.232-0.378,0.353
		c-0.222,0.236-0.333,0.381-0.333,0.434v4.216c0,0.075-0.038,0.113-0.112,0.113H38.84C38.765,82.572,38.727,82.535,38.727,82.459z"
		/>
	<path fill="#FFFFFF" d="M46.731,82.22c-0.433-0.351-0.65-0.831-0.65-1.438c0-0.606,0.222-1.085,0.668-1.437
		c0.445-0.351,1.068-0.527,1.868-0.527h1.967v-0.057c0-1.153-0.579-1.73-1.736-1.73c-0.361,0-0.667,0.086-0.922,0.259
		c-0.253,0.173-0.427,0.395-0.521,0.665c-0.022,0.075-0.067,0.113-0.135,0.113h-0.727c-0.086,0-0.126-0.038-0.118-0.113
		c0.06-0.522,0.308-0.941,0.744-1.257c0.436-0.316,0.996-0.474,1.68-0.474c0.894,0,1.58,0.221,2.057,0.663
		c0.477,0.441,0.716,1.066,0.716,1.874v3.697c0,0.075-0.04,0.113-0.119,0.113h-0.631c-0.075,0-0.118-0.038-0.129-0.113l-0.102-0.637
		c-0.045,0.071-0.145,0.17-0.299,0.296c-0.154,0.126-0.308,0.228-0.462,0.307c-0.406,0.214-0.864,0.321-1.375,0.321
		C47.756,82.747,47.166,82.571,46.731,82.22z M47.117,80.786c0,0.375,0.125,0.661,0.375,0.856c0.249,0.195,0.605,0.293,1.067,0.293
		c0.248,0,0.488-0.042,0.718-0.127c0.232-0.084,0.421-0.184,0.57-0.298c0.148-0.115,0.281-0.232,0.397-0.353
		c0.117-0.121,0.202-0.221,0.257-0.301c0.054-0.081,0.082-0.125,0.082-0.133V79.63h-1.967C47.617,79.63,47.117,80.015,47.117,80.786
		z"/>
	<path fill="#FFFFFF" d="M59.653,82.747c-0.844,0-1.54-0.283-2.088-0.849c-0.549-0.565-0.823-1.373-0.823-2.423
		c0-1.05,0.275-1.854,0.826-2.412c0.55-0.558,1.241-0.837,2.071-0.837c0.831,0,1.48,0.171,1.95,0.513
		c0.47,0.342,0.778,0.817,0.924,1.426c0.022,0.094-0.017,0.139-0.118,0.135h-0.727c-0.053,0-0.098-0.038-0.135-0.113
		c-0.354-0.77-0.951-1.155-1.792-1.155c-0.586,0-1.06,0.204-1.42,0.612c-0.361,0.408-0.541,1.017-0.541,1.829
		c0,0.812,0.181,1.425,0.544,1.839c0.362,0.416,0.807,0.623,1.333,0.623s0.934-0.096,1.223-0.287
		c0.289-0.192,0.526-0.479,0.71-0.862c0.038-0.075,0.084-0.115,0.141-0.119h0.727c0.083,0,0.122,0.03,0.118,0.09
		c0,0.015-0.002,0.032-0.006,0.051c-0.146,0.616-0.458,1.093-0.936,1.432C61.157,82.578,60.496,82.747,59.653,82.747z"/>
	<path fill="#FFFFFF" d="M64.276,74.722c0-0.154,0.077-0.231,0.231-0.231h0.75c0.086,0,0.146,0.018,0.18,0.054
		c0.034,0.036,0.051,0.094,0.051,0.177v0.75c0,0.086-0.017,0.146-0.051,0.18s-0.094,0.051-0.18,0.051h-0.75
		c-0.083,0-0.143-0.017-0.177-0.051c-0.037-0.034-0.054-0.094-0.054-0.18V74.722z M64.361,82.459v-5.946
		c0-0.079,0.038-0.118,0.113-0.118h0.806c0.079,0,0.118,0.039,0.118,0.118v5.946c0,0.075-0.04,0.113-0.118,0.113h-0.806
		C64.398,82.572,64.361,82.535,64.361,82.459z"/>
	<path fill="#FFFFFF" d="M67.651,80.205v-5.596c0-0.079,0.037-0.119,0.112-0.119h0.812c0.075,0,0.113,0.04,0.113,0.119v1.787h2.356
		c0.075,0,0.113,0.039,0.113,0.118v0.575c0,0.079-0.038,0.119-0.113,0.119h-2.356v2.998c0,0.571,0.132,1.002,0.398,1.294
		c0.264,0.291,0.632,0.436,1.101,0.436c0.414,0,0.784-0.056,1.11-0.169l0.164-0.062c0.075-0.03,0.113,0.002,0.113,0.096v0.564
		c0,0.063-0.038,0.114-0.113,0.152c-0.387,0.154-0.849,0.231-1.386,0.231c-0.74,0-1.33-0.233-1.767-0.699
		C67.87,81.582,67.651,80.968,67.651,80.205z"/>
	<path fill="#FFFFFF" d="M73.232,82.22c-0.433-0.351-0.65-0.831-0.65-1.438c0-0.606,0.222-1.085,0.668-1.437
		c0.445-0.351,1.068-0.527,1.868-0.527h1.967v-0.057c0-1.153-0.579-1.73-1.736-1.73c-0.361,0-0.667,0.086-0.922,0.259
		c-0.253,0.173-0.427,0.395-0.521,0.665c-0.022,0.075-0.068,0.113-0.135,0.113h-0.727c-0.086,0-0.126-0.038-0.118-0.113
		c0.06-0.522,0.308-0.941,0.744-1.257c0.436-0.316,0.996-0.474,1.68-0.474c0.894,0,1.58,0.221,2.057,0.663
		c0.477,0.441,0.716,1.066,0.716,1.874v3.697c0,0.075-0.04,0.113-0.119,0.113h-0.631c-0.075,0-0.118-0.038-0.129-0.113l-0.102-0.637
		c-0.045,0.071-0.145,0.17-0.299,0.296c-0.154,0.126-0.308,0.228-0.462,0.307c-0.406,0.214-0.864,0.321-1.375,0.321
		C74.257,82.747,73.667,82.571,73.232,82.22z M73.619,80.786c0,0.375,0.125,0.661,0.375,0.856c0.249,0.195,0.605,0.293,1.067,0.293
		c0.248,0,0.488-0.042,0.718-0.127c0.232-0.084,0.421-0.184,0.57-0.298c0.148-0.115,0.281-0.232,0.397-0.353
		c0.117-0.121,0.202-0.221,0.257-0.301c0.054-0.081,0.082-0.125,0.082-0.133V79.63h-1.967C74.119,79.63,73.619,80.015,73.619,80.786
		z"/>
</g>
<path fill="#FFFFFF" d="M68.486,34.252c-0.002-0.022-0.002-0.044-0.006-0.066c-0.019-0.107-0.052-0.209-0.098-0.306
	c-0.003-0.007-0.003-0.015-0.007-0.022c-0.006-0.014-0.018-0.024-0.025-0.038c-0.042-0.08-0.091-0.153-0.148-0.221
	c-0.017-0.019-0.03-0.04-0.048-0.058c-0.071-0.076-0.15-0.144-0.238-0.2c-0.017-0.011-0.035-0.019-0.053-0.029
	c-0.075-0.044-0.155-0.079-0.239-0.108c-0.027-0.009-0.053-0.017-0.08-0.024c-0.104-0.027-0.21-0.045-0.322-0.045H41.58
	c-0.114,0-0.223,0.019-0.328,0.047c-0.028,0.007-0.053,0.016-0.08,0.024c-0.091,0.031-0.177,0.069-0.257,0.118
	c-0.013,0.008-0.026,0.013-0.039,0.021c-0.089,0.058-0.168,0.129-0.239,0.207c-0.019,0.021-0.036,0.043-0.053,0.065
	c-0.059,0.073-0.11,0.151-0.152,0.236c-0.005,0.013-0.016,0.021-0.021,0.034c-0.001,0.003-0.001,0.008-0.003,0.012
	c-0.042,0.098-0.071,0.202-0.089,0.312c-0.005,0.029-0.006,0.057-0.009,0.085c-0.004,0.04-0.012,0.078-0.012,0.119v18.163
	c0,0.708,0.574,1.282,1.282,1.282h25.642c0.708,0,1.282-0.574,1.282-1.282V34.416C68.503,34.359,68.494,34.306,68.486,34.252z
	 M64.568,35.697l-8.02,10.112c-0.5,0.253-1.027,0.382-1.57,0.382c-0.787,0-1.425-0.268-1.685-0.396l-8.878-10.098H64.568z
	 M42.862,51.296V37.814l8.653,9.841c0.08,0.091,0.172,0.17,0.275,0.235c0.139,0.088,1.411,0.865,3.188,0.865
	c1.077,0,2.105-0.282,3.06-0.839c0.138-0.081,0.259-0.186,0.358-0.312l7.542-9.511v13.202H42.862z"/>
</svg>
