<?xml version="1.0" encoding="utf-8"?>
<!-- Generator: Adobe Illustrator 16.0.0, SVG Export Plug-In . SVG Version: 6.00 Build 0)  -->
<!DOCTYPE svg PUBLIC "-//W3C//DTD SVG 1.1//EN" "http://www.w3.org/Graphics/SVG/1.1/DTD/svg11.dtd">
<svg version="1.1" id="Layer_1" xmlns="http://www.w3.org/2000/svg" xmlns:xlink="http://www.w3.org/1999/xlink" x="0px" y="0px"
	 width="111.318px" height="111.557px" viewBox="0 0 111.318 111.557" enable-background="new 0 0 111.318 111.557"
	 xml:space="preserve">
<g>
	<circle opacity="0.76" fill="#333E47" enable-background="new    " cx="57.207" cy="58.353" r="53.328"/>
	<circle fill="#A2C03C" cx="54.111" cy="53.328" r="53.328"/>
	<g>
		<g>
			<path fill="#FFFFFF" d="M60.005,24.624h9.145l-10.67-9.588v7.988C58.478,23.819,59.091,24.624,60.005,24.624z"/>
			<path fill="#FFFFFF" d="M67.532,24.99v24.778c0,1.029-0.799,1.866-1.781,1.866H46.358c-0.978,0-1.772-0.837-1.772-1.866v-0.555
				v-0.873V18.597c0-1.03,0.798-1.867,1.78-1.867h11.662v-1.695H46.366c-1.874,0-3.396,1.598-3.396,3.562v29.697v0.918v0.555
				c0,1.965,1.521,3.562,3.389,3.562h19.394c1.874,0,3.397-1.597,3.397-3.562V24.99H67.532z"/>
		</g>
		<g>
			<rect x="47.556" y="30.867" fill="#FFFFFF" width="17.004" height="0.788"/>
			<rect x="47.556" y="33.79" fill="#FFFFFF" width="17.004" height="0.786"/>
			<rect x="47.556" y="36.713" fill="#FFFFFF" width="17.004" height="0.786"/>
			<rect x="47.556" y="39.635" fill="#FFFFFF" width="17.004" height="0.786"/>
			<rect x="47.556" y="42.557" fill="#FFFFFF" width="17.004" height="0.787"/>
		</g>
	</g>
	<g>
		<path fill="#FFFFFF" d="M14.567,75.152v-9.135c0-0.088,0.044-0.133,0.131-0.138h3.088c1.395,0,2.517,0.418,3.364,1.255
			c0.848,0.838,1.272,1.986,1.272,3.447c0,1.46-0.423,2.608-1.269,3.446c-0.846,0.837-1.969,1.256-3.368,1.256h-3.088
			C14.611,75.284,14.567,75.24,14.567,75.152z M15.773,74.345h2.013c1.019,0,1.845-0.32,2.479-0.96
			c0.634-0.642,0.951-1.574,0.951-2.801s-0.316-2.159-0.948-2.8c-0.632-0.642-1.459-0.961-2.482-0.961h-2.013V74.345z"/>
		<path fill="#FFFFFF" d="M24.259,66.148c0-0.179,0.09-0.269,0.269-0.269H25.4c0.1,0,0.17,0.021,0.21,0.062
			c0.039,0.041,0.059,0.109,0.059,0.206v0.873c0,0.1-0.02,0.17-0.059,0.209c-0.04,0.04-0.11,0.06-0.21,0.06h-0.873
			c-0.096,0-0.165-0.02-0.206-0.06c-0.042-0.039-0.062-0.109-0.062-0.209V66.148z M24.357,75.152v-6.919
			c0-0.091,0.043-0.137,0.131-0.137h0.938c0.092,0,0.138,0.046,0.138,0.137v6.919c0,0.088-0.046,0.132-0.138,0.132h-0.938
			C24.401,75.284,24.357,75.24,24.357,75.152z"/>
		<path fill="#FFFFFF" d="M28.405,74.874c-0.505-0.408-0.757-0.967-0.757-1.672c0-0.707,0.259-1.265,0.777-1.673
			s1.243-0.613,2.174-0.613h2.289V70.85c0-1.342-0.674-2.014-2.02-2.014c-0.419,0-0.777,0.101-1.072,0.302
			c-0.294,0.201-0.497,0.459-0.606,0.774c-0.026,0.087-0.079,0.131-0.157,0.131h-0.846c-0.1,0-0.146-0.044-0.138-0.131
			c0.07-0.607,0.359-1.095,0.866-1.463c0.507-0.367,1.159-0.551,1.954-0.551c1.041,0,1.838,0.257,2.394,0.771
			c0.555,0.514,0.833,1.241,0.833,2.181v4.302c0,0.088-0.045,0.132-0.138,0.132h-0.734c-0.087,0-0.138-0.044-0.151-0.132
			l-0.118-0.741c-0.053,0.083-0.168,0.198-0.348,0.345c-0.179,0.146-0.359,0.266-0.538,0.357c-0.472,0.249-1.005,0.374-1.6,0.374
			C29.597,75.487,28.91,75.282,28.405,74.874z M28.854,73.205c0,0.437,0.146,0.769,0.436,0.996c0.291,0.228,0.705,0.342,1.243,0.342
			c0.289,0,0.567-0.05,0.836-0.148c0.269-0.098,0.49-0.214,0.662-0.347c0.172-0.134,0.327-0.271,0.462-0.41s0.235-0.258,0.299-0.351
			c0.063-0.095,0.095-0.146,0.095-0.154V71.86h-2.289C29.436,71.86,28.854,72.308,28.854,73.205z"/>
		<path fill="#FFFFFF" d="M37.035,73.886c-0.645-0.616-0.967-1.457-0.967-2.524c0-1.066,0.324-1.911,0.973-2.531
			c0.649-0.621,1.487-0.932,2.515-0.932c0.573,0,1.124,0.067,1.653,0.2s0.91,0.268,1.141,0.403l0.367,0.196v5.778
			c0,2.15-1.12,3.226-3.357,3.226c-0.861,0-1.553-0.181-2.073-0.544c-0.52-0.363-0.815-0.854-0.885-1.476
			c-0.008-0.087,0.038-0.131,0.138-0.131h0.846c0.079,0,0.131,0.044,0.157,0.131c0.11,0.324,0.318,0.584,0.626,0.78
			c0.308,0.197,0.705,0.295,1.19,0.295c0.743,0,1.286-0.182,1.629-0.544c0.343-0.363,0.515-0.942,0.515-1.737v-0.066
			c-0.582,0.268-1.252,0.4-2.013,0.4C38.498,74.811,37.679,74.503,37.035,73.886z M37.939,69.502
			c-0.443,0.445-0.665,1.067-0.665,1.867s0.219,1.418,0.659,1.853s0.999,0.652,1.679,0.652s1.311-0.134,1.892-0.4v-4.236
			c0-0.009-0.075-0.044-0.226-0.105c-0.151-0.061-0.379-0.125-0.685-0.193c-0.307-0.067-0.605-0.102-0.899-0.102
			C38.968,68.837,38.384,69.059,37.939,69.502z"/>
		<path fill="#FFFFFF" d="M45.227,75.152v-6.919c0-0.091,0.044-0.137,0.131-0.137h0.741c0.087,0,0.136,0.046,0.145,0.137
			l0.125,0.735c0.052-0.074,0.166-0.188,0.341-0.338c0.175-0.15,0.345-0.272,0.511-0.364c0.428-0.244,0.926-0.367,1.496-0.367
			c0.905,0,1.646,0.28,2.223,0.84s0.865,1.33,0.865,2.314v4.099c0,0.088-0.044,0.132-0.131,0.132H50.73
			c-0.088,0-0.131-0.044-0.131-0.132v-4.099c0-0.708-0.184-1.254-0.551-1.64c-0.367-0.385-0.833-0.577-1.396-0.577
			c-0.259,0-0.513,0.049-0.765,0.147c-0.251,0.099-0.46,0.215-0.626,0.349c-0.166,0.132-0.313,0.27-0.439,0.409
			c-0.257,0.275-0.387,0.444-0.387,0.505v4.905c0,0.088-0.043,0.132-0.131,0.132h-0.944C45.271,75.284,45.227,75.24,45.227,75.152z"
			/>
		<path fill="#FFFFFF" d="M57.276,75.487c-1.047,0-1.891-0.33-2.53-0.987c-0.642-0.658-0.961-1.599-0.961-2.819
			c0-1.222,0.32-2.158,0.961-2.808c0.64-0.649,1.483-0.974,2.53-0.974s1.891,0.324,2.533,0.974c0.639,0.649,0.959,1.586,0.959,2.808
			c0,1.221-0.32,2.161-0.959,2.819C59.167,75.157,58.323,75.487,57.276,75.487z M57.276,68.837c-0.68,0-1.23,0.237-1.652,0.711
			c-0.422,0.476-0.633,1.185-0.633,2.129s0.211,1.657,0.633,2.142c0.421,0.483,0.972,0.725,1.652,0.725
			c0.681,0,1.23-0.241,1.654-0.725c0.421-0.484,0.631-1.197,0.631-2.142s-0.21-1.653-0.631-2.129
			C58.507,69.074,57.957,68.837,57.276,68.837z M56.631,67.159l0.872-1.745c0.045-0.092,0.111-0.138,0.203-0.138h1.207
			c0.109,0,0.131,0.046,0.065,0.138l-1.41,1.745c-0.069,0.086-0.136,0.131-0.196,0.131h-0.676
			C56.609,67.29,56.587,67.245,56.631,67.159z"/>
		<path fill="#FFFFFF" d="M62.218,73.362c-0.005-0.021-0.008-0.04-0.008-0.053c0-0.07,0.049-0.104,0.145-0.104H63.2
			c0.053,0,0.108,0.044,0.164,0.131c0.446,0.805,1.229,1.207,2.348,1.207c0.636,0,1.107-0.095,1.416-0.282
			c0.312-0.188,0.467-0.425,0.467-0.708c0-0.284-0.107-0.518-0.317-0.699c-0.213-0.182-0.576-0.332-1.093-0.456l-1.679-0.405
			c-1.434-0.35-2.151-1.043-2.151-2.079c0-0.591,0.268-1.074,0.8-1.45c0.534-0.375,1.267-0.563,2.197-0.563s1.685,0.191,2.256,0.577
			c0.573,0.385,0.949,0.898,1.128,1.541c0.026,0.109-0.02,0.164-0.138,0.164h-0.846c-0.053,0-0.105-0.046-0.157-0.138
			c-0.447-0.805-1.185-1.207-2.217-1.207c-0.599,0-1.051,0.097-1.358,0.288c-0.306,0.193-0.458,0.43-0.458,0.712
			s0.105,0.513,0.318,0.692c0.211,0.179,0.575,0.332,1.091,0.459l1.679,0.4c1.435,0.341,2.151,1.035,2.151,2.085
			c0,0.59-0.271,1.073-0.813,1.449c-0.541,0.376-1.3,0.564-2.275,0.564c-0.975,0-1.756-0.19-2.344-0.571
			C62.779,74.536,62.396,74.017,62.218,73.362z"/>
		<path fill="#FFFFFF" d="M70.774,72.529v-6.512c0-0.092,0.043-0.138,0.132-0.138h0.944c0.086,0,0.131,0.046,0.131,0.138v2.079
			h2.741c0.087,0,0.131,0.046,0.131,0.137v0.67c0,0.091-0.044,0.138-0.131,0.138h-2.741v3.488c0,0.664,0.153,1.166,0.462,1.505
			c0.308,0.34,0.735,0.509,1.282,0.509c0.48,0,0.911-0.065,1.292-0.197l0.19-0.072c0.086-0.035,0.131,0.002,0.131,0.112v0.655
			c0,0.074-0.045,0.134-0.131,0.177c-0.451,0.179-0.988,0.27-1.613,0.27c-0.862,0-1.547-0.271-2.057-0.813
			C71.029,74.132,70.774,73.417,70.774,72.529z"/>
		<path fill="#FFFFFF" d="M76.912,66.148c0-0.179,0.089-0.269,0.268-0.269h0.873c0.1,0,0.17,0.021,0.21,0.062
			c0.039,0.041,0.059,0.109,0.059,0.206v0.873c0,0.1-0.02,0.17-0.059,0.209c-0.04,0.04-0.11,0.06-0.21,0.06h-0.873
			c-0.097,0-0.164-0.02-0.207-0.06c-0.04-0.039-0.061-0.109-0.061-0.209V66.148z M77.01,75.152v-6.919
			c0-0.091,0.044-0.137,0.131-0.137h0.938c0.093,0,0.139,0.046,0.139,0.137v6.919c0,0.088-0.046,0.132-0.139,0.132H77.14
			C77.053,75.284,77.01,75.24,77.01,75.152z"/>
		<path fill="#FFFFFF" d="M83.688,75.487c-0.982,0-1.791-0.33-2.43-0.987c-0.638-0.658-0.958-1.599-0.958-2.819
			c0-1.222,0.32-2.158,0.961-2.808s1.444-0.974,2.41-0.974s1.723,0.198,2.269,0.597c0.547,0.398,0.905,0.951,1.076,1.659
			c0.025,0.109-0.021,0.162-0.139,0.157h-0.846c-0.061,0-0.113-0.044-0.157-0.131c-0.411-0.896-1.105-1.345-2.085-1.345
			c-0.683,0-1.233,0.237-1.653,0.711c-0.42,0.476-0.63,1.185-0.63,2.129s0.212,1.657,0.634,2.142
			c0.421,0.483,0.939,0.725,1.551,0.725c0.612,0,1.087-0.111,1.423-0.335c0.337-0.224,0.612-0.558,0.826-1.003
			c0.044-0.087,0.099-0.133,0.164-0.138h0.846c0.098,0,0.144,0.034,0.139,0.104c0,0.019-0.002,0.038-0.007,0.059
			c-0.171,0.717-0.533,1.272-1.089,1.666S84.669,75.487,83.688,75.487z"/>
		<path fill="#FFFFFF" d="M92.16,75.487c-1.047,0-1.89-0.33-2.532-0.987c-0.639-0.658-0.959-1.599-0.959-2.819
			c0-1.222,0.32-2.158,0.959-2.808c0.643-0.649,1.485-0.974,2.532-0.974c1.048,0,1.891,0.324,2.531,0.974s0.961,1.586,0.961,2.808
			c0,1.221-0.32,2.161-0.961,2.819C94.051,75.157,93.208,75.487,92.16,75.487z M92.16,68.837c-0.68,0-1.23,0.237-1.653,0.711
			c-0.42,0.476-0.632,1.185-0.632,2.129s0.212,1.657,0.632,2.142c0.423,0.483,0.974,0.725,1.653,0.725
			c0.681,0,1.231-0.241,1.652-0.725c0.422-0.484,0.634-1.197,0.634-2.142s-0.212-1.653-0.634-2.129
			C93.391,69.074,92.841,68.837,92.16,68.837z"/>
		<path fill="#FFFFFF" d="M37.645,92.274c-1.047,0-1.891-0.328-2.531-0.986c-0.641-0.658-0.961-1.598-0.961-2.819
			c0-1.223,0.32-2.158,0.961-2.807c0.641-0.649,1.484-0.975,2.531-0.975s1.891,0.325,2.531,0.975c0.641,0.648,0.96,1.584,0.96,2.807
			c0,1.222-0.32,2.161-0.96,2.819S38.693,92.274,37.645,92.274z M37.645,85.625c-0.68,0-1.231,0.238-1.653,0.712
			c-0.421,0.474-0.633,1.184-0.633,2.128s0.211,1.658,0.633,2.142c0.422,0.483,0.973,0.725,1.653,0.725s1.23-0.241,1.652-0.725
			s0.633-1.197,0.633-2.142s-0.211-1.654-0.633-2.128S38.325,85.625,37.645,85.625z"/>
		<path fill="#FFFFFF" d="M43.248,91.94v-6.919c0-0.092,0.044-0.138,0.131-0.138h0.741c0.087,0,0.136,0.046,0.144,0.138l0.125,0.735
			c0.052-0.074,0.166-0.188,0.341-0.338c0.175-0.151,0.346-0.272,0.512-0.364c0.428-0.244,0.927-0.367,1.495-0.367
			c0.905,0,1.646,0.279,2.224,0.84c0.577,0.559,0.865,1.331,0.865,2.315v4.098c0,0.087-0.044,0.132-0.131,0.132h-0.944
			c-0.088,0-0.131-0.045-0.131-0.132v-4.098c0-0.709-0.184-1.255-0.551-1.64c-0.367-0.386-0.833-0.578-1.397-0.578
			c-0.257,0-0.513,0.05-0.764,0.148c-0.251,0.099-0.46,0.214-0.626,0.347c-0.166,0.134-0.312,0.271-0.439,0.41
			c-0.258,0.275-0.387,0.444-0.387,0.506v4.904c0,0.087-0.044,0.132-0.131,0.132h-0.944C43.292,92.072,43.248,92.027,43.248,91.94z"
			/>
		<path fill="#FFFFFF" d="M52.343,91.94v-9.135c0-0.092,0.043-0.138,0.131-0.138h0.944c0.087,0,0.131,0.046,0.131,0.138v9.135
			c0,0.087-0.044,0.132-0.131,0.132h-0.944C52.386,92.072,52.343,92.027,52.343,91.94z"/>
		<path fill="#FFFFFF" d="M56.06,82.937c0-0.18,0.09-0.27,0.269-0.27h0.872c0.101,0,0.171,0.021,0.21,0.062
			c0.039,0.042,0.059,0.11,0.059,0.208v0.872c0,0.1-0.02,0.169-0.059,0.209c-0.039,0.039-0.109,0.059-0.21,0.059h-0.872
			c-0.096,0-0.166-0.02-0.206-0.059c-0.042-0.04-0.063-0.109-0.063-0.209V82.937z M56.158,91.94v-6.919
			c0-0.092,0.044-0.138,0.131-0.138h0.938c0.092,0,0.138,0.046,0.138,0.138v6.919c0,0.087-0.046,0.132-0.138,0.132H56.29
			C56.203,92.072,56.158,92.027,56.158,91.94z"/>
		<path fill="#FFFFFF" d="M59.987,91.94v-6.919c0-0.092,0.044-0.138,0.131-0.138h0.741c0.087,0,0.136,0.046,0.145,0.138l0.124,0.735
			c0.053-0.074,0.167-0.188,0.341-0.338c0.176-0.151,0.347-0.272,0.511-0.364c0.43-0.244,0.929-0.367,1.496-0.367
			c0.905,0,1.646,0.279,2.224,0.84c0.576,0.559,0.865,1.331,0.865,2.315v4.098c0,0.087-0.043,0.132-0.131,0.132h-0.945
			c-0.086,0-0.13-0.045-0.13-0.132v-4.098c0-0.709-0.184-1.255-0.552-1.64c-0.366-0.386-0.833-0.578-1.396-0.578
			c-0.257,0-0.513,0.05-0.764,0.148s-0.46,0.214-0.626,0.347c-0.166,0.134-0.312,0.271-0.44,0.41
			c-0.257,0.275-0.386,0.444-0.386,0.506v4.904c0,0.087-0.044,0.132-0.132,0.132h-0.944C60.031,92.072,59.987,92.027,59.987,91.94z"
			/>
		<path fill="#FFFFFF" d="M71.929,92.288c-0.977,0-1.783-0.331-2.425-0.993c-0.64-0.662-0.96-1.604-0.96-2.826
			c0-1.223,0.32-2.158,0.96-2.807c0.642-0.649,1.479-0.975,2.512-0.975c1.035,0,1.878,0.332,2.531,0.994
			c0.654,0.662,0.981,1.539,0.981,2.633v0.334c0,0.179-0.091,0.269-0.269,0.269h-5.496c0.073,0.813,0.315,1.422,0.722,1.823
			c0.406,0.402,0.922,0.604,1.547,0.604c0.988,0,1.705-0.402,2.151-1.206c0.053-0.088,0.106-0.132,0.164-0.132h0.847
			c0.112,0,0.156,0.053,0.131,0.158c-0.18,0.646-0.547,1.162-1.102,1.547C73.668,92.096,72.903,92.288,71.929,92.288z
			 M69.764,87.973h4.559c-0.04-0.704-0.281-1.271-0.722-1.702c-0.442-0.432-0.969-0.646-1.578-0.646s-1.12,0.199-1.531,0.598
			C70.081,86.62,69.838,87.204,69.764,87.973z"/>
	</g>
</g>
</svg>
