<?xml version="1.0" encoding="utf-8"?>
<!-- Generator: Adobe Illustrator 16.0.0, SVG Export Plug-In . SVG Version: 6.00 Build 0)  -->
<!DOCTYPE svg PUBLIC "-//W3C//DTD SVG 1.1//EN" "http://www.w3.org/Graphics/SVG/1.1/DTD/svg11.dtd">
<svg version="1.1" id="Layer_1" xmlns="http://www.w3.org/2000/svg" xmlns:xlink="http://www.w3.org/1999/xlink" x="0px" y="0px"
	 width="37.514px" height="37.513px" viewBox="0 0 37.514 37.513" enable-background="new 0 0 37.514 37.513" xml:space="preserve">
<g>
	<path fill="#273B88" d="M2.223,9.897c-0.722,1.344-1.283,2.786-1.661,4.301h7.46L2.223,9.897z"/>
	<path fill="#273B88" d="M14.199,0.561c-3.354,0.838-6.351,2.575-8.717,4.945l8.717,6.465V0.561z"/>
	<path fill="#273B88" d="M23.314,36.953c3.354-0.838,6.352-2.576,8.717-4.945l-8.717-6.465V36.953z"/>
	<path fill="#273B88" d="M35.291,27.616c0.723-1.345,1.283-2.786,1.662-4.302h-7.461L35.291,27.616z"/>
	<path fill="#273B88" d="M36.953,14.199c-0.379-1.515-0.94-2.958-1.662-4.301l-5.799,4.301H36.953z"/>
	<path fill="#273B88" d="M8.021,23.314h-7.46c0.378,1.516,0.939,2.957,1.661,4.302L8.021,23.314z"/>
	<path fill="#273B88" d="M5.482,32.007c2.366,2.37,5.363,4.107,8.717,4.945v-11.41L5.482,32.007z"/>
	<path fill="#273B88" d="M32.031,5.506c-2.366-2.37-5.362-4.107-8.717-4.945v11.411L32.031,5.506z"/>
	<path fill="#E51E25" d="M12.612,14.199l-8.92-6.616C3.33,8.07,2.991,8.576,2.677,9.099l6.876,5.1H12.612z"/>
	<path fill="#E51E25" d="M24.902,23.314l8.92,6.616c0.362-0.487,0.701-0.994,1.016-1.517l-6.875-5.1H24.902z"/>
	<path fill="#E51E25" d="M14.199,23.314h-1.587l-8.92,6.616c0.363,0.489,0.749,0.96,1.157,1.411l9.35-6.936V23.314z"/>
	<path fill="#E51E25" d="M23.314,14.199h1.588l8.919-6.616c-0.363-0.49-0.749-0.961-1.158-1.412l-9.349,6.934V14.199z"/>
	<path fill="#FFFFFF" d="M37.312,21.492H23.314h-1.822v15.82c0.618-0.09,1.226-0.211,1.822-0.359v-11.41l8.717,6.465
		c0.646-0.646,1.244-1.342,1.791-2.077l-8.92-6.616h3.061l6.875,5.1c0.157-0.262,0.309-0.527,0.453-0.798l-5.799-4.302h7.461
		C37.102,22.717,37.223,22.109,37.312,21.492z"/>
	<path fill="#FFFFFF" d="M36.953,14.199h-7.461l5.799-4.301c-0.434-0.809-0.925-1.583-1.47-2.314l-8.919,6.616h-1.588v-1.093
		l9.349-6.934c-0.205-0.227-0.415-0.449-0.632-0.666l-8.717,6.465V0.561c-0.597-0.149-1.204-0.27-1.822-0.36v15.821h1.822h13.998
		C37.223,15.404,37.102,14.796,36.953,14.199z"/>
	<g>
		<path fill="#FFFFFF" d="M0.201,21.492c0.09,0.617,0.211,1.226,0.36,1.822h7.46l-5.799,4.302c0.435,0.809,0.926,1.582,1.47,2.314
			l8.92-6.616h1.587v1.092l-9.35,6.936c0.206,0.227,0.417,0.449,0.633,0.666l8.717-6.465v11.41c0.598,0.148,1.205,0.27,1.824,0.359
			v-15.82h-1.824H0.201z"/>
		<path fill="#FFFFFF" d="M14.199,0.561v11.411L5.482,5.506c-0.646,0.647-1.243,1.341-1.79,2.077l8.92,6.616h-3.06l-6.876-5.1
			C2.52,9.361,2.367,9.627,2.223,9.897l5.799,4.301h-7.46c-0.149,0.597-0.271,1.205-0.36,1.823h13.998h1.824V0.201
			C15.404,0.291,14.797,0.412,14.199,0.561z"/>
	</g>
	<path fill="#E51E25" d="M37.312,16.022H23.314h-1.822V0.201C20.6,0.07,19.687,0,18.757,0c-0.929,0-1.841,0.07-2.733,0.201v15.821
		h-1.824H0.201C0.071,16.915,0,17.827,0,18.756s0.071,1.842,0.201,2.735h13.998h1.824v15.82c0.893,0.131,1.805,0.201,2.733,0.201
		c0.93,0,1.843-0.07,2.735-0.201v-15.82h1.822h13.998c0.131-0.894,0.201-1.806,0.201-2.735S37.443,16.915,37.312,16.022z"/>
</g>
</svg>
