<?xml version="1.0" encoding="utf-8"?>
<!-- Generator: Adobe Illustrator 16.0.0, SVG Export Plug-In . SVG Version: 6.00 Build 0)  -->
<!DOCTYPE svg PUBLIC "-//W3C//DTD SVG 1.1//EN" "http://www.w3.org/Graphics/SVG/1.1/DTD/svg11.dtd">
<svg version="1.1" id="Layer_1" xmlns="http://www.w3.org/2000/svg" xmlns:xlink="http://www.w3.org/1999/xlink" x="0px" y="0px"
	 width="37.514px" height="37.513px" viewBox="0 0 37.514 37.513" enable-background="new 0 0 37.514 37.513" xml:space="preserve">
<g>
	<path fill="#E51E25" d="M18.757-0.026c-6.951,0-13.014,3.779-16.264,9.391h32.527C31.773,3.753,25.708-0.026,18.757-0.026z"/>
	<path fill="#FEE200" d="M37.539,18.756c0-3.423-0.919-6.627-2.519-9.391H2.493c-1.599,2.764-2.519,5.968-2.519,9.391
		c0,3.422,0.919,6.628,2.519,9.391h32.527C36.62,25.384,37.539,22.179,37.539,18.756z"/>
	<path fill="#E51E25" d="M35.021,28.147H2.493c3.249,5.612,9.313,9.392,16.264,9.392C25.708,37.539,31.773,33.76,35.021,28.147z"/>
</g>
</svg>
