<?xml version="1.0" encoding="utf-8"?>
<!-- Generator: Adobe Illustrator 16.0.0, SVG Export Plug-In . SVG Version: 6.00 Build 0)  -->
<!DOCTYPE svg PUBLIC "-//W3C//DTD SVG 1.1//EN" "http://www.w3.org/Graphics/SVG/1.1/DTD/svg11.dtd">
<svg version="1.1" id="Layer_1" xmlns="http://www.w3.org/2000/svg" xmlns:xlink="http://www.w3.org/1999/xlink" x="0px" y="0px"
	 width="52px" height="52px" viewBox="0 0 52 52" enable-background="new 0 0 52 52" xml:space="preserve">
<path fill-rule="evenodd" clip-rule="evenodd" fill="#FFFFFF" d="M21.697,31.96c0.39,0.602,1.126,1.21,1.649,1.21h5.309
	c0.522,0,1.258-0.608,1.648-1.21c-0.432,0.198-1.145,0.309-1.648,0.309h-5.309C22.842,32.27,22.128,32.158,21.697,31.96
	L21.697,31.96z M48.504,50.437h-6.957l-0.369-12.634c-0.04-1.006-1.228-0.96-1.228,0v12.634c-9.597,0-18.304,0-27.9,0V37.803
	c0-0.959-1.188-1.006-1.228,0l-0.369,12.634H3.496l0.603-15.516c0.265-5.449,2.883-8.425,7.168-9.922
	c2.425-0.847,4.819-1.476,7.198-1.887c0.393,0.395,0.818,0.762,1.268,1.1v4.884c0,1.247,0.283,2.538,0.961,3.61
	c0.656,1.033,1.592,1.676,2.652,1.676c0.81,0,1.688,0.125,1.688,1.179v8.503c-0.687,0.353-1.157,1.067-1.157,1.891
	c0,1.174,0.951,2.124,2.125,2.124c1.172,0,2.124-0.95,2.124-2.124c0-0.824-0.469-1.539-1.156-1.89l-0.001-8.504
	c0-1.054,0.878-1.179,1.688-1.179c1.06,0,1.997-0.643,2.652-1.676c0.678-1.072,0.961-2.363,0.961-3.61v-4.884
	c0.344-0.258,0.672-0.533,0.985-0.824c1.904,0.397,3.819,0.934,5.754,1.611c4.287,1.497,8.548,4.481,8.812,9.922L48.504,50.437
	L48.504,50.437z M30.823,25.149c-0.922,0.512-1.898,0.901-2.87,1.14c-1.089,0.268-2.816,0.268-3.906,0
	c-0.972-0.239-1.948-0.627-2.869-1.14v3.946c0,1.311,0.756,2.163,2.168,2.163h5.309c1.411,0,2.168-0.852,2.168-2.163V25.149
	L30.823,25.149z M26,45.005c-0.525,0-0.951,0.426-0.951,0.95c0,0.525,0.426,0.951,0.951,0.951c0.523,0,0.95-0.426,0.95-0.951
	C26.95,45.431,26.524,45.005,26,45.005L26,45.005z M36.064,35.34v-2.049h-2.246v2.049h-2.05v2.246h2.05v2.049h2.246v-2.049h2.049
	V35.34H36.064L36.064,35.34z M17.374,8.479c-0.21,2.406,0.293,8.099,1.409,10.254c0.977,1.885,3.249,3.695,5.769,4.314
	c1.218,0.193,1.523,0.193,2.742,0c2.52-0.619,4.793-2.429,5.769-4.314c1.116-2.156,1.62-7.848,1.41-10.254
	c-0.404-4.609-4.254-6.916-8.549-6.916C21.627,1.563,17.777,3.87,17.374,8.479z"/>
</svg>
