<?xml version="1.0" encoding="utf-8"?>
<!-- Generator: Adobe Illustrator 16.0.0, SVG Export Plug-In . SVG Version: 6.00 Build 0)  -->
<!DOCTYPE svg PUBLIC "-//W3C//DTD SVG 1.1//EN" "http://www.w3.org/Graphics/SVG/1.1/DTD/svg11.dtd">
<svg version="1.1" id="Layer_1" xmlns="http://www.w3.org/2000/svg" xmlns:xlink="http://www.w3.org/1999/xlink" x="0px" y="0px"
	 width="52px" height="52px" viewBox="0 0 52 52" enable-background="new 0 0 52 52" xml:space="preserve">
<g>
	<g>
		<path fill="#FFFFFF" d="M32.679,13.815H48.16L30.096,1.735v10.064C30.096,12.801,31.131,13.815,32.679,13.815z"/>
		<path fill="#FFFFFF" d="M45.425,14.278V45.5c0,1.296-1.352,2.353-3.017,2.353H9.577c-1.655,0-3.002-1.056-3.002-2.353v-0.701v-1.1
			V6.223c0-1.298,1.352-2.354,3.015-2.354h19.743V1.735H9.59c-3.172,0-5.75,2.013-5.75,4.488v37.418v1.157V45.5
			c0,2.474,2.573,4.487,5.737,4.487h32.831c3.171,0,5.752-2.013,5.752-4.487V14.278H45.425z"/>
	</g>
	<g>
		<rect x="11.605" y="21.682" fill="#FFFFFF" width="28.788" height="0.992"/>
		<rect x="11.605" y="25.365" fill="#FFFFFF" width="28.788" height="0.991"/>
		<rect x="11.605" y="29.048" fill="#FFFFFF" width="28.788" height="0.991"/>
		<rect x="11.605" y="32.731" fill="#FFFFFF" width="28.788" height="0.99"/>
		<rect x="11.605" y="36.414" fill="#FFFFFF" width="28.788" height="0.991"/>
	</g>
</g>
</svg>
