<?xml version="1.0" encoding="utf-8"?>
<!-- Generator: Adobe Illustrator 16.0.0, SVG Export Plug-In . SVG Version: 6.00 Build 0)  -->
<!DOCTYPE svg PUBLIC "-//W3C//DTD SVG 1.1//EN" "http://www.w3.org/Graphics/SVG/1.1/DTD/svg11.dtd">
<svg version="1.1" id="Layer_1" xmlns="http://www.w3.org/2000/svg" xmlns:xlink="http://www.w3.org/1999/xlink" x="0px" y="0px"
	 width="266.667px" height="85.334px" viewBox="-64.167 -16.833 266.667 85.334"
	 enable-background="new -64.167 -16.833 266.667 85.334" xml:space="preserve">
<g>
	<g>
		<path fill="#6C757D" d="M-35.942-0.937c0,0-0.982-2.456,1.843-1.965c0,0,7.003,2.825,12.779,5.037c0,0,3.563,1.409,8.724-2.552
			c0,0,7.495-5.559,15.113-4.943c0,0,4.422,0.49,4.545,2.58c0,0,0.124,0.934-3.071,1.266c0,0-7.564,0.846-15.235,6.722
			c0,0-5.875,4.03-9.83,3.932c0,0-0.953,0.237-4.823-2.804C-25.897,6.335-35.205-0.446-35.942-0.937z"/>
		<path fill="#6C757D" stroke="#6C757D" stroke-width="1.5" d="M-16.077-2.791c0,0,12.206-11.796,19.864-11.796
			s11.796,4.552,14.903,9.933C18.69-4.654,8.343-22.45-16.077-2.791z"/>
		<path fill="#6C757D" stroke="#6C757D" stroke-width="2" d="M22.022-3.001"/>
		<path fill="#6C757D" stroke="#6C757D" stroke-width="1.5" d="M19.978,40.519c5.798-13.643,7.354-31.623-0.363-42.285
			c0,0,6.096,14.846-3.682,36.033C9.318,48.605,2.459,54.478-1.165,57.164c-3.353,2.484-6.851,4.164-9.135-0.268
			c-2.371-4.6-2.815-12.129-2.815-20.615c0,0-4.501,29.973,5.519,29.973C0.86,66.253,13.725,55.224,19.978,40.519z"/>
		<path fill="#6C757D" stroke="#6C757D" stroke-width="1.5" d="M-16.708,35.275c0,0-4.687-4.617-6.959,4.072
			c-2.278,8.693-1.942,18.693-1.942,22.83C-25.61,66.316-22.914,37.136-16.708,35.275z"/>
		<path fill="#6C757D" stroke="#6C757D" stroke-width="1.5" d="M-18.534-6.515c0,0-8.505-3.721-15.725-3.104
			c-9.103,0.775-13.244,5.407-16.004,11.657c-2.731,6.199-3.126,21.875,0.737,33.459c3.56,10.672,13.661,21.84,19.665,25.566
			c0,0-19.587-10.283-26.647-29.797c-6.99-19.301-3.409-40.683,12.94-43.99C-43.568-12.723-28.877-16.241-18.534-6.515z"/>
	</g>
	<g>
		<path fill="#1D76BB" d="M38.35,27.962V6.327h10.28h0.933c2.764,0,4.648,0.47,5.653,1.411c1.004,0.939,1.507,2.7,1.507,5.277
			c0,2.474-0.524,4.159-1.569,5.057c-1.048,0.896-3.013,1.348-5.896,1.348l-1.078,0.015h-7.069v8.528H38.35z M41.112,17.375h6.55
			c2.739,0,4.496-0.248,5.265-0.747c0.772-0.495,1.159-1.636,1.159-3.422c0-2.093-0.261-3.415-0.781-3.971
			c-0.521-0.554-1.756-0.832-3.706-0.832l-1.058-0.014h-7.429V17.375z"/>
		<path fill="#1D76BB" d="M60.025,27.962V6.327h11.663c2.631,0,4.486,0.46,5.561,1.38c1.076,0.919,1.615,2.513,1.615,4.785
			c0,1.999-0.293,3.391-0.879,4.176c-0.586,0.787-1.705,1.299-3.354,1.529v0.049c2.595,0.171,3.894,1.564,3.894,4.186v5.531H75.76
			v-4.979c0-2.523-1.238-3.788-3.715-3.788h-0.914h-8.344v8.767H60.025z M62.787,17.135h7.985c2.105,0,3.541-0.282,4.307-0.846
			c0.766-0.565,1.148-1.631,1.148-3.195c0-1.954-0.285-3.229-0.854-3.818c-0.566-0.593-1.785-0.887-3.65-0.887h-8.936V17.135z"/>
		<path fill="#1D76BB" d="M91.874,6.105c4.629,0,7.523,0.598,8.684,1.791c1.159,1.193,1.74,4.179,1.74,8.956
			c0,5.146-0.556,8.321-1.668,9.524c-1.113,1.207-4.032,1.809-8.756,1.809c-4.701,0-7.619-0.598-8.748-1.791
			c-1.131-1.195-1.695-4.279-1.695-9.259v-1.52l0.035-2.047c0-2.873,0.734-4.836,2.197-5.888C85.128,6.63,87.866,6.105,91.874,6.105
			z M91.855,8.166c-3.876,0-6.142,0.382-6.802,1.14c-0.656,0.761-0.986,3.371-0.986,7.83c0,4.47,0.33,7.089,0.986,7.849
			c0.66,0.76,2.926,1.141,6.802,1.141c3.887,0,6.16-0.381,6.818-1.141c0.657-0.76,0.985-3.379,0.985-7.849v-1.411l-0.018-2.043
			c0-2.389-0.453-3.904-1.363-4.55C97.37,8.487,95.227,8.166,91.855,8.166z"/>
		<path fill="#1D76BB" d="M122.25,12.192h-2.746c0-1.744-0.328-2.852-0.986-3.32c-0.658-0.472-2.208-0.706-4.647-0.706
			c-2.896,0-4.761,0.225-5.598,0.673c-0.839,0.45-1.257,1.451-1.257,3.005c0,1.743,0.33,2.805,0.988,3.185
			c0.658,0.382,2.611,0.639,5.866,0.779c3.815,0.146,6.241,0.574,7.274,1.282c1.037,0.707,1.553,2.292,1.553,4.756
			c0,2.662-0.594,4.385-1.784,5.168c-1.191,0.781-3.82,1.172-7.886,1.172c-3.53,0-5.878-0.395-7.045-1.182
			c-1.164-0.787-1.748-2.375-1.748-4.764l-0.02-0.965h2.747v0.537c0,1.936,0.335,3.137,1.005,3.605
			c0.669,0.473,2.386,0.707,5.15,0.707c3.168,0,5.118-0.234,5.85-0.707c0.728-0.469,1.094-1.725,1.094-3.764
			c0-1.321-0.248-2.2-0.746-2.638c-0.496-0.44-1.532-0.7-3.111-0.786l-2.872-0.127l-2.726-0.125
			c-4.152-0.255-6.229-2.156-6.229-5.707c0-2.464,0.605-4.105,1.814-4.931c1.207-0.824,3.617-1.235,7.229-1.235
			c3.66,0,6.047,0.383,7.161,1.148C121.693,8.02,122.25,9.666,122.25,12.192z"/>
		<path fill="#1D76BB" d="M152.896,6.327v21.636h-2.763v-17.31V9.354l0.018-0.65l0.018-0.648h-0.072l-0.215,0.506
			c-0.106,0.255-0.179,0.418-0.214,0.493l-0.468,1.012l-8.344,17.896h-2.763l-8.36-17.689l-0.485-0.997l-0.216-0.509
			c-0.059-0.115-0.129-0.28-0.215-0.491h-0.072l0.019,0.587l0.019,0.602v1.188v17.31h-2.765V6.327h4.792l6.529,13.995l1.041,2.268
			l0.521,1.125l0.502,1.127h0.071l0.503-1.127c0.253-0.539,0.419-0.914,0.502-1.125l1.059-2.251l6.496-14.012H152.896z"/>
		<path fill="#1D76BB" d="M160.307,6.327v21.636h-2.764V6.327H160.307z"/>
		<path fill="#1D76BB" d="M167.789,6.327v19.37h12.595v2.266h-15.357V6.327H167.789z"/>
		<path fill="#1D76BB" d="M184.618,8.389v7.369h12.434v2.059h-12.434v8.085h12.973v2.061h-15.735V6.327h15.735v2.062H184.618z"/>
	</g>
	<g>
		<path fill="#6C757D" d="M46.363,38.365h1.406v0.361c0,1.283-0.292,2.09-0.874,2.41s-2.044,0.48-4.39,0.48
			c-2.099,0-3.435-0.281-4.002-0.848c-0.57-0.566-0.854-1.895-0.854-3.986c0-1.639,0.062-2.668,0.19-3.09
			c0.13-0.422,0.497-0.801,1.104-1.131c0.709-0.387,2.243-0.58,4.6-0.58c1.599,0,2.674,0.186,3.228,0.559
			c0.556,0.373,0.833,1.096,0.833,2.166l0.008,0.256h-1.404l-0.009-0.289c0-0.764-0.165-1.252-0.493-1.469
			c-0.327-0.217-1.065-0.324-2.217-0.324c-2.02,0-3.254,0.125-3.701,0.379s-0.669,0.957-0.669,2.109c0,2.652,0.15,4.207,0.447,4.662
			c0.303,0.457,1.328,0.686,3.081,0.686c1.664,0,2.703-0.098,3.114-0.297c0.415-0.199,0.621-0.697,0.621-1.494L46.363,38.365z"/>
		<path fill="#6C757D" d="M54.913,32.175v9.441h-1.287v-9.441H54.913z"/>
		<path fill="#6C757D" d="M63.918,32.271l0.66,0.678l-2.708,1.252l-0.439-0.514L63.918,32.271z M63.027,35.003v6.613h-1.286v-6.613
			H63.027z"/>
		<path fill="#6C757D" d="M69.787,35.003h1.239L70.989,35.9l0.037,0.021c0.393-0.678,1.367-1.018,2.922-1.018
			c1.256,0,2.104,0.17,2.549,0.502c0.443,0.328,0.666,0.967,0.666,1.906v4.305h-1.287v-4.221v-0.248
			c0-0.568-0.144-0.949-0.431-1.146c-0.287-0.195-0.841-0.293-1.663-0.293c-1.807,0-2.709,0.643-2.709,1.928v3.98h-1.286V35.003z"/>
		<path fill="#6C757D" d="M85.26,32.175v1.084h-1.283v-1.084H85.26z M85.26,35.003v6.613h-1.283v-6.613H85.26z"/>
		<path fill="#6C757D" d="M98.155,39.132h1.286l0.009,0.361c0,1.414-1.23,2.123-3.691,2.123c-1.58,0-2.624-0.227-3.131-0.67
			c-0.509-0.449-0.764-1.371-0.764-2.77c0-1.309,0.26-2.197,0.777-2.666c0.517-0.469,1.5-0.703,2.951-0.703
			c1.428,0,2.402,0.16,2.922,0.477c0.521,0.314,0.779,0.906,0.779,1.779h-1.285v-0.172c0-0.514-0.168-0.855-0.506-1.025
			c-0.335-0.17-1.007-0.254-2.01-0.254c-0.967,0-1.59,0.16-1.864,0.482c-0.276,0.322-0.413,1.049-0.413,2.172
			c0,1.096,0.158,1.799,0.471,2.098c0.316,0.299,1.053,0.451,2.209,0.451c0.981,0,1.602-0.1,1.865-0.297
			C98.024,40.324,98.155,39.861,98.155,39.132z"/>
		<path fill="#6C757D" d="M107.19,36.759h-1.275c0-0.77,0.231-1.287,0.693-1.551c0.463-0.268,1.367-0.4,2.713-0.4
			c1.465,0,2.454,0.164,2.969,0.488c0.513,0.326,0.769,0.943,0.769,1.857v4.365h-1.283l0.101-0.713l-0.027-0.006
			c-0.491,0.545-1.486,0.816-2.986,0.816c-2.216,0-3.324-0.67-3.324-2.012c0-0.801,0.25-1.354,0.744-1.654
			c0.498-0.307,1.393-0.457,2.691-0.457c1.541,0,2.469,0.227,2.775,0.684l0.026-0.006v-0.803c0-0.758-0.14-1.244-0.415-1.471
			c-0.275-0.225-0.876-0.336-1.809-0.336c-1.58,0-2.369,0.336-2.369,1.006C107.182,36.599,107.184,36.662,107.19,36.759z
			 M109.258,38.246c-0.986,0-1.627,0.078-1.926,0.236c-0.296,0.156-0.444,0.494-0.444,1.012c0,0.535,0.147,0.889,0.44,1.059
			c0.294,0.176,0.891,0.264,1.789,0.264c1.814,0,2.72-0.418,2.72-1.246c0-0.523-0.176-0.873-0.527-1.053
			C110.959,38.337,110.274,38.246,109.258,38.246z"/>
		<path fill="#6C757D" d="M136.864,32.078v9.441h-1.285l0.064-0.857l-0.037-0.006c-0.404,0.641-1.344,0.961-2.818,0.961
			c-1.348,0-2.268-0.248-2.76-0.74c-0.493-0.494-0.74-1.414-0.74-2.762c0-1.238,0.248-2.1,0.742-2.582
			c0.499-0.484,1.387-0.725,2.666-0.725c1.6,0,2.549,0.312,2.856,0.936l0.026-0.014v-3.652H136.864z M132.999,35.613
			c-0.949,0-1.58,0.164-1.892,0.494s-0.468,0.996-0.468,2.002c0,1.107,0.154,1.836,0.463,2.182c0.311,0.35,0.95,0.525,1.924,0.525
			c1.059,0,1.748-0.176,2.066-0.525c0.316-0.346,0.478-1.104,0.478-2.271c0-0.945-0.177-1.582-0.528-1.912
			S134.01,35.613,132.999,35.613z"/>
		<path fill="#6C757D" d="M149.4,39.521h1.312l0.01,0.24c0,0.688-0.276,1.168-0.83,1.443c-0.555,0.273-1.527,0.412-2.917,0.412
			c-1.616,0-2.677-0.225-3.181-0.668c-0.506-0.445-0.76-1.379-0.76-2.807c0-1.318,0.254-2.203,0.766-2.654
			c0.505-0.453,1.5-0.68,2.98-0.68c1.617,0,2.678,0.197,3.18,0.59s0.752,1.217,0.752,2.475v0.52h-6.317
			c0,1.043,0.149,1.705,0.446,1.992c0.296,0.287,0.99,0.432,2.078,0.432c1.035,0,1.707-0.072,2.016-0.207
			c0.31-0.135,0.466-0.428,0.466-0.883V39.521z M149.4,37.638l-0.01-0.311c0-0.717-0.156-1.18-0.47-1.395
			c-0.312-0.215-0.984-0.32-2.02-0.32c-1.041,0-1.715,0.125-2.024,0.377c-0.31,0.25-0.466,0.801-0.466,1.648H149.4z"/>
		<path fill="#6C757D" d="M157.543,35.003h1.24l-0.037,0.896l0.037,0.021c0.391-0.678,1.365-1.018,2.919-1.018
			c1.255,0,2.106,0.17,2.55,0.502c0.443,0.328,0.666,0.967,0.666,1.906v4.305h-1.287v-4.221v-0.248c0-0.568-0.143-0.949-0.43-1.146
			c-0.289-0.195-0.841-0.293-1.662-0.293c-1.807,0-2.711,0.643-2.711,1.928v3.98h-1.285V35.003z"/>
		<path fill="#6C757D" d="M176.432,34.908v0.801h-3.381v4.049c0,0.703,0.416,1.059,1.25,1.059c0.826,0,1.24-0.318,1.24-0.949
			l0.008-0.326l0.019-0.367h1.194l0.008,0.492c0,1.301-0.819,1.951-2.459,1.951c-1.697,0-2.544-0.543-2.544-1.627v-0.232v-4.049
			h-1.214v-0.801h1.214v-1.592h1.284v1.592H176.432z"/>
		<path fill="#6C757D" d="M183.854,36.759h-1.277c0-0.77,0.231-1.287,0.693-1.551c0.463-0.268,1.365-0.4,2.715-0.4
			c1.464,0,2.451,0.164,2.967,0.488c0.514,0.326,0.771,0.943,0.771,1.857v4.365h-1.287l0.104-0.713L188.51,40.8
			c-0.49,0.545-1.485,0.816-2.985,0.816c-2.216,0-3.323-0.67-3.323-2.012c0-0.801,0.247-1.354,0.742-1.654
			c0.496-0.307,1.393-0.457,2.691-0.457c1.543,0,2.469,0.227,2.773,0.684l0.027-0.006v-0.803c0-0.758-0.137-1.244-0.412-1.471
			c-0.276-0.225-0.88-0.336-1.809-0.336c-1.58,0-2.37,0.336-2.37,1.006C183.845,36.599,183.847,36.662,183.854,36.759z
			 M185.92,38.246c-0.986,0-1.627,0.078-1.924,0.236c-0.299,0.156-0.446,0.494-0.446,1.012c0,0.535,0.147,0.889,0.44,1.059
			c0.296,0.176,0.892,0.264,1.792,0.264c1.812,0,2.719-0.418,2.719-1.246c0-0.523-0.177-0.873-0.527-1.053
			C187.622,38.337,186.936,38.246,185.92,38.246z"/>
		<path fill="#6C757D" d="M198.234,32.175v9.441h-1.286v-9.441H198.234z"/>
	</g>
</g>
</svg>
