<?xml version="1.0" encoding="utf-8"?>
<!-- Generator: Adobe Illustrator 16.0.0, SVG Export Plug-In . SVG Version: 6.00 Build 0)  -->
<!DOCTYPE svg PUBLIC "-//W3C//DTD SVG 1.1//EN" "http://www.w3.org/Graphics/SVG/1.1/DTD/svg11.dtd">
<svg version="1.1" id="Layer_1" xmlns="http://www.w3.org/2000/svg" xmlns:xlink="http://www.w3.org/1999/xlink" x="0px" y="0px"
	 width="52px" height="52px" viewBox="0 0 52 52" enable-background="new 0 0 52 52" xml:space="preserve">
<path fill="#333D46" d="M51.379,9.343c-0.005-0.04-0.005-0.079-0.012-0.119c-0.034-0.194-0.096-0.378-0.176-0.551
	c-0.008-0.013-0.008-0.027-0.014-0.039c-0.013-0.026-0.033-0.045-0.047-0.069c-0.074-0.143-0.164-0.275-0.268-0.398
	c-0.028-0.035-0.055-0.073-0.086-0.104c-0.129-0.136-0.271-0.259-0.43-0.361c-0.031-0.021-0.062-0.033-0.096-0.05
	c-0.136-0.081-0.279-0.145-0.432-0.195c-0.049-0.015-0.096-0.032-0.144-0.044c-0.188-0.05-0.379-0.083-0.579-0.083H2.902
	c-0.206,0-0.401,0.034-0.592,0.085C2.263,7.428,2.216,7.442,2.169,7.458C2.005,7.513,1.851,7.584,1.706,7.671
	c-0.022,0.014-0.049,0.023-0.07,0.038c-0.16,0.106-0.302,0.233-0.432,0.374C1.171,8.121,1.141,8.16,1.109,8.2
	C1.004,8.332,0.91,8.474,0.835,8.627C0.824,8.648,0.807,8.665,0.797,8.686C0.794,8.694,0.794,8.701,0.79,8.709
	C0.712,8.886,0.662,9.073,0.63,9.27C0.622,9.321,0.619,9.372,0.614,9.424C0.607,9.496,0.592,9.566,0.592,9.639v32.722
	c0,1.272,1.035,2.31,2.311,2.31H49.1c1.273,0,2.31-1.036,2.31-2.31V9.639C51.408,9.538,51.391,9.44,51.379,9.343z M44.316,11.949
	L29.87,30.165c-0.899,0.456-1.851,0.688-2.828,0.688c-1.418,0-2.567-0.483-3.037-0.715L8.009,11.949H44.316z M5.212,40.051v-24.29
	l15.589,17.731c0.145,0.162,0.312,0.307,0.496,0.422c0.25,0.161,2.541,1.561,5.745,1.561c1.938,0,3.791-0.511,5.513-1.513
	c0.248-0.147,0.467-0.336,0.646-0.562l13.59-17.134V40.05L5.212,40.051L5.212,40.051z"/>
</svg>
