<?xml version="1.0" encoding="utf-8"?>
<!-- Generator: Adobe Illustrator 16.0.0, SVG Export Plug-In . SVG Version: 6.00 Build 0)  -->
<!DOCTYPE svg PUBLIC "-//W3C//DTD SVG 1.1//EN" "http://www.w3.org/Graphics/SVG/1.1/DTD/svg11.dtd">
<svg version="1.1" id="Layer_1" xmlns="http://www.w3.org/2000/svg" xmlns:xlink="http://www.w3.org/1999/xlink" x="0px" y="0px"
	 width="52px" height="52px" viewBox="0 0 52 52" enable-background="new 0 0 52 52" xml:space="preserve">
<g>
	<path fill="#FFFFFF" d="M32.424,6.173H18.713c-1.936,0-3.512,1.575-3.512,3.511v3.869c0,1.936,1.576,3.51,3.512,3.51h13.711
		c1.936,0,3.512-1.575,3.512-3.51V9.684C35.936,7.748,34.359,6.173,32.424,6.173z M32.508,12.991c0,1.632-1.326,2.959-2.957,2.959
		h-7.966c-1.631,0-2.957-1.327-2.957-2.959v-0.962c0-1.63,1.326-2.957,2.957-2.957h7.966c1.631,0,2.957,1.327,2.957,2.957V12.991z"
		/>
	<path fill="#FFFFFF" d="M44.665,11.848H6.471c-3.001,0-5.443,2.443-5.443,5.445v23.09c0,3.002,2.442,5.444,5.443,5.444h38.194
		c3.002,0,5.443-2.442,5.443-5.444v-23.09C50.108,14.291,47.667,11.848,44.665,11.848z M34.412,32.13h-5.828v5.829h-6.032V32.13
		h-5.829v-6.031h5.829v-5.828h6.032v5.828h5.828V32.13z"/>
</g>
</svg>
