<?xml version="1.0" encoding="utf-8"?>
<!-- Generator: Adobe Illustrator 16.0.0, SVG Export Plug-In . SVG Version: 6.00 Build 0)  -->
<!DOCTYPE svg PUBLIC "-//W3C//DTD SVG 1.1//EN" "http://www.w3.org/Graphics/SVG/1.1/DTD/svg11.dtd">
<svg version="1.1" id="Layer_1" xmlns="http://www.w3.org/2000/svg" xmlns:xlink="http://www.w3.org/1999/xlink" x="0px" y="0px"
	 width="165px" height="164.727px" viewBox="0 0 165 164.727" enable-background="new 0 0 165 164.727" xml:space="preserve">
<path fill="#333E47" d="M82.951,0.002C37.612-0.298,0.345,36.391,0,81.828c-0.033,46.112,37.193,82.956,82.77,82.897
	c44.201-0.06,80.998-35.307,82.201-80.077C166.228,37.967,128.521,0.302,82.951,0.002z"/>
<path fill="#43B3D8" d="M82.5,27.092c-20.401,0-36.938,16.536-36.938,36.938c0,4.33,1.488,12.267,3.584,15.891L82.5,137.635
	l33.198-57.395c1.904-3.295,3.739-11.88,3.739-16.21C119.437,43.628,102.902,27.092,82.5,27.092z M82.5,89.977
	c-14.292,0-25.948-11.657-25.948-25.948c0-14.294,11.656-25.949,25.948-25.949s25.947,11.655,25.947,25.949
	C108.448,78.32,96.792,89.977,82.5,89.977z"/>
</svg>
