<?xml version="1.0" encoding="utf-8"?>
<!-- Generator: Adobe Illustrator 16.0.0, SVG Export Plug-In . SVG Version: 6.00 Build 0)  -->
<!DOCTYPE svg PUBLIC "-//W3C//DTD SVG 1.1//EN" "http://www.w3.org/Graphics/SVG/1.1/DTD/svg11.dtd">
<svg version="1.1" id="Layer_1" xmlns="http://www.w3.org/2000/svg" xmlns:xlink="http://www.w3.org/1999/xlink" x="0px" y="0px"
	 width="52px" height="52px" viewBox="0 0 52 52" enable-background="new 0 0 52 52" xml:space="preserve">
<path fill="#FFFFFF" d="M42.25,46V3.5h-33V46H3.496v3.938h45.008V46H42.25z M19.345,37h-6.75v-6.75h6.75V37z M19.345,26.719h-6.75
	v-6.75h6.75V26.719z M19.439,16.75h-6.75V10h6.75V16.75z M29.28,37h-6.75v-6.75h6.75V37z M29.28,26.719h-6.75v-6.75h6.75V26.719z
	 M29.375,16.75h-6.75V10h6.75V16.75z M39.405,37h-6.75v-6.75h6.75V37z M39.405,26.719h-6.75v-6.75h6.75V26.719z M39.5,16.75h-6.75
	V10h6.75V16.75z"/>
</svg>
