<?xml version="1.0" encoding="utf-8"?>
<!-- Generator: Adobe Illustrator 16.0.0, SVG Export Plug-In . SVG Version: 6.00 Build 0)  -->
<!DOCTYPE svg PUBLIC "-//W3C//DTD SVG 1.1//EN" "http://www.w3.org/Graphics/SVG/1.1/DTD/svg11.dtd">
<svg version="1.1" id="Layer_1" xmlns="http://www.w3.org/2000/svg" xmlns:xlink="http://www.w3.org/1999/xlink" x="0px" y="0px"
	 width="165.001px" height="164.727px" viewBox="0 0 165.001 164.727" enable-background="new 0 0 165.001 164.727"
	 xml:space="preserve">
<g>
	<path fill="#43B3D8" d="M0.001,82.347c0.261,45.992,37.264,82.671,83.317,82.432c45.814-0.24,83.101-37.813,82.379-84.293
		C165.002,35.727,127.745-0.87,82.264-0.477C36.862-0.083-0.254,37.222,0.001,82.347z"/>
	<path fill="#333E47" d="M82.593-0.479c46.009,0.063,83.068,37.283,82.939,83.439c-0.122,44.108-35.759,81.518-82.214,81.675
		c-46.1,0.156-83.368-37.32-83.087-83.572C0.509,35.431,37.754-0.501,82.593-0.479z M53.856,66.778c0,6.928,0,13.454,0,20.262
		c5.736,0.057,11.351,0.113,17.277,0.174c0.065,17.433,0.128,34.504,0.192,51.775c7.066,0,13.772,0,20.815,0
		c0-1.11,0.001-2.073-0.001-3.037c-0.025-15.048-0.054-30.096-0.069-45.144c-0.001-1.129,0.091-2.258,0.151-3.634
		c5.898,0,11.456,0,17.228,0c0.858-6.799,1.686-13.363,2.569-20.361c-6.831,0-13.259,0-20.014,0c0-2.343-0.006-4.305,0.001-6.267
		c0.007-2.795-0.104-5.594,0.065-8.378c0.302-4.931,2.628-7.3,7.55-7.917c1.068-0.133,2.157-0.138,3.236-0.146
		c2.613-0.02,5.227,0.008,7.839-0.022c0.59-0.006,1.176-0.176,1.929-0.298c-0.054-6.045,0.188-11.935-0.27-17.96
		c-4.07-0.245-7.837-0.621-11.607-0.648c-3.41-0.023-6.889-0.019-10.219,0.604c-8.494,1.589-14.55,6.344-17.557,14.653
		c-1.336,3.69-1.895,7.499-1.91,11.396c-0.016,4.055,0.032,8.112,0.026,12.166c0,0.861-0.112,1.724-0.186,2.78
		C65.166,66.778,59.692,66.778,53.856,66.778z"/>
</g>
</svg>
