<?xml version="1.0" encoding="utf-8"?>
<!-- Generator: Adobe Illustrator 16.0.0, SVG Export Plug-In . SVG Version: 6.00 Build 0)  -->
<!DOCTYPE svg PUBLIC "-//W3C//DTD SVG 1.1//EN" "http://www.w3.org/Graphics/SVG/1.1/DTD/svg11.dtd">
<svg version="1.1" id="Layer_1" xmlns="http://www.w3.org/2000/svg" xmlns:xlink="http://www.w3.org/1999/xlink" x="0px" y="0px"
	 width="648.604px" height="1024px" viewBox="0 0 648.604 1024" enable-background="new 0 0 648.604 1024" xml:space="preserve">
<linearGradient id="SVGID_1_" gradientUnits="userSpaceOnUse" x1="3206.293" y1="1218.3086" x2="2660.8813" y2="273.6282" gradientTransform="matrix(0.4984 -0.8669 0.8669 0.4984 -1527.9713 2682.3589)">
	<stop  offset="0" style="stop-color:#263B8C"/>
	<stop  offset="0.5301" style="stop-color:#4E8096"/>
	<stop  offset="1" style="stop-color:#7BC795"/>
</linearGradient>
<path opacity="0.12" fill="url(#SVGID_1_)" d="M258.717,940.752c222.689,128.025,504.188,63.196,650.213-141.9
	c0.543-0.713,0.992-1.613,1.533-2.325c1.244-1.699,2.227-3.583,3.445-5.298c7.562-10.568,14.705-21.611,21.285-33.111
	c6.602-11.482,12.589-23.224,17.888-35.025c0.587-1.252,1.345-2.57,1.96-3.869c0.089-0.214,0.229-0.398,0.264-0.576
	c106.402-230.124,21.262-508.285-202.67-637.024C515.729-54.577,212.248,27.286,76.074,264.207
	C-60.125,501.115,21.836,804.567,258.717,940.752z M805.396,277.167c-168.372-96.798-384.134-38.496-480.941,129.834
	c-96.802,168.438-38.575,384.155,129.771,480.938c31.548,18.137,64.721,30.793,98.475,38.358
	c-35.648-7.432-70.635-20.335-103.87-39.441c-169.217-97.284-227.765-314.115-130.456-483.317
	c97.286-169.28,314.117-227.828,483.368-130.491c33.178,19.041,62.001,42.888,86.326,69.905
	C864.572,317.604,836.917,295.288,805.396,277.167z M888.038,348.294c-22.995-24.664-49.967-46.389-80.717-64.067
	c-165.908-95.381-378.473-37.986-473.869,127.948c-95.382,165.91-38.039,378.509,127.88,473.931
	c30.739,17.639,63.085,30.016,95.983,37.454c-34.766-7.354-68.955-20.029-101.322-38.638
	c-166.682-95.826-224.387-309.463-128.508-476.178c95.854-166.729,309.462-224.384,476.152-128.52
	C836.067,298.835,864.211,322.026,888.038,348.294z M463.104,883.022c-164.243-94.424-221.083-304.848-126.63-469.142
	C430.9,249.636,641.32,192.86,805.577,287.26c31.831,18.333,59.553,41.05,83.007,66.938c-22.65-24.234-49.177-45.637-79.365-63.025
	c-163.464-93.943-372.911-37.368-466.893,126.104C248.279,580.811,304.817,790.203,468.3,884.225
	c30.195,17.325,61.999,29.489,94.302,36.815C528.484,913.765,494.924,901.315,463.104,883.022z M803.477,269.977
	c-170.907-98.255-389.918-39.109-488.172,131.764c-98.24,170.882-39.166,389.902,131.79,488.186
	c41.243,23.711,85.24,38.024,129.719,44.079c-46.34-5.638-92.333-20.504-135.267-45.186
	C269.73,790.076,210.349,569.954,309.104,398.176c98.769-171.8,318.86-231.218,490.673-132.41
	c42.971,24.671,78.908,56.974,107.106,94.221C879.284,324.574,844.742,293.701,803.477,269.977z M470.049,881.129
	c-161.824-93-217.724-300.34-124.714-462.124c93.023-161.807,300.342-217.786,462.134-124.738
	c31.264,17.94,58.455,40.254,81.49,65.603c-22.238-23.799-48.225-44.758-77.906-61.823
	c-161.052-92.557-367.391-36.841-460.025,124.23c-92.599,161.126-36.908,367.452,124.13,460.033
	c29.682,17.064,60.869,28.976,92.612,36.244C534.298,911.417,501.321,899.107,470.049,881.129z M801.549,262.684
	c-173.517-99.756-395.793-39.708-495.505,133.733c-99.742,173.493-39.746,395.72,133.755,495.5
	c41.962,24.124,86.745,38.626,131.978,44.752c-47.146-5.673-93.911-20.751-137.64-45.89
	C259.799,790.551,199.436,567.186,299.693,392.766C399.92,218.43,623.392,158.11,797.73,258.338
	c43.728,25.14,80.289,57.967,108.885,95.906C878.59,318.188,843.462,286.78,801.549,262.684z M476.915,879.254
	c-159.373-91.625-214.493-295.833-122.854-455.231c91.638-159.396,295.835-214.556,455.22-122.892
	c30.589,17.553,57.285,39.35,79.93,64.11c-21.823-23.197-47.324-43.679-76.334-60.356
	c-158.701-91.238-362.051-36.351-453.248,122.338c-91.293,158.738-36.361,362.011,122.289,453.22
	c29.037,16.693,59.557,28.387,90.561,35.559C539.744,908.96,507.516,896.846,476.915,879.254z M799.514,255.295
	c-176.04-101.239-401.64-40.324-502.827,135.742c-101.214,176.054-40.351,401.625,135.689,502.864
	c42.857,24.64,88.686,39.443,134.882,45.562c-48.144-5.717-95.979-20.947-140.627-46.615
	C249.584,791.062,188.39,564.307,290.147,387.278C391.916,210.29,618.68,149.051,795.727,250.836
	c44.646,25.667,81.867,59.304,111.041,98.137C878.253,312.041,842.371,279.934,799.514,255.295z M483.699,877.464
	C326.64,787.17,272.356,585.989,362.638,428.953c90.279-157.034,291.488-211.366,448.474-121.114
	c29.981,17.236,56.128,38.553,78.289,62.771c-21.391-22.684-46.339-42.749-74.738-59.108
	c-156.339-89.88-356.663-35.768-446.557,120.595c-89.943,156.336-35.846,356.685,120.493,446.566
	c28.399,16.359,58.308,27.797,88.673,34.87C545.181,906.527,513.63,894.671,483.699,877.464z M797.484,247.778
	c-178.737-102.757-407.615-40.915-510.356,137.764c-102.716,178.696-40.969,407.619,137.745,510.363
	c43.641,25.056,90.341,40.194,137.393,46.374c-49.071-5.719-97.808-21.168-143.308-47.36
	C239.324,791.646,177.175,561.433,280.477,381.718C383.803,202.02,614.022,139.891,793.679,243.176
	c45.518,26.168,83.406,60.486,113.051,100.053C877.692,305.599,841.188,272.903,797.484,247.778z M490.328,875.652
	C335.665,786.77,282.188,588.566,371.102,433.789c88.975-154.645,287.146-208.176,441.831-119.28
	c29.372,16.853,55.054,37.77,76.873,61.493c-21.071-22.202-45.526-41.917-73.393-57.938
	c-154.027-88.551-351.425-35.27-440.004,118.806C287.88,590.978,341.16,788.375,495.151,876.871
	c27.878,16.061,57.206,27.299,86.947,34.244C550.669,904.227,519.697,892.57,490.328,875.652z M795.408,240.168
	C614.062,135.911,381.7,198.661,277.456,380.015C173.186,561.354,235.93,793.699,417.228,897.928
	c44.446,25.553,92.004,40.984,139.916,47.162c-49.996-5.723-99.588-21.464-145.861-48.102
	c-182.38-104.816-245.47-338.515-140.61-520.938c104.846-182.399,338.523-245.484,520.939-140.612
	c46.273,26.636,84.794,61.582,114.934,101.897C877.047,299.01,839.831,265.707,795.408,240.168z M496.92,873.854
	C344.572,786.234,291.847,590.976,379.454,438.59C467.1,286.257,662.329,233.582,814.655,321.122
	c28.836,16.578,54.085,36.981,75.481,60.23c-20.66-21.768-44.625-41.069-71.97-56.789
	c-151.79-87.265-346.256-34.712-433.505,117.052c-87.294,151.84-34.816,346.263,116.988,433.502
	c27.296,15.692,56.003,26.74,85.265,33.605C556.019,901.943,525.731,890.418,496.92,873.854z M793.354,232.406
	c-184.056-105.814-419.925-42.17-525.74,141.917C161.797,558.414,225.455,794.258,409.51,900.071
	c45.245,26.012,93.675,41.647,142.441,47.953c-50.89-5.836-101.407-21.751-148.59-48.876
	C218.26,792.732,154.258,555.502,260.703,370.32c106.418-185.134,343.673-249.205,528.774-142.789
	c47.183,27.125,86.34,62.801,116.952,103.85C876.444,292.346,838.585,258.442,793.354,232.406z M503.379,872.111
	c-150.1-86.293-202.016-278.642-115.721-428.805c86.294-150.1,278.651-201.979,428.765-115.711
	c28.19,16.207,52.915,36.143,73.907,58.829c-20.253-21.269-43.691-40.102-70.415-55.465
	c-149.526-85.964-341.17-34.236-427.147,115.315c-86.008,149.604-34.251,341.196,115.291,427.135
	c26.723,15.363,54.777,26.167,83.311,32.915C561.213,899.637,531.561,888.278,503.379,872.111z M791.192,224.547
	C604.416,117.136,365.048,181.745,257.658,368.6c-107.402,186.816-42.793,426.185,143.974,533.557
	c46.039,26.469,95.249,42.356,144.862,48.686c-51.765-5.811-103.129-21.979-151.083-49.548
	c-187.908-108.03-252.886-348.831-144.862-536.782c108.057-187.926,348.873-252.959,536.782-144.93
	c47.954,27.568,87.742,63.872,118.874,105.684C875.763,285.538,837.232,251.016,791.192,224.547z M509.772,870.428
	c-147.849-85.031-199.006-274.562-113.999-422.425c85.034-147.911,274.525-199.057,422.412-114.036
	c19.64,11.291,37.416,24.554,53.584,39.173c-15.163-13.38-31.918-25.428-50.139-35.903
	c-147.352-84.746-336.189-33.753-420.898,113.65c-84.721,147.366-33.767,336.149,113.586,420.894
	c18.221,10.477,37.042,18.817,56.309,25.23C549.833,890.381,529.434,881.732,509.772,870.428z M789.046,216.599
	c-189.613-108.977-432.503-43.448-541.52,146.176c-109.018,189.627-43.403,432.515,146.21,541.492
	c46.921,27.009,97.127,43.235,147.713,49.595c-52.758-5.921-105.188-22.303-154.112-50.429
	C196.618,793.787,130.619,549.354,240.279,358.608c109.659-190.743,354.118-256.726,544.862-147.065
	c48.897,28.112,89.474,65.232,121.123,107.87C875.328,278.871,835.992,243.622,789.046,216.599z M516.035,868.735
	C370.386,785,320.004,598.266,403.729,452.576c83.739-145.711,270.474-196.094,416.173-112.331
	c19.33,11.08,36.798,24.132,52.712,38.508c-14.983-13.179-31.39-25.025-49.324-35.369
	c-145.191-83.438-331.249-33.196-414.712,111.98c-83.491,145.228-33.247,331.222,111.966,414.74
	c17.887,10.25,36.405,18.481,55.32,24.824C555.457,888.422,535.392,879.829,516.035,868.735z M786.859,208.496
	C594.436,97.903,347.89,164.472,237.261,356.873c-110.659,192.453-44.065,439.014,148.367,549.645
	c47.744,27.414,98.857,43.967,150.395,50.344c-53.709-5.939-107.091-22.569-156.856-51.18
	C185.511,794.348,118.547,546.25,229.863,352.654c111.346-193.677,359.416-260.626,553.07-149.293
	c49.766,28.61,91.023,66.387,123.142,109.824C874.644,271.896,834.674,236.018,786.859,208.496z M522.274,867.031
	c-143.537-82.52-193.186-266.387-110.665-409.924c82.548-143.585,266.387-193.184,409.922-110.666
	c18.943,10.891,36.084,23.589,51.658,37.637c-14.63-12.81-30.73-24.448-48.266-34.562c-143.04-82.235-326.356-32.732-408.59,110.306
	C334.122,602.877,383.575,786.165,526.616,868.4c17.549,10.089,35.707,18.146,54.152,24.32
	C560.804,886.368,541.181,877.932,522.274,867.031z M784.662,200.353c-195.293-112.275-445.555-44.8-557.844,150.517
	c-112.275,195.294-44.7,445.528,150.642,557.832c48.699,27.997,100.889,44.805,153.475,51.254
	c-54.813-5.91-109.307-22.852-160.133-52.037c-196.536-112.99-264.543-364.83-151.538-561.392
	c112.999-196.529,364.857-264.509,561.394-151.52c50.772,29.223,92.796,67.737,125.513,112.146
	C874.133,264.954,833.385,228.363,784.662,200.353z M528.345,865.394c-141.385-81.316-190.311-262.418-109.02-403.817
	c81.291-141.398,262.482-190.303,403.879-109.014c18.386,10.537,35.147,22.919,50.335,36.545
	c-14.293-12.418-29.948-23.733-47.001-33.537c-140.954-81.035-321.54-32.311-402.55,108.652
	C342.953,605.178,391.69,785.74,532.645,866.775c17.053,9.803,34.694,17.663,52.672,23.73
	C565.874,884.223,546.779,875.958,528.345,865.394z M782.4,191.974C584.188,77.988,330.215,146.571,216.252,344.829
	c-113.974,198.219-45.42,452.159,152.792,566.146c60.372,34.675,125.889,52.232,191.059,54.572
	c-67.389-1.533-135.303-19.408-197.773-55.323C162.827,795.494,93.83,539.911,208.523,340.352
	C323.256,140.784,578.885,71.796,778.387,186.525c62.471,35.915,112.129,85.664,147.362,143.064
	C890.956,274.526,842.807,226.702,782.4,191.974z M534.374,863.766C395.099,783.73,346.887,605.187,426.972,465.939
	c80.062-139.26,258.576-187.421,397.837-107.36c17.912,10.265,34.287,22.226,49.083,35.495
	c-13.976-12.104-29.149-23.109-45.742-32.681c-138.861-79.832-316.815-31.778-396.666,107.173
	c-79.849,138.889-31.857,316.838,107.055,396.699c16.569,9.496,33.715,17.07,51.207,23.059
	C570.808,882.199,552.257,874.081,534.374,863.766z M780.146,183.467C578.921,67.815,321.163,137.431,205.502,338.615
	C89.839,539.802,159.39,797.556,360.597,913.295c61.379,35.287,128.025,53.064,194.276,55.363
	c-68.51-1.48-137.588-19.629-201.128-56.158C151.242,796.08,81.216,536.596,197.623,334.085
	C314.031,131.544,573.547,61.517,776.086,177.991c63.503,36.475,113.908,87.051,149.697,145.499
	C890.461,267.395,841.535,218.793,780.146,183.467z M540.285,862.168C403.089,783.294,355.59,607.48,434.529,470.284
	c78.827-137.224,254.678-184.668,391.898-105.779c17.575,10.104,33.633,21.816,48.236,34.842
	c-13.719-11.922-28.619-22.705-44.929-32.081c-136.825-78.661-312.169-31.29-390.87,105.545
	c-78.672,136.784-31.354,312.165,105.48,390.866c16.299,9.337,33.206,16.808,50.345,22.661
	C576.134,880.299,557.896,872.327,540.285,862.168z M777.844,174.934C573.625,57.527,312.007,128.132,194.614,332.355
	c-117.406,204.219-46.809,465.85,157.41,583.256c62.395,35.871,130.179,53.971,197.561,56.259
	c-69.702-1.475-139.962-19.87-204.546-56.999C139.466,796.717,68.368,533.311,186.561,327.725
	C304.752,122.141,568.157,51.043,773.703,169.246c64.584,37.129,115.86,88.604,152.195,148.059
	C890.016,260.227,840.252,210.779,777.844,174.934z M546.118,860.594c-135.157-77.702-181.899-250.866-104.181-386.051
	c77.703-135.158,250.868-181.896,386.039-104.219c17.09,9.858,32.796,21.203,46.975,33.819
	c-13.357-11.517-27.865-22.007-43.701-31.111c-134.785-77.489-307.519-30.865-385.036,103.969
	c-77.519,134.837-30.895,307.57,103.866,385.044c15.887,9.134,32.227,16.377,48.874,22.113
	C580.906,878.213,563.211,870.387,546.118,860.594z M775.498,166.242c-207.262-119.188-472.82-47.509-591.984,159.766
	c-119.149,207.25-47.508,472.756,159.78,591.958c63.527,36.491,132.555,54.905,201.146,57.164
	c-70.953-1.432-142.535-20.062-208.287-57.862C127.495,797.344,55.347,529.926,175.337,321.272
	C295.316,112.549,562.689,40.358,771.344,160.348c65.752,37.801,117.829,90.298,154.754,150.919
	C889.622,253.087,839.001,202.717,775.498,166.242z M551.82,859.076c-133.146-76.546-179.185-247.188-102.623-380.36
	c76.56-133.169,247.191-179.248,380.338-102.702c16.77,9.608,32.16,20.805,46.07,33.201c-13.087-11.294-27.297-21.613-42.835-30.546
	C699.95,302.31,529.76,348.246,453.372,481.117c-76.39,132.874-30.45,303.063,102.384,379.397
	c15.514,8.918,31.592,16.045,47.889,21.644C585.947,876.35,568.561,868.734,551.82,859.076z M773.059,157.365
	C562.7,36.429,293.215,109.158,172.279,319.515C51.358,529.848,124.115,799.369,334.438,920.251
	c64.745,37.256,135.022,55.962,204.916,58.14c-72.283-1.238-145.197-20.2-212.166-58.701
	C115.375,797.948,42.083,526.534,163.877,314.684C285.684,102.811,557.085,29.628,768.885,151.393
	c66.969,38.5,120.055,92.007,157.512,153.828C889.385,245.906,837.792,194.581,773.059,157.365z M557.512,857.519
	C426.33,782.102,380.988,614.045,456.406,482.861C531.797,351.666,699.871,306.3,831.027,381.702
	c9.248,5.316,17.975,11.193,26.312,17.343c-7.361-5.257-15.014-10.186-23.017-14.787c-130.935-75.275-298.616-30.014-373.89,100.918
	C385.17,616.15,430.419,783.792,561.361,859.105c8.01,4.537,16.13,8.711,24.367,12.387
	C576.18,867.395,566.734,862.82,557.512,857.519z M770.643,148.335C557.167,25.574,283.631,99.448,160.894,312.969
	C38.143,526.484,111.926,800.036,325.415,922.772c65.667,37.719,137.01,56.705,207.903,58.929
	c-73.32-1.336-147.284-20.543-215.226-59.602C103.112,798.506,28.744,523.066,152.352,308.092
	C275.95,93.048,551.426,18.701,766.418,142.334c67.941,39.06,121.777,93.329,159.812,156.043
	C888.652,238.208,836.335,186.069,770.643,148.335z M563.096,856.035c-129.218-74.289-173.894-239.883-99.594-369.062
	c74.262-129.231,239.819-173.961,369.086-99.645c9.014,5.148,17.532,10.873,25.721,16.937c-7.239-5.187-14.717-10.015-22.521-14.501
	c-128.969-74.145-294.247-29.619-368.395,99.413c-74.159,128.995-29.514,294.24,99.471,368.36c7.789,4.512,15.774,8.574,23.85,12.19
	C581.352,865.703,572.133,861.196,563.096,856.035z M768.15,139.262C551.504,14.711,273.847,89.655,149.309,306.278
	C24.714,523.031,99.703,800.582,316.349,925.133c66.972,38.503,139.747,57.818,211.994,59.927
	c-74.755-1.139-150.22-20.608-219.478-60.425C90.601,799.153,15.104,519.525,140.56,301.279
	C266.048,83.055,545.675,7.589,763.939,133.071c69.307,39.844,124.076,95.312,162.739,159.346
	C888.521,230.955,835.133,177.804,768.15,139.262z M568.576,854.556c-127.304-73.188-171.288-236.302-98.101-363.606
	c73.173-127.278,236.304-171.351,363.583-98.178c8.814,5.034,17.158,10.658,25.19,16.533c-7.083-4.999-14.362-9.712-22.019-14.114
	c-127.055-73.044-289.908-29.108-362.951,97.945c-73.021,127.071-29.094,289.886,97.998,362.918
	c7.643,4.427,15.429,8.376,23.252,11.911C586.436,863.993,577.377,859.615,568.576,854.556z M765.684,130.038
	C545.729,3.584,263.976,79.614,137.538,299.542C11.113,519.446,87.181,801.19,307.123,927.666
	c68.188,39.202,142.315,58.865,215.869,60.834c-76.123-1.064-153.001-20.721-223.603-61.31
	C77.92,799.866,1.271,515.972,128.637,294.458C256.006,72.85,539.911-3.729,761.381,123.595
	c70.602,40.589,126.285,97.111,165.519,162.4C888.14,223.394,833.871,169.24,765.684,130.038z M573.993,853.07
	c-125.365-72.072-168.773-232.736-96.68-358.19c72.061-125.403,232.814-168.792,358.202-96.707
	c8.487,4.913,16.502,10.248,24.215,15.873c-6.772-4.786-13.738-9.354-21.047-13.555c-125.191-71.973-285.66-28.618-357.618,96.546
	C409.04,622.267,452.385,782.693,577.6,854.68c7.285,4.188,14.75,7.887,22.295,11.33C591.099,862.21,582.446,857.93,573.993,853.07z
	 M763.136,120.602C539.975-7.694,253.932,69.441,125.594,292.675C-2.733,515.919,74.5,801.903,297.66,930.199
	c69.309,39.846,144.714,59.878,219.526,61.842c-77.407-1.074-155.555-20.996-227.325-62.258
	C65.012,800.516-12.74,512.381,116.545,287.442C245.84,62.573,533.989-15.204,758.827,114.057
	c71.744,41.246,128.346,98.758,168.187,165.124C887.646,215.502,832.433,160.408,763.136,120.602z M579.319,851.635
	c-123.501-71.002-166.25-229.301-95.257-352.905c71.052-123.472,229.377-166.207,352.877-95.205
	c8.104,4.658,15.838,9.733,23.241,15.147c-6.44-4.562-13.108-8.958-20.068-12.959c-123.351-70.915-281.471-28.194-352.385,95.155
	c-70.944,123.402-28.272,281.494,95.104,352.424c6.935,3.986,14.04,7.51,21.224,10.779
	C595.688,860.385,587.422,856.293,579.319,851.635z M760.542,111.074C534.027-19.151,243.727,59.175,113.487,285.715
	C-16.781,512.307,61.633,802.51,288.161,932.742c70.487,40.557,147.134,60.906,223.22,62.84
	c-78.697-1.021-158.186-21.316-231.136-63.223C51.979,801.094-26.974,508.632,104.239,280.398
	C235.464,52.143,527.92-26.796,756.215,104.451c72.91,41.917,130.434,100.422,170.938,167.93
	C887.156,207.613,831.033,151.566,760.542,111.074z M918.089,778.319c-75.196,104.616-219.396,137.511-333.524,71.897
	c-121.66-69.943-163.79-225.868-93.803-347.605c69.971-121.709,225.933-163.786,347.593-93.842
	c114.103,65.598,158.259,206.781,105.648,324.415c-3.502,7.876-7.421,15.612-11.794,23.218
	C927.822,764.034,923.082,771.301,918.089,778.319z M757.998,101.408C528-30.818,233.39,48.734,101.205,278.688
	c-132.188,229.953-52.691,524.55,177.268,656.755c71.734,41.205,149.726,61.8,227.1,63.679
	c-80.051-0.905-160.924-21.436-235.153-64.11C38.706,801.799-41.425,504.919,91.761,273.224
	C224.943,41.563,521.851-38.621,753.576,94.6c74.189,42.685,132.625,102.244,173.68,170.928
	C886.712,199.584,829.654,142.571,757.998,101.408z M750.92,84.605c88.301,50.765,154.861,125.017,196.487,210.303
	c-41.426-82.359-106.339-154.01-192.116-203.291C521.902-42.593,222.91,38.079,88.727,271.48
	C-45.459,504.883,35.285,803.866,268.69,938.019c85.763,49.306,180.382,69.403,272.413,63.739
	c-94.69,6.949-192.357-13.248-280.658-64.013C25.203,802.504-56.122,501.168,79.132,265.964
	C214.33,30.798,515.715-50.583,750.92,84.605z"/>
</svg>
