<?xml version="1.0" encoding="utf-8"?>
<!-- Generator: Adobe Illustrator 16.0.0, SVG Export Plug-In . SVG Version: 6.00 Build 0)  -->
<!DOCTYPE svg PUBLIC "-//W3C//DTD SVG 1.1//EN" "http://www.w3.org/Graphics/SVG/1.1/DTD/svg11.dtd">
<svg version="1.1" id="Layer_1" xmlns="http://www.w3.org/2000/svg" xmlns:xlink="http://www.w3.org/1999/xlink" x="0px" y="0px"
	 width="1541.837px" height="1002.45px" viewBox="0 0 1541.837 1002.45" enable-background="new 0 0 1541.837 1002.45"
	 xml:space="preserve">
<linearGradient id="SVGID_1_" gradientUnits="userSpaceOnUse" x1="-1508.7295" y1="5756.394" x2="-2341.1248" y2="4314.6436" gradientTransform="matrix(-0.4609 0.8875 -0.8875 -0.4609 4238.6611 4806.8867)">
	<stop  offset="0" style="stop-color:#263B8C"/>
	<stop  offset="0.5301" style="stop-color:#4E8096"/>
	<stop  offset="1" style="stop-color:#7BC795"/>
</linearGradient>
<path opacity="0.14" fill="url(#SVGID_1_)" d="M363.41,135.977C33.39,347.528-76.803,774.371,98.26,1116.395
	c0.585,1.237,1.488,2.479,2.071,3.713c1.426,2.881,3.288,5.536,4.751,8.392c8.994,17.676,18.928,35.116,29.873,52.116
	c10.909,17.018,22.599,33.386,34.856,48.862c1.281,1.675,2.534,3.629,3.861,5.376c0.227,0.271,0.377,0.589,0.595,0.763
	c236.828,305.965,673.438,386.301,1005.299,173.57c351.088-225.057,453.674-693.652,228.581-1044.717
	C1183.088,13.376,714.461-89.055,363.41,135.977z M877.623,1343.105c249.523-159.949,322.319-493.173,162.434-742.68
	C880.019,350.851,546.909,277.983,297.424,437.909c-46.752,29.97-87.227,65.995-121.213,106.39
	c35.139-43.055,77.222-81.363,126.476-112.936c250.775-160.753,585.62-87.537,746.334,163.262
	c160.836,250.822,87.621,585.666-163.25,746.428c-49.124,31.543-101.694,53.806-155.393,67.748
	C781.235,1394.808,830.909,1373.05,877.623,1343.105z M723.164,1405.004c49.578-13.796,97.97-35.045,143.542-64.257
	c245.871-157.609,317.646-485.865,160.014-731.773C869.108,363.099,540.843,291.229,294.91,448.825
	c-45.51,29.226-85.023,64.327-118.236,103.65c34.412-41.912,75.626-79.302,123.593-110.05
	c247.018-158.344,576.944-86.233,735.296,160.88c158.39,247.089,86.231,576.939-160.844,735.269
	C826.703,1369.405,775.499,1391.208,723.164,1405.004z M297.838,453.393c243.404-156.028,568.369-85.007,724.445,158.473
	c156.029,243.407,84.923,568.322-158.457,724.387c-47.218,30.216-97.483,51.781-149.04,65.339
	c48.752-13.631,96.396-34.504,141.181-63.16c242.203-155.31,312.898-478.766,157.603-721.027
	c-155.333-242.396-478.69-313.102-721.013-157.82c-44.702,28.709-83.546,63.227-116.188,101.822
	C210.217,520.317,250.682,483.621,297.838,453.393z M888.71,1345.562c253.279-162.357,327.218-500.575,164.903-753.828
	C891.279,338.492,553.1,264.45,299.748,426.854c-61.122,39.181-111.453,88.7-150.938,144.68
	c40.229-58.794,92.712-110.63,156.339-151.415c254.58-163.246,594.468-88.846,757.654,165.725
	c163.207,254.604,88.877,594.476-165.788,757.67c-63.638,40.846-132.665,66.797-202.943,78.789
	C761.447,1409.832,827.554,1384.765,888.71,1345.562z M295.519,464.13c239.773-153.754,559.899-83.628,713.591,156.132
	c153.713,239.794,83.711,559.946-156.106,713.623c-46.287,29.724-95.633,50.855-146.166,64.224
	c47.875-13.38,94.538-33.832,138.525-62.028c238.631-153.021,308.303-471.661,155.312-710.411
	c-153.091-238.74-471.696-308.436-710.351-155.452c-43.987,28.196-82.055,62.058-114.226,99.936
	C209.307,529.842,249.173,493.838,295.519,464.13z M899.943,1348.082c257.146-164.837,332.16-508.109,167.396-765.145
	C902.523,325.824,559.354,250.775,302.183,415.574c-62.186,39.863-113.324,90.314-153.437,147.266
	c40.843-59.862,94.157-112.593,158.961-154.133c258.365-165.619,603.335-90.267,769.043,168.196
	c165.615,258.361,90.129,603.446-168.237,769.063c-64.803,41.541-134.978,67.969-206.474,80.013
	C770.584,1413.383,837.83,1387.898,899.943,1348.082z M293.228,474.748c236.188-151.401,551.523-82.421,702.949,153.805
	c151.424,236.22,82.505,551.571-153.743,702.96c-45.288,29.083-93.585,49.907-143.047,63.161
	c46.766-13.242,92.442-33.373,135.433-60.932c235.191-150.763,303.883-464.773,153.107-699.901
	C837.154,398.55,523.214,329.972,288.099,480.687c-43.033,27.585-80.336,60.695-111.855,97.639
	C208.804,538.947,247.879,503.818,293.228,474.748z M911.38,1350.523c260.932-167.213,337.108-515.597,169.825-776.476
	C913.958,313.139,565.649,236.914,304.717,404.125c-63.513,40.713-115.797,92.368-156.576,150.63
	c41.605-61.182,95.878-115.256,162.043-157.669c262.379-168.191,612.526-91.58,780.712,170.749
	c168.124,262.315,91.565,612.505-170.813,780.696c-66.166,42.413-137.9,69.164-211.012,81.361
	C779.147,1417.25,847.867,1391.236,911.38,1350.523z M290.881,485.195c232.758-149.203,543.405-81.22,692.587,151.504
	c149.18,232.721,81.242,543.441-151.406,692.574c-44.432,28.482-91.691,48.9-140.078,61.881
	c45.766-13.016,90.489-32.692,132.621-59.648c231.69-148.519,299.302-457.887,150.76-689.612
	C826.894,410.12,517.503,342.468,285.812,490.988c-42.132,26.955-78.658,59.417-109.595,95.567
	C208.276,548.02,246.524,513.628,290.881,485.195z M922.988,1353.062c264.885-169.797,342.113-523.275,172.384-788.096
	C925.601,300.166,572.131,222.779,307.28,392.554c-64.628,41.481-117.979,94.081-159.442,153.458
	c42.259-62.437,97.462-117.576,164.938-160.776c266.212-170.648,621.715-92.897,792.452,173.412
	c170.698,266.331,92.916,621.826-173.331,792.496c-67.455,43.24-140.583,70.418-215.021,82.736
	C788.265,1421.021,858.222,1394.578,922.988,1353.062z M288.671,495.447c229.162-146.951,535.211-79.969,682.294,149.314
	c146.862,229.271,79.978,535.315-149.218,682.287c-43.485,27.926-89.876,47.996-137.353,60.861
	c44.89-12.922,88.792-32.176,130.089-58.648c228.265-146.323,294.944-451.144,148.575-679.479
	C816.612,421.49,511.793,354.81,283.628,501.123c-41.359,26.459-77.209,58.275-107.533,93.671
	C207.532,557.072,245.101,523.323,288.671,495.447z M934.756,1355.601c268.751-172.275,347.198-531.107,174.903-799.848
	C937.403,286.991,578.598,208.546,309.918,380.777C244.051,423,189.7,476.554,147.634,537.099
	c42.916-63.688,99.115-119.779,167.738-163.715c270.236-173.281,631.118-94.354,804.429,175.971
	c173.287,270.288,94.367,631.139-175.969,804.431c-68.622,43.937-143.044,71.527-218.843,83.991
	C797.643,1424.783,868.923,1397.802,934.756,1355.601z M286.471,505.64c225.822-144.704,527.354-78.776,672.117,147.056
	C1103.254,878.542,1037.279,1180,811.58,1324.73c-42.734,27.394-88.126,47.238-134.664,59.865
	c44.012-12.672,87.009-31.553,127.533-57.529c224.949-144.198,290.553-444.534,146.38-669.444
	C806.583,432.597,506.358,366.922,281.433,511.158c-40.452,25.931-75.605,57.039-105.485,91.842
	C206.86,565.922,243.774,533.009,286.471,505.64z M946.714,1358.281c272.765-174.85,352.469-539.062,177.576-811.853
	C949.397,273.634,585.209,193.967,312.444,368.816c-67.052,42.982-122.291,97.574-165.132,159.187
	c43.698-64.817,100.785-122.042,170.708-166.864c274.315-175.842,640.623-95.666,816.555,178.746
	c175.886,274.341,95.784,640.732-178.531,816.574c-69.923,44.822-145.782,72.762-222.907,85.349
	C807.092,1428.653,879.638,1401.226,946.714,1358.281z M284.289,515.613c222.444-142.592,519.465-77.614,662.14,144.877
	c142.593,222.445,77.559,519.453-144.861,662.081c-41.776,26.78-86.167,46.243-131.657,58.718
	c43.05-12.471,85.042-30.967,124.646-56.354c221.596-142.049,286.332-437.982,144.262-659.613
	C796.697,443.613,500.81,378.953,279.239,521.038c-39.604,25.387-73.968,55.782-103.176,89.681
	C206.332,574.581,242.571,542.409,284.289,515.613z M958.876,1360.88c276.844-177.412,357.701-547.042,180.169-823.91
	C961.573,260.112,591.943,179.255,315.161,356.679c-68.229,43.736-124.358,99.208-167.826,161.951
	c44.279-66.02,102.304-124.213,173.37-169.768c278.477-178.511,650.307-97.143,828.877,181.354
	c178.515,278.525,97.212,650.416-181.264,828.926c-71.066,45.555-148.22,73.908-226.744,86.664
	C816.792,1432.519,890.648,1404.617,958.876,1360.88z M282.071,525.455c219.152-140.428,511.825-76.405,652.291,142.723
	c140.513,219.199,76.503,511.809-142.663,652.299c-29.105,18.657-59.571,33.404-90.742,45.018
	c28.786-11.123,56.887-25.342,83.891-42.652c218.416-139.957,282.174-431.574,142.119-649.977
	C786.972,454.472,495.455,390.7,277.041,530.66c-27.003,17.311-51.539,36.934-73.775,58.518
	C226.871,565.678,252.933,544.133,282.071,525.455z M971.151,1363.563c280.958-180.153,363.048-555.198,182.909-836.217
	C973.917,246.323,598.814,164.349,317.856,344.503c-69.581,44.549-126.871,101.133-171.063,165.17
	c45.127-67.287,104.191-126.774,176.694-173.251c282.641-181.18,660.108-98.641,841.313,184.039
	c181.201,282.676,98.624,660.166-184.055,841.37c-72.467,46.451-151.279,75.297-231.286,88.172
	C826.127,1436.619,901.533,1408.138,971.151,1363.563z M279.958,535.128c215.85-138.364,504.188-75.258,642.615,140.605
	c138.444,215.9,75.339,504.239-140.583,642.65c-28.602,18.386-58.565,32.863-89.229,44.307
	c28.388-11.024,55.972-24.912,82.595-41.926c215.125-137.953,277.945-425.277,140.03-640.424
	C777.423,465.118,490.183,402.345,274.935,540.27c-26.462,17.017-50.636,36.308-72.529,57.463
	C225.568,574.672,251.319,553.541,279.958,535.128z M983.664,1366.302c285.123-182.823,368.376-563.553,185.61-848.709
	C986.458,232.359,605.691,149.13,320.511,331.938c-70.71,45.38-129.078,102.963-173.964,168.275
	c45.821-68.562,105.891-129.163,179.642-176.439C613.18,139.806,996.29,223.615,1180.19,510.542
	c183.989,287.024,100.182,670.085-186.81,854.053c-73.752,47.277-153.934,76.584-235.353,89.531
	C836.056,1440.598,912.759,1411.701,983.664,1366.302z M277.877,544.777c212.718-136.357,496.659-74.274,633.017,138.444
	c136.402,212.79,74.272,496.657-138.442,633.012c-28.075,17.997-57.328,32.278-87.308,43.491
	c27.639-10.804,54.724-24.424,80.755-41.059c211.983-135.886,273.875-418.977,137.993-630.956
	c-135.92-211.961-418.938-273.901-630.921-138.015c-26.008,16.671-49.692,35.596-71.028,56.234
	C224.589,583.359,249.818,562.715,277.877,544.777z M996.238,1369.052c289.42-185.525,374.059-571.924,188.511-861.379
	C999.223,218.253,612.792,133.769,323.299,319.34c-72.171,46.264-131.643,105.123-177.364,171.808
	c46.558-70.079,107.831-131.967,183.109-180.275c291.261-186.705,680.172-101.676,866.902,189.623
	c186.689,291.27,101.61,680.188-189.651,866.893c-75.288,48.209-157.007,78.034-240.164,91.109
	C845.816,1444.79,924.033,1415.337,996.238,1369.052z M275.827,554.15C485.4,419.861,765.086,480.978,899.412,690.528
	c134.326,209.548,73.119,489.341-136.427,623.665c-27.202,17.49-55.762,31.482-84.899,42.468
	c26.872-10.624,53.208-23.868,78.479-40.067c208.89-133.904,269.917-412.75,135.983-621.612
	c-133.903-208.89-412.728-269.883-621.617-135.979c-25.271,16.2-48.325,34.565-69.188,54.646
	C223.928,591.734,248.553,571.686,275.827,554.15z M1009.175,1371.882c293.791-188.273,379.541-580.479,191.187-874.271
	C1012.07,203.833,619.93,118.069,326.139,306.342c-89.425,57.377-159.284,133.759-208.292,220.375
	c49.475-90.188,121.452-169.595,214.033-228.94c295.703-189.5,690.38-103.18,879.982,192.517
	c189.584,295.755,103.22,690.486-192.482,879.987c-92.581,59.346-194.885,91.607-297.406,98.953
	C821.019,1460.841,919.656,1429.267,1009.175,1371.882z M273.79,563.46c206.357-132.332,482.076-72.048,614.337,134.355
	c132.294,206.379,71.962,482.024-134.419,614.319c-26.5,17.04-54.217,30.804-82.595,41.51
	c26.223-10.415,51.799-23.225,76.435-38.964c205.788-131.916,265.873-406.727,133.848-612.604
	C749.453,496.248,474.694,436.082,268.83,568.045c-24.514,15.762-46.832,33.655-67.245,53.134
	C223.2,599.839,247.241,580.425,273.79,563.46z M1022.285,1374.812c298.163-191.184,385.175-589.24,194.055-887.389
	c-191.123-298.154-589.13-385.251-887.402-194.153c-90.962,58.309-161.914,136.067-211.625,224.178
	c50.192-91.745,123.357-172.535,217.522-232.897c300.104-192.373,700.789-104.704,893.181,195.389
	c192.433,300.114,104.744,700.841-195.46,893.227c-94.065,60.35-198.015,93.042-302.346,100.404
	C831.027,1465.185,931.261,1433.107,1022.285,1374.812z M271.796,572.589c203.321-130.334,474.841-71.003,605.13,132.406
	c130.405,203.275,70.976,474.807-132.383,605.165c-26.045,16.696-53.201,30.205-81.115,40.821
	c25.795-10.193,50.88-22.791,75.05-38.285c202.771-129.98,261.943-400.775,131.977-603.606
	C740.536,506.333,469.729,447.061,266.897,577.029c-24.108,15.507-46.118,33.15-66.101,52.246
	C222.026,608.389,245.651,589.295,271.796,572.589z M1035.46,1377.697c302.646-194.004,391.035-597.984,197.014-900.616
	C1038.47,174.433,634.477,86.027,331.83,280.031c-92.467,59.273-164.657,138.347-215.149,227.996
	c51.022-93.363,125.354-175.582,221.065-236.936c304.613-195.312,711.362-106.335,906.665,198.338
	c195.301,304.67,106.323,711.42-198.335,906.66c-95.711,61.354-201.491,94.596-307.57,101.986
	C841.047,1469.625,943.017,1437.007,1035.46,1377.697z M269.826,581.597c200.299-128.396,467.699-69.906,596.123,130.436
	c128.396,200.301,69.9,467.699-130.375,596.133c-25.371,16.211-51.783,29.504-78.843,39.833
	c24.993-9.991,49.405-22.261,72.873-37.306c199.75-128.043,258.097-394.776,130.007-594.598
	C731.519,516.271,464.785,457.922,265.074,585.942c-23.544,15.092-44.847,32.128-64.326,50.64
	C221.495,616.32,244.541,597.859,269.826,581.597z M1048.881,1380.632c307.201-196.871,396.905-606.945,199.998-914.121
	C1051.996,159.371,642.019,69.653,334.782,266.55c-94.105,60.372-167.595,140.906-218.897,232.214
	c51.844-95.087,127.422-178.931,224.865-241.394c309.18-198.244,722.1-107.869,920.293,201.396
	c198.295,309.3,108.008,722.191-201.258,920.385c-97.442,62.463-205.171,96.07-313.243,103.44
	C850.993,1474.113,954.816,1440.983,1048.881,1380.632z M267.87,590.387c197.32-126.486,460.809-68.815,587.319,128.542
	c126.508,197.354,68.9,460.857-128.419,587.344c-24.807,15.953-50.797,28.924-77.369,39.043c24.5-9.78,48.471-21.767,71.498-36.527
	c196.837-126.178,254.328-388.982,128.104-585.894C722.774,525.98,459.969,468.494,263.156,594.708
	c-22.989,14.737-43.951,31.5-62.996,49.633C220.474,624.458,243.016,606.266,267.87,590.387z M1062.62,1383.574
	c311.746-199.838,402.79-615.968,202.954-927.711c-199.812-311.709-616.011-402.74-927.657-202.914
	c-95.996,61.482-170.761,143.506-222.871,236.635c52.518-97.026,129.484-182.44,228.73-246.06
	c313.859-201.239,732.997-109.601,934.25,204.356c201.275,313.99,109.499,733.035-204.384,934.24
	c-99.246,63.619-209.05,97.881-319.122,105.129C860.886,1478.843,966.686,1445.07,1062.62,1383.574z M265.977,599.191
	c194.407-124.619,453.907-67.824,578.528,126.586c124.656,194.383,67.881,453.922-126.488,578.518
	c-13.706,8.785-27.802,16.471-41.997,23.438c12.298-6.271,24.356-13.17,36.216-20.772
	c194.042-124.385,250.682-383.319,126.3-577.356C714.09,535.548,455.219,478.92,261.12,603.289
	c-11.778,7.657-23.143,15.719-33.915,24.29C239.472,617.528,252.309,607.953,265.977,599.191z M1076.548,1386.652
	c316.41-202.774,408.753-625.196,205.9-941.606c-202.836-316.424-625.215-408.901-941.601-206.09
	c-97.272,62.407-173.166,145.675-226.041,240.125c53.38-98.361,131.415-185.024,232.102-249.567
	c318.597-204.229,743.944-111.215,948.153,207.394c204.31,318.649,111.244,744.028-207.415,948.244
	c-100.688,64.543-212.052,99.286-323.74,106.687C871.827,1483.265,979.238,1449.082,1076.548,1386.652z M264.059,607.798
	c191.499-122.756,447.193-66.789,569.886,124.695c122.791,191.473,66.924,447.155-124.646,569.956
	c-13.312,8.586-27.057,16.097-41.029,22.923c12.117-6.156,23.914-12.888,35.48-20.303
	c191.129-122.518,247.075-377.678,124.473-568.855C705.681,545.048,450.48,489.288,259.375,611.843
	c-11.591,7.377-22.708,15.333-33.285,23.727C238.124,625.721,250.713,616.406,264.059,607.798z M1090.589,1389.658
	c321.064-205.809,414.855-634.565,209.068-955.596C1093.735,112.863,665.091,19.207,344.027,225.016
	c-99.25,63.622-176.598,148.6-230.269,244.964c54.122-100.443,133.569-188.954,236.207-254.748
	c323.463-207.348,755.275-112.916,962.617,210.497c207.288,323.443,112.817,755.233-210.646,962.581
	c-102.71,65.84-216.354,101.004-330.273,108.328C881.742,1488.189,991.278,1453.267,1090.589,1389.658z M262.207,616.261
	c188.662-120.938,440.511-65.779,561.448,122.882c120.911,188.622,65.862,440.558-122.762,561.47
	c-13.018,8.396-26.502,15.741-40.109,22.488c11.752-6.078,23.255-12.619,34.603-19.895
	c188.292-120.699,243.332-372.16,122.633-560.451C697.279,554.485,445.877,499.46,257.576,620.22
	c-11.372,7.236-22.195,15.004-32.486,23.112C236.864,633.81,249.166,624.621,262.207,616.261z M1104.817,1392.805
	c325.967-208.954,421.17-644.02,212.244-969.946C1108.156,96.965,673.075,1.82,347.085,210.74
	c-101.053,64.777-179.822,151.342-234.222,249.573c54.982-102.347,135.676-192.642,240.306-259.712
	C681.382-9.791,1119.785,86.078,1330.207,414.378c210.546,328.372,114.576,766.738-213.638,977.131
	c-104.63,67.07-220.345,102.73-336.363,109.944C892.251,1492.992,1003.763,1457.583,1104.817,1392.805z M260.41,624.641
	c185.787-119.094,433.912-64.881,553.112,120.997c119.154,185.799,64.852,434.032-120.969,553.148
	c-12.624,8.04-25.487,15.142-38.53,21.631c11.246-5.805,22.331-12.027,33.162-18.97c185.53-118.929,239.68-366.754,120.776-552.245
	c-118.944-185.627-366.704-239.76-552.268-120.809c-10.797,6.92-21.057,14.43-31.027,22.225
	C236,641.379,247.881,632.672,260.41,624.641z M1119.389,1395.992c330.717-211.998,427.44-653.652,215.372-984.479
	c-212.09-330.819-653.733-427.368-984.451-215.37c-102.713,65.842-182.88,153.877-238.16,253.817
	c55.9-104.079,137.847-195.906,244.208-264.087c333.223-213.604,778.143-116.244,991.855,217.064
	c213.61,333.273,116.274,778.231-216.93,991.822c-106.323,68.156-224.026,104.362-341.93,111.641
	C903.285,1497.874,1016.737,1461.845,1119.389,1395.992z M258.607,632.865c183.025-117.323,427.485-63.88,544.955,119.206
	c117.248,183.074,63.768,427.559-119.258,544.882c-12.008,7.697-24.321,14.604-36.861,20.822
	c10.709-5.514,21.353-11.453,31.667-18.064c182.802-117.181,236.16-361.377,118.979-544.179
	C680.859,572.654,436.735,519.25,253.894,636.456c-10.276,6.587-20.045,13.733-29.526,21.163
	C235.245,648.878,246.6,640.562,258.607,632.865z M1134.117,1399.181c335.691-215.186,433.794-663.443,218.586-999.17
	C1137.445,64.208,689.257-33.708,353.548,181.49c-104.506,66.938-185.975,156.43-242.11,258.117
	c56.735-105.866,140.13-199.245,248.195-268.57C697.965-45.789,1149.591,52.989,1366.409,391.225
	c216.838,338.269,118.049,789.876-220.278,1006.753c-108.051,69.263-227.748,106.02-347.666,113.395
	C914.315,1502.757,1029.696,1466.169,1134.117,1399.181z M119.626,1143.242C30.83,967.818,87.704,749.385,256.838,640.966
	c180.298-115.576,421.106-62.963,536.754,117.447c115.621,180.371,62.911,421.191-117.387,536.766
	c-169.098,108.396-391.365,68.896-513.678-85.095c-8.204-10.283-15.924-21.03-23.15-32.304
	C132.127,1166.472,125.62,1154.941,119.626,1143.242z M1148.998,1402.533c340.851-218.493,440.324-673.451,221.861-1014.213
	C1152.398,47.554,697.499-51.989,356.705,166.468c-106.262,68.17-189.009,159.312-245.976,262.782
	c57.53-107.78,142.218-202.871,252.223-273.387C706.346-64.259,1164.784,36.027,1384.9,379.371
	c220.073,343.316,119.839,801.828-223.573,1021.963c-109.99,70.455-231.756,107.706-353.653,114.998
	C925.501,1507.803,1042.849,1470.628,1148.998,1402.533z M1176.733,1404.765c-130.859,83.885-278.238,121.805-423.023,118.195
	c140.68,1.822,283.377-35.695,410.452-117.205c345.921-221.693,446.962-683.372,225.236-1029.267
	C1167.669,30.59,705.952-70.346,360.096,151.408c-127.099,81.474-220.868,195.484-277.928,324.11
	c57.189-133.132,153.238-251.201,284.098-335.085c348.622-223.476,813.935-121.671,1037.35,226.941
	C1627.021,715.884,1525.257,1181.302,1176.733,1404.765z"/>
</svg>
