<?xml version="1.0" encoding="utf-8"?>
<!-- Generator: Adobe Illustrator 16.0.0, SVG Export Plug-In . SVG Version: 6.00 Build 0)  -->
<!DOCTYPE svg PUBLIC "-//W3C//DTD SVG 1.1//EN" "http://www.w3.org/Graphics/SVG/1.1/DTD/svg11.dtd">
<svg version="1.1" id="Layer_1" xmlns="http://www.w3.org/2000/svg" xmlns:xlink="http://www.w3.org/1999/xlink" x="0px" y="0px"
	 width="2532px" height="715.476px" viewBox="0 0 2532 715.476" enable-background="new 0 0 2532 715.476" xml:space="preserve">
<linearGradient id="SVGID_1_" gradientUnits="userSpaceOnUse" x1="594.8486" y1="1534.1611" x2="-100.4666" y2="329.84" gradientTransform="matrix(0.9241 0.3821 -0.3821 0.9241 804.0613 -209.499)">
	<stop  offset="0" style="stop-color:#0F0F24"/>
	<stop  offset="0.484" style="stop-color:#3F5B57"/>
	<stop  offset="1" style="stop-color:#7BC795"/>
</linearGradient>
<path opacity="0.1" fill="url(#SVGID_1_)" d="M80.013,409.896c-125.124,302.627,3.25,647.797,286.604,798.576
	c0.992,0.568,2.204,0.988,3.193,1.556c2.354,1.293,4.897,2.223,7.265,3.481c14.607,7.817,29.746,15.024,45.368,21.447
	c15.605,6.452,31.435,12.086,47.229,16.837c1.678,0.536,3.47,1.277,5.214,1.84c0.284,0.078,0.54,0.224,0.771,0.238
	c308.46,96.563,646.061-56.938,771.882-361.253c133.111-321.947-20.42-692.098-342.381-825.174
	C583.208-65.669,213.109,87.982,80.013,409.896z M1009.041,991.562c94.604-228.812-14.679-491.956-243.439-586.579
	c-228.895-94.598-491.997,14.582-586.586,243.359c-17.726,42.871-28.256,86.896-32.252,130.813
	c3.516-46.292,14.058-92.648,32.732-137.813c95.079-229.96,359.534-339.73,589.48-244.617
	c230.04,95.071,339.81,359.526,244.67,589.539c-18.6,45.082-43.994,85.451-74.136,120.658
	C967.679,1073.039,991.329,1034.398,1009.041,991.562z M932.751,1107.766c27.388-33.138,50.403-70.816,67.681-112.605
	c93.219-225.463-14.39-484.715-239.887-577.948c-225.466-93.221-484.771,14.328-578.039,239.812
	c-17.229,41.769-27.542,84.699-31.521,127.516c3.563-45.163,13.949-90.474,32.135-134.459
	c93.654-226.515,354.211-334.693,580.777-240.978c226.579,93.681,334.688,354.21,240.988,580.741
	C986.706,1033.909,962.028,1073.311,932.751,1107.766z M186.695,658.756c92.284-223.201,348.92-329.755,572.19-237.442
	c223.203,92.285,329.675,348.929,237.425,572.143c-17.926,43.263-42.074,82.054-70.932,115.972
	c26.901-32.629,49.583-69.693,66.587-110.725c91.804-222.135-14.253-477.581-236.407-569.433
	c-222.243-91.924-477.627,14.079-569.526,236.251c-16.923,41.028-27.056,83.24-30.991,125.283
	C158.613,746.477,168.816,701.997,186.695,658.756z M1017.812,987.95c96.028-232.257-14.857-499.37-247.071-595.4
	c-232.222-96.014-499.358,14.782-595.414,247.105c-23.173,56.048-34.013,114.028-34.333,171.254
	c-0.513-59.511,10.694-120.105,34.818-178.45c96.496-233.486,364.974-344.854,598.414-248.336
	c233.471,96.53,344.878,364.964,248.3,598.456c-24.103,58.39-59.013,109.148-101.45,150.938
	C961.294,1092.787,994.626,1044.029,1017.812,987.95z M190.234,667.223c90.882-219.907,343.775-324.765,563.634-233.863
	c219.89,90.915,324.844,343.768,233.896,563.644c-17.524,42.481-41.249,80.535-69.495,113.835
	c26.419-32.038,48.63-68.345,65.307-108.681c90.449-218.858-14.009-470.518-232.905-561.062
	C531.71,350.605,280.065,455.03,189.582,673.876c-16.677,40.336-26.592,81.726-30.546,123.053
	C162.54,753.438,172.664,709.721,190.234,667.223z M1026.714,984.311c97.495-235.803-15.069-506.894-250.77-604.346
	c-235.772-97.481-506.808,15.008-604.337,250.797c-23.577,57.023-34.524,116.028-34.811,174.22
	c-0.604-60.536,10.747-122.142,35.316-181.565c97.957-236.921,370.372-350.062,607.4-252.082
	c236.917,97.954,350.021,370.513,252.064,607.434c-24.569,59.424-60.04,111.057-103.285,153.463
	C969.252,1090.856,1003.165,1041.27,1026.714,984.311z M193.737,675.594c89.548-216.583,338.611-319.938,555.229-230.375
	c216.613,89.56,320.017,338.604,230.421,555.207c-17.146,41.563-40.298,78.906-67.866,111.617
	c25.726-31.414,47.413-67.029,63.713-106.452c89.17-215.67-13.749-463.687-229.396-552.807
	c-215.724-89.233-463.637,13.729-552.779,229.33c-16.315,39.46-26.065,79.971-30.019,120.346
	C166.544,759.919,176.543,717.178,193.737,675.594z M1035.719,980.52c98.954-239.238-15.255-514.388-254.516-613.271
	c-239.252-98.92-514.373,15.219-613.328,254.456c-24.08,58.241-35.238,118.617-35.355,178.025
	c-0.711-61.804,10.654-124.788,35.74-185.462c99.478-240.601,376.043-355.353,616.617-255.906
	c240.524,99.467,355.333,376.035,255.854,616.636c-25.086,60.674-61.47,113.273-105.75,156.556
	C976.968,1089.416,1011.639,1038.762,1035.719,980.52z M197.119,683.874c88.248-213.438,333.621-315.235,547.028-227.001
	c213.404,88.233,315.268,333.635,227.062,546.973c-16.846,40.744-39.481,77.312-66.442,109.321
	c25.148-30.782,46.4-65.63,62.398-104.229c87.843-212.459-13.598-456.777-226.09-544.634
	c-212.466-87.923-456.819,13.503-544.662,225.962c-16,38.599-25.526,78.294-29.459,117.848
	C170.516,766.39,180.301,724.549,197.119,683.874z M1044.887,976.715c100.428-242.897-15.492-522.04-258.313-622.456
	C543.734,253.875,264.52,369.684,164.105,612.55c-24.478,59.301-35.916,120.833-35.969,181.333
	c-0.862-62.977,10.632-127.135,36.24-188.974c100.931-244.116,381.711-360.646,625.934-259.69
	c244.207,100.989,360.711,381.779,259.767,625.926c-25.575,61.856-62.71,115.414-107.841,159.414
	C985.019,1087.645,1020.332,1036.105,1044.887,976.715z M200.501,691.956c86.858-210.177,328.603-310.465,538.928-223.585
	c210.168,86.977,310.519,328.67,223.647,538.877c-16.461,39.91-38.668,75.825-65.061,107.32
	c24.592-30.299,45.483-64.465,61.14-102.335c86.544-209.318-13.364-450.074-222.747-536.646
	c-209.416-86.503-450.172,13.403-536.653,222.667c-15.706,37.89-25.078,76.818-28.952,115.562
	C174.33,772.948,183.957,731.873,200.501,691.956z M1054.166,972.835c101.894-246.444-15.75-529.839-262.201-631.716
	c-246.437-101.911-529.811,15.722-631.677,262.1c-24.973,60.4-36.64,123.064-36.548,184.653
	c-1.01-64.147,10.712-129.435,36.755-192.325c102.431-247.842,387.46-366.135,635.364-263.657
	c247.872,102.464,366.154,387.468,263.66,635.364c-26.042,62.892-63.867,117.35-109.861,162.1
	C993.242,1085.742,1029.206,1033.204,1054.166,972.835z M203.862,699.992C289.505,492.951,527.649,394.1,734.736,479.721
	C941.763,565.398,1040.547,803.516,955,1010.516c-16.202,39.188-37.832,74.471-63.694,105.354
	c24.11-29.708,44.559-63.187,59.923-100.347c85.287-206.277-13.216-443.447-219.458-528.719
	c-206.346-85.315-443.474,13.085-528.726,219.377c-15.337,37.095-24.569,75.206-28.423,113.33
	C178.097,779.335,187.674,739.146,203.862,699.992z M1063.64,968.959c103.416-250.125-15.936-537.807-266.102-641.22
	C547.368,224.325,259.721,343.69,156.305,593.814c-25.422,61.486-37.202,125.288-37.132,187.978
	c-1.014-65.296,10.775-131.783,37.285-195.901c104.004-251.547,393.348-371.576,645.001-267.548
	c251.587,104,371.708,393.365,267.704,644.911c-26.51,64.119-65.153,119.504-111.999,164.971
	C1001.567,1083.882,1038.184,1030.432,1063.64,968.959z M207.131,707.87c84.337-203.98,318.935-301.329,522.996-217
	c203.981,84.338,301.285,318.954,216.981,522.948c-15.839,38.309-36.964,72.852-62.182,103.132
	c23.547-29.11,43.49-61.847,58.505-98.163c84.015-203.201-12.979-436.94-216.214-520.97C523.912,413.76,290.242,510.783,206.261,714
	c-15.015,36.316-24.047,73.562-27.873,110.746C181.871,785.521,191.339,746.162,207.131,707.87z M1073.217,964.931
	c104.987-253.83-16.162-545.775-270.085-650.721c-253.878-104.968-545.824,16.181-650.763,269.989
	c-25.868,62.566-37.838,127.395-37.657,191.158c-1.19-66.396,10.779-133.996,37.723-199.163
	c105.581-255.362,399.279-377.212,654.692-271.646c255.388,105.612,377.312,399.32,271.731,654.682
	c-26.944,65.167-66.276,121.454-113.999,167.704C1010.062,1081.897,1047.349,1027.496,1073.217,964.931z M210.312,715.674
	c83.114-200.925,314.277-296.851,515.216-213.771c201.005,83.106,296.91,314.22,213.815,515.194
	c-11.035,26.688-24.87,51.349-40.686,74.197c14.415-21.374,26.882-44.542,37.12-69.304
	c82.834-200.251-12.768-430.563-213.079-513.343c-200.265-82.801-430.517,12.744-513.349,212.996
	c-10.238,24.762-17.679,49.932-22.609,75.345C191.695,769.608,199.265,742.395,210.312,715.674z M1082.911,960.906
	c106.497-257.674-16.394-553.92-274.087-660.465C551.127,193.895,254.897,316.894,148.4,574.566
	c-26.406,63.77-38.641,129.914-38.338,194.911c-1.214-67.671,10.849-136.653,38.337-203.138
	c107.16-259.182,405.281-382.922,664.497-275.747c259.213,107.173,382.938,405.328,275.763,664.544
	c-27.475,66.45-67.709,123.866-116.392,170.906C1018.417,1080.248,1056.491,1024.71,1082.911,960.906z M213.485,723.313
	c81.837-197.934,309.592-292.416,507.574-210.6c198.012,81.833,292.496,309.588,210.632,507.587
	c-10.82,26.264-24.439,50.498-39.988,72.987c14.189-21.115,26.46-43.81,36.579-68.187
	c81.537-197.305-12.658-424.228-209.947-505.798c-197.359-81.6-424.202,12.588-505.836,209.933
	c-10.007,24.303-17.36,49.071-22.258,74.027C195.099,776.395,202.652,749.611,213.485,723.313z M1092.795,956.806
	c108.076-261.492-16.733-562.189-278.202-670.315c-261.541-108.156-562.252,16.688-670.375,278.197
	c-26.783,64.877-39.279,132.222-38.843,198.425c-1.348-68.877,10.873-139.103,38.835-206.732
	c108.809-263.17,411.403-388.734,674.497-279.937c263.2,108.822,388.742,411.382,279.933,674.552
	c-27.962,67.63-68.915,126.017-118.529,173.782C1027.123,1078.233,1065.887,1021.789,1092.795,956.806z M216.667,730.92
	c80.65-195.062,304.901-288.146,499.964-207.496c195.127,80.677,288.144,304.9,207.495,499.959
	c-10.644,25.744-23.871,49.506-39.061,71.512c13.781-20.607,25.838-42.879,35.732-66.714
	c80.371-194.388-12.438-417.967-206.822-498.336c-194.4-80.34-417.952,12.401-498.322,206.789
	c-9.861,23.849-17.053,48.132-21.816,72.468C198.577,782.815,206.006,756.617,216.667,730.92z M1102.727,952.686
	c109.73-265.398-16.838-570.643-282.267-680.386c-265.397-109.73-570.591,16.959-680.349,282.422
	c-27.363,66.181-40.005,134.928-39.486,202.47c-1.567-70.268,10.863-141.95,39.379-211.017
	C250.432,279.089,557.584,151.59,824.705,262.032c267.079,110.441,394.547,417.622,284.12,684.708
	c-28.57,69.004-70.329,128.479-121.074,177.162C1035.814,1076.443,1075.351,1018.897,1102.727,952.686z M219.739,738.322
	c79.483-192.142,300.356-283.855,492.513-204.406c192.155,79.447,283.858,300.438,204.412,492.592
	c-10.289,24.979-23.178,48.212-37.899,69.658c13.341-20.117,25.064-41.773,34.646-64.948
	c79.198-191.551-12.176-411.806-203.735-490.971C518.124,461.049,297.9,552.436,218.702,743.986
	c-9.581,23.174-16.608,46.772-21.314,70.5C202.125,788.872,209.424,763.369,219.739,738.322z M1112.945,948.444
	c111.412-269.369-17.168-579.123-286.592-690.498c-269.375-111.396-579.092,17.143-690.505,286.511
	c-33.879,82.039-45.271,167.757-37.483,250.528c-9.174-85.443,2.225-174.245,37.326-259.141
	C247.829,264.723,559.55,135.353,830.739,247.438c271.206,112.132,400.57,423.912,288.434,695.035
	c-35.101,84.896-89.804,155.873-156.557,209.88C1026.487,1099.289,1079.004,1030.535,1112.945,948.444z M222.791,745.677
	c78.212-189.265,295.97-279.653,485.208-201.376c189.249,78.246,279.57,295.977,201.324,485.228
	c-10.022,24.337-22.443,47.009-36.778,67.902c12.996-19.664,24.406-40.661,33.771-63.216
	c78.022-188.707-12.07-405.747-200.895-483.777c-188.746-78.038-405.789,11.975-483.84,200.75
	c-9.271,22.514-16.02,45.438-20.706,68.537C205.497,794.774,212.7,769.985,222.791,745.677z M1123.328,944.189
	c113.021-273.45-17.489-587.818-290.891-700.858c-273.406-113.042-587.781,17.386-700.915,290.831
	c-34.487,83.411-45.97,170.595-37.951,254.726c-9.426-86.852,2.126-177.17,37.827-263.519
	C245.179,250.175,561.662,118.86,836.864,232.624c275.24,113.76,406.56,430.282,292.717,705.531
	c-35.639,86.294-91.264,158.354-159.249,213.235C1035.421,1097.486,1088.792,1027.622,1123.328,944.189z M225.785,752.886
	c77.087-186.445,291.511-275.482,477.967-198.313c186.472,77.021,275.448,291.501,198.346,477.98
	c-9.875,23.883-22.033,46.113-36.092,66.724c12.809-19.309,23.983-39.924,33.147-62.088
	c76.878-185.94-11.922-399.792-197.88-476.719c-185.891-76.898-399.798,11.838-476.726,197.798
	c-9.115,22.145-15.771,44.749-20.345,67.382C208.777,801.194,215.847,776.824,225.785,752.886z M1133.736,939.873
	c114.745-277.525-17.651-596.611-295.182-711.338C561.028,113.79,241.925,246.18,127.18,523.706
	c-35.058,84.792-46.761,173.468-38.542,259.026c-9.63-88.357,2.039-180.211,38.327-267.979
	C242.432,235.393,563.696,102.077,843.08,217.59c279.381,115.512,412.697,436.776,297.165,716.111
	c-36.288,87.768-92.905,161.077-162.074,216.814C1044.409,1095.742,1098.712,1024.68,1133.736,939.873z M228.737,760
	c75.941-183.674,287.141-271.318,470.853-195.361c183.675,75.941,271.316,287.144,195.409,470.832
	c-9.644,23.229-21.396,44.955-35.007,64.96c12.356-18.786,23.226-38.856,32.123-60.376
	c75.732-183.17-11.691-393.845-194.927-469.604c-183.238-75.761-393.913,11.663-469.631,194.798
	c-8.926,21.589-15.389,43.44-19.896,65.432C212.201,806.883,219.176,783.223,228.737,760z M1144.337,935.475
	c116.496-281.667-17.909-605.557-299.588-722.019C563.103,97.007,239.272,231.355,122.765,513.059
	c-35.656,86.326-47.552,176.624-39.096,263.707c-9.89-89.933,1.857-183.496,38.801-272.851
	C239.666,220.362,565.827,85.059,849.386,202.338c283.646,117.255,418.996,443.354,301.717,726.913
	c-36.944,89.354-94.721,163.847-165.267,220.521C1053.369,1094.067,1108.697,1021.768,1144.337,935.475z M231.596,766.958
	c74.812-180.94,282.939-267.279,463.915-192.453c180.973,74.824,267.361,282.932,192.55,463.873
	c-9.381,22.783-20.998,44.087-34.374,63.716c12.12-18.406,22.821-38.071,31.552-59.188
	c74.628-180.498-11.506-388.072-192.073-462.729c-180.571-74.658-388.142,11.48-462.736,191.993
	c-8.716,21.081-15.074,42.583-19.465,64.107C215.388,812.949,222.147,789.713,231.596,766.958z M1155.157,930.928
	c118.194-285.87-18.187-614.551-304.054-732.744c-285.835-118.182-614.557,18.24-732.688,304.055
	c-36.421,87.992-48.48,179.919-39.708,268.636c-10.354-91.582,1.594-186.885,39.222-277.894
	C236.902,205.14,567.928,67.73,855.825,186.764c287.928,119.046,425.197,450.074,306.192,737.902
	c-37.628,91.009-96.515,166.94-168.489,224.487C1062.409,1092.584,1118.785,1018.898,1155.157,930.928z M234.504,773.896
	c73.707-178.271,278.683-263.304,456.957-189.595c178.284,73.672,263.35,278.665,189.657,456.9
	c-5.196,12.568-11.187,24.568-17.586,36.124c5.433-10.173,10.401-20.66,14.898-31.536c73.568-177.935-11.3-382.448-189.231-456.016
	c-177.984-73.548-382.449,11.299-456.065,189.251c-4.415,10.873-8.352,21.826-11.64,32.846
	C225.098,799.124,229.322,786.43,234.504,773.896z M1166.173,926.384c119.988-290.11-18.507-623.724-308.671-743.675
	C567.342,62.741,233.694,201.123,113.74,491.248C76.886,580.482,64.648,673.803,73.527,763.79
	c-10.401-92.909,1.683-189.578,39.857-281.908C234.176,189.729,570.113,50.297,862.258,171.106
	c292.232,120.789,431.645,456.774,310.804,748.947c-38.175,92.33-97.901,169.337-170.911,227.76
	C1072.019,1090.388,1129.304,1015.652,1166.173,926.384z M237.3,780.711c72.604-175.603,274.576-259.387,450.131-186.762
	c175.616,72.569,259.461,274.485,186.83,450.154c-5.022,12.242-10.854,23.956-17.169,35.309
	c5.364-10.008,10.234-20.256,14.619-30.862c72.464-175.265-11.078-376.86-186.423-449.317
	c-175.299-72.479-376.834,11.21-449.264,186.488c-4.42,10.592-8.238,21.355-11.478,32.16
	C228.088,805.383,232.266,792.985,237.3,780.711z M1177.232,921.737c121.728-294.415-18.8-633.061-313.184-754.775
	c-294.557-121.767-633.061,18.8-754.789,313.215c-37.629,91.012-50.047,186.197-40.799,277.878
	c-10.888-94.691,1.281-193.302,40.195-287.42c122.638-296.614,463.683-438.164,760.27-315.559
	c296.564,122.653,438.076,463.703,315.438,760.317c-38.94,94.185-100.029,172.568-174.604,232.005
	C1081.167,1089.025,1139.555,1012.77,1177.232,921.737z M240.074,787.396c71.529-173.002,270.479-255.503,443.481-183.975
	c172.966,71.515,255.582,270.472,184.068,443.438c-4.911,11.974-10.645,23.448-16.747,34.572c5.151-9.779,9.91-19.758,14.212-30.164
	c71.389-172.662-11.008-371.29-183.669-442.678c-172.681-71.355-371.26,11.023-442.627,183.731
	c-4.337,10.392-8.044,20.886-11.224,31.358C231.088,811.529,235.13,799.354,240.074,787.396z M1188.486,917.098
	c123.587-298.912-18.988-642.557-317.862-766.128c-298.842-123.559-642.47,19.062-766.088,317.962
	C66.223,561.597,53.589,658.549,63.23,751.856c-11.207-96.406,0.964-196.834,40.633-292.779
	c124.438-300.97,470.688-444.682,771.72-320.198c301.152,124.473,444.776,470.747,320.338,771.717
	c-39.669,95.945-101.939,175.659-178.005,236.022C1090.663,1087.297,1150.173,1009.764,1188.486,917.098z M242.845,793.998
	c70.439-170.366,266.386-251.735,436.868-181.285c170.413,70.418,251.772,266.482,181.321,436.879
	c-4.811,11.541-10.234,22.552-16.073,33.23c4.934-9.352,9.559-18.91,13.666-28.842c70.341-170.131-10.928-365.842-181.022-436.168
	c-170.187-70.401-365.845,10.848-436.199,181.01c-4.094,9.9-7.539,19.947-10.647,30.053
	C234.112,817.129,238.095,805.486,242.845,793.998z M1199.994,912.32c125.389-303.267-19.292-652.152-322.659-777.582
	C573.957,9.325,225.162,154.119,99.774,457.387c-38.943,94.188-51.832,192.815-41.978,287.715
	C46.39,647.069,58.688,544.992,99.014,447.46C225.351,141.896,576.779-3.908,882.458,122.437
	c305.593,126.369,451.431,477.812,325.101,783.358c-40.312,97.498-103.684,178.535-181.01,239.844
	C1100.557,1085.372,1161.101,1006.487,1199.994,912.32z M245.539,800.494c69.392-167.833,262.459-247.979,430.421-178.615
	c167.805,69.462,247.937,262.563,178.545,430.396c-4.553,11.012-9.692,21.626-15.316,31.878c4.706-8.894,9.163-18.048,13.074-27.506
	c69.308-167.63-10.772-360.476-178.4-429.782c-167.699-69.336-360.517,10.678-429.839,178.342
	c-3.896,9.424-7.178,18.987-10.126,28.607C237.177,822.63,240.986,811.506,245.539,800.494z M1211.612,907.471
	c127.272-307.826-19.614-661.897-327.475-789.185C576.208-9.029,222.274,137.954,94.994,445.798
	c-39.648,95.796-52.733,196.044-42.632,292.548c-11.687-99.654,0.863-203.486,41.809-302.618
	c128.3-310.213,485.001-458.248,795.163-330.009c310.19,128.25,458.209,484.944,329.937,795.189
	c-40.966,99.082-105.441,181.449-184.104,243.785C1110.449,1083.451,1172.047,1003.261,1211.612,907.471z M394.084,1216.664
	c-144.651-77.808-210.014-254.676-145.888-409.772c68.358-165.333,258.525-244.304,423.961-175.903
	c165.398,68.386,244.308,258.608,175.95,423.941c-64.111,155.061-235.308,234.163-392.692,187.053
	c-10.535-3.129-20.959-6.807-31.296-11.081C413.748,1226.613,403.78,1221.82,394.084,1216.664z M1223.411,902.66
	c129.229-312.559-19.919-671.876-332.416-801.059C578.5-27.586,219.19,121.488,89.982,433.996
	C49.719,531.474,36.546,633.464,46.93,731.588C34.873,630.24,47.491,524.617,89.198,423.743
	C219.392,108.853,581.482-41.401,896.345,88.761c314.819,130.164,465.145,492.28,334.944,807.188
	c-41.727,100.825-107.383,184.519-187.441,247.744C1120.525,1081.565,1183.191,1000.034,1223.411,902.66z M1243.486,890.941
	c-49.614,119.998-132.505,216.386-233.456,283.072c97.284-65.95,177.159-159.826,225.313-276.389
	c131.177-317.174-20.109-681.846-337.294-812.988C580.863-46.506,216.214,104.869,85.112,422.054
	C36.924,538.603,27.121,661.531,49.457,776.939c-24.4-118.559-14.973-245.356,34.641-365.354
	C216.274,91.899,583.801-60.599,903.441,71.599C1223.023,203.732,1375.6,571.312,1243.486,890.941z"/>
<linearGradient id="SVGID_2_" gradientUnits="userSpaceOnUse" x1="4382.9688" y1="2637.6006" x2="3445.3542" y2="1013.6049" gradientTransform="matrix(0.4984 -0.8669 0.8669 0.4984 -1573.5757 3715.4517)">
	<stop  offset="0" style="stop-color:#263B8C"/>
	<stop  offset="0.5301" style="stop-color:#4E8096"/>
	<stop  offset="1" style="stop-color:#7BC795"/>
</linearGradient>
<path opacity="0.09" fill="url(#SVGID_2_)" d="M1406.146,1970.892c382.824,220.088,866.746,108.642,1117.778-243.938
	c0.933-1.228,1.706-2.774,2.636-3.998c2.141-2.922,3.828-6.161,5.924-9.107c13.001-18.168,25.278-37.153,36.59-56.921
	c11.349-19.74,21.643-39.925,30.751-60.214c1.01-2.15,2.312-4.417,3.37-6.651c0.152-0.367,0.393-0.684,0.453-0.99
	c182.917-395.604,36.551-873.791-348.409-1095.106c-407.265-234.138-928.977-93.409-1163.071,313.881
	C858.027,1215.115,998.926,1736.778,1406.146,1970.892z M2345.94,830.125c-289.447-166.404-660.363-66.178-826.785,223.198
	c-166.411,289.56-66.314,660.4,223.089,826.779c54.232,31.179,111.262,52.938,169.288,65.941
	c-61.285-12.775-121.43-34.957-178.563-67.804c-290.9-167.24-391.551-539.994-224.267-830.869
	c167.244-291.008,539.997-391.656,830.956-224.326c57.036,32.733,106.586,73.729,148.403,120.173
	C2447.67,899.641,2400.129,861.278,2345.94,830.125z M2488.012,952.4c-39.531-42.4-85.898-79.746-138.762-110.138
	c-285.211-163.97-650.63-65.302-814.625,219.954c-163.972,285.215-65.393,650.694,219.837,814.732
	c52.845,30.322,108.449,51.6,165.005,64.388c-59.766-12.642-118.541-34.432-174.183-66.421
	c-286.542-164.734-385.742-531.997-220.917-818.597c164.781-286.623,531.994-385.737,818.551-220.938
	C2398.668,867.375,2447.049,907.244,2488.012,952.4z M1757.509,1871.65c-282.35-162.324-380.063-524.062-217.688-806.5
	c162.326-282.353,524.059-379.955,806.433-217.674c54.72,31.516,102.376,70.569,142.696,115.072
	c-38.938-41.661-84.54-78.453-136.438-108.347c-281.009-161.497-641.069-64.24-802.632,216.784
	c-161.677,281.133-64.481,641.1,216.561,802.73c51.907,29.783,106.582,50.695,162.113,63.289
	C1869.903,1924.499,1812.21,1903.098,1757.509,1871.65z M2342.641,817.766c-293.806-168.91-670.307-67.232-839.213,226.516
	c-168.885,293.762-67.33,670.279,226.559,839.237c70.901,40.762,146.537,65.368,222.998,75.778
	c-79.662-9.693-158.729-35.249-232.536-77.681c-295.367-169.75-397.451-548.161-227.681-843.464
	c169.793-295.341,548.152-397.486,843.514-227.625c73.871,42.412,135.651,97.945,184.126,161.977
	C2472.963,911.623,2413.581,858.55,2342.641,817.766z M1769.447,1868.395c-278.191-159.875-374.288-516.312-214.395-794.434
	c159.916-278.162,516.314-374.396,794.452-214.438c53.745,30.842,100.489,69.201,140.09,112.778
	c-38.231-40.913-82.903-76.944-133.929-106.279c-276.864-159.113-631.581-63.333-790.828,213.563
	c-159.187,276.992-63.448,631.685,213.392,790.841c51.024,29.335,104.639,49.812,159.208,62.307
	C1879.897,1920.463,1823.207,1899.301,1769.447,1868.395z M2339.328,805.229c-298.292-171.489-680.406-68.262-851.82,229.9
	c-171.467,298.252-68.328,680.279,229.938,851.812c72.136,41.472,149.123,66.401,226.882,76.933
	c-81.05-9.751-161.443-35.672-236.615-78.889c-299.705-172.303-403.476-556.289-231.122-856.133
	c172.299-299.7,556.469-403.395,856.174-231.094c75.172,43.218,138.024,99.65,187.184,164.872
	C2471.769,900.645,2411.38,846.651,2339.328,805.229z M1781.251,1865.171c-273.979-157.511-368.733-508.564-211.197-782.586
	c157.533-274.017,508.569-368.842,782.565-211.263c52.586,30.175,98.479,67.646,137.408,110.213
	c-37.517-39.878-81.355-75.089-131.226-103.76c-272.822-156.847-622.4-62.49-779.178,210.312
	c-156.94,272.885-62.508,622.332,210.228,779.129c49.918,28.698,102.385,48.801,155.681,61.13
	C1889.261,1916.239,1833.855,1895.414,1781.251,1865.171z M2335.829,792.527c-302.63-174.04-690.457-69.32-864.408,233.354
	c-173.997,302.654-69.366,690.43,233.263,864.471c73.676,42.357,152.46,67.808,231.875,78.325
	c-82.764-9.828-164.999-36.011-241.751-80.136c-304.36-174.979-409.561-564.794-234.629-869.124
	c174.95-304.26,564.779-409.534,869.14-234.556c76.753,44.125,140.738,101.949,190.89,168.707
	C2471.189,890.077,2409.505,834.884,2335.829,792.527z M1792.912,1862.094c-270-155.225-363.317-501.072-208.115-771.033
	c155.199-269.956,501.096-363.358,770.969-208.207c51.542,29.632,96.49,66.275,134.588,107.908
	c-36.773-38.994-79.662-73.488-128.483-101.612c-268.762-154.513-613.138-61.487-767.674,207.315
	c-154.62,268.758-61.622,613.176,207.14,767.688c48.82,28.125,100.236,47.786,152.438,59.945
	C1898.605,1912.057,1844.366,1891.675,1792.912,1862.094z M2332.341,779.604c-307.267-176.649-700.731-70.337-877.352,236.829
	c-176.58,307.196-70.431,700.736,236.797,877.363c75.022,43.072,155.304,69.098,236.189,79.722
	c-84.357-9.831-168.14-36.391-246.358-81.417c-308.808-177.535-415.648-573.295-238.062-882.242
	c177.627-308.918,573.396-415.725,882.243-238.167c78.249,44.985,143.384,103.981,194.346,172.002
	C2470.225,879.004,2407.47,822.797,2332.341,779.604z M1804.31,1858.98c-265.882-152.798-357.813-493.529-204.962-759.606
	c152.955-265.85,493.63-357.876,759.55-205.054c50.494,28.973,94.643,64.93,132.152,105.713
	c-36.224-38.168-78.265-72.061-126.17-99.602c-264.788-152.228-604.133-60.631-756.408,204.239
	c-152.191,264.927-60.596,604.271,204.13,756.404c47.924,27.61,98.342,46.931,149.47,58.868
	C1908.041,1908.102,1854.797,1888.064,1804.31,1858.98z M2328.771,766.521c-311.752-179.229-711.203-71.354-890.409,240.41
	c-179.25,311.74-71.388,711.162,240.281,890.342c76.407,43.927,158.162,70.457,240.529,81.076
	c-85.949-9.838-171.201-36.898-250.751-82.69c-313.527-180.19-421.985-581.94-241.723-895.542
	c180.239-313.562,581.954-422.011,895.544-241.727c79.551,45.791,145.771,105.865,197.584,175.171
	C2469.115,867.676,2405.138,810.426,2328.771,766.521z M1815.642,1855.889c-261.901-150.627-352.541-486.295-201.936-748.261
	c150.67-261.875,486.289-352.429,748.151-201.939c49.573,28.499,92.978,63.574,129.762,103.542
	c-35.518-37.42-76.716-70.602-123.724-97.626c-260.941-150.017-595.246-59.673-745.237,201.223
	c-150.066,261.029-59.852,595.26,201.115,745.232c46.925,26.978,96.274,45.969,146.578,57.771
	C1917.237,1904.178,1865.17,1884.363,1815.642,1855.889z M2325.24,753.177c-316.408-181.904-721.891-72.494-903.798,243.971
	c-181.911,316.469-72.477,721.906,243.933,903.812c77.78,44.716,161.035,71.596,244.87,82.437
	c-87.484-10.033-174.329-37.394-255.439-84.024c-318.207-182.938-428.233-590.76-245.244-909.106
	c182.942-318.263,590.808-428.407,909.015-245.468c81.11,46.631,148.426,107.961,201.05,178.528
	C2468.08,856.221,2402.996,797.936,2325.24,753.177z M1826.744,1852.892c-258.035-148.346-347.284-479.011-198.934-737.155
	c148.346-258.036,479.027-347.222,737.088-198.918c48.46,27.859,90.964,62.133,127.053,101.132
	c-34.817-36.562-75.11-68.938-121.05-95.35c-257.052-147.78-586.505-58.855-734.31,198.237
	c-147.855,257.183-58.879,586.549,198.197,734.285c45.94,26.412,94.168,44.985,143.219,56.586
	C1926.167,1900.211,1875.19,1880.686,1826.744,1852.892z M2321.524,739.668c-321.088-184.651-732.584-73.581-917.197,247.64
	c-184.635,321.156-73.564,732.652,247.504,917.236c79.146,45.501,163.741,72.813,249.033,83.694
	c-88.988-9.99-177.289-37.785-259.726-85.178c-323.034-185.714-434.736-599.675-249.034-922.779
	c185.761-323.064,599.747-434.862,922.781-249.148c82.437,47.393,150.837,109.802,204.356,181.68
	C2466.907,844.516,2400.67,785.17,2321.524,739.668z M1837.734,1849.999c-254.164-146.179-342.108-472.001-195.975-726.19
	c146.183-254.271,471.936-342.197,726.168-196.037c33.762,19.41,64.322,42.21,92.115,67.343
	c-26.066-23.003-54.87-43.713-86.193-61.722c-253.312-145.687-577.94-58.025-723.563,195.376
	c-145.645,253.336-58.05,577.874,195.264,723.558c31.324,18.008,63.681,32.348,96.802,43.372
	C1906.604,1884.3,1871.536,1869.432,1837.734,1849.999z M2317.834,726.004c-325.964-187.341-743.515-74.691-930.924,251.291
	c-187.412,325.987-74.616,743.535,251.349,930.875c80.661,46.432,166.971,74.327,253.933,85.26
	c-90.696-10.18-180.83-38.342-264.934-86.693c-327.865-188.491-441.322-608.695-252.807-936.604
	c188.515-327.905,608.762-441.336,936.671-252.819c84.061,48.326,153.814,112.139,208.222,185.438
	C2466.16,833.055,2398.539,772.459,2317.834,726.004z M1848.503,1847.089c-250.387-143.948-336.997-464.962-193.067-715.418
	c143.957-250.491,464.972-337.104,715.441-193.107c33.229,19.048,63.26,41.485,90.617,66.198
	c-25.758-22.654-53.963-43.021-84.794-60.803c-249.597-143.438-569.448-57.066-712.928,192.505
	c-143.531,249.66-57.157,569.403,192.479,712.978c30.749,17.62,62.585,31.771,95.101,42.674
	C1916.271,1880.932,1881.777,1866.16,1848.503,1847.089z M2314.075,712.073c-330.795-190.118-754.632-75.681-944.813,255.075
	c-190.234,330.846-75.752,754.707,255.058,944.892c82.077,47.128,169.946,75.583,258.543,86.547
	c-92.331-10.211-184.1-38.8-269.652-87.984c-332.911-191.393-448.028-617.896-256.664-950.706
	c191.414-332.949,617.869-448.042,950.779-256.65c85.553,49.185,156.479,114.126,211.694,188.798
	C2464.984,821.064,2396.273,759.387,2314.075,712.073z M1859.229,1844.16c-246.754-141.859-332.105-457.945-190.244-704.7
	c141.907-246.837,457.944-332.102,704.693-190.244c32.567,18.723,62.033,40.552,88.808,64.701
	c-25.151-22.021-52.829-42.027-82.973-59.414c-245.901-141.37-561.04-56.27-702.407,189.626
	c-141.33,245.924-56.314,561.014,189.586,702.384c30.169,17.344,61.384,31.196,93.093,41.811
	C1925.464,1877.401,1891.729,1862.897,1859.229,1844.16z M2310.298,698.075c-335.729-193.012-765.952-77.016-958.987,258.753
	c-193.012,335.729-76.844,765.905,258.968,958.965c83.719,48.131,173.437,77.025,263.838,88.112
	c-94.229-10.161-187.909-39.284-275.285-89.459c-337.864-194.239-454.773-627.177-260.509-965.085
	c194.257-337.853,627.226-454.716,965.09-260.477c87.283,50.236,159.525,116.446,215.769,192.791
	C2464.106,809.131,2394.057,746.229,2310.298,698.075z M1869.663,1841.344c-243.054-139.79-327.161-451.121-187.414-694.199
	c139.746-243.077,451.231-327.15,694.306-187.405c31.606,18.114,60.423,39.4,86.531,62.825
	c-24.572-21.348-51.484-40.801-80.801-57.654c-242.312-139.307-552.756-55.545-692.021,186.784
	c-139.307,242.312-55.522,552.718,186.79,692.024c29.315,16.854,59.644,30.365,90.549,40.797
	C1934.181,1873.714,1901.354,1859.505,1869.663,1841.344z M2306.41,683.672c-340.746-195.953-777.351-78.053-973.264,262.771
	c-195.932,340.758-78.082,777.305,262.663,973.259c103.786,59.609,216.415,89.792,328.448,93.815
	c-115.848-2.636-232.598-33.365-339.991-95.106c-342.964-197.229-461.576-636.603-264.407-979.664
	c197.236-343.076,636.687-461.673,979.65-264.443c107.395,61.741,192.76,147.265,253.329,245.94
	C2493.027,825.587,2410.254,743.372,2306.41,683.672z M1880.028,1838.547c-239.428-137.59-322.308-444.523-184.635-683.903
	c137.633-239.401,444.518-322.196,683.92-184.562c30.793,17.646,58.942,38.207,84.379,61.019
	c-24.027-20.807-50.111-39.726-78.636-56.182c-238.716-137.239-544.638-54.63-681.907,184.241
	c-137.267,238.764-54.766,544.676,184.037,681.965c28.484,16.323,57.96,29.344,88.03,39.639
	C1942.661,1870.234,1910.771,1856.279,1880.028,1838.547z M2302.532,669.047c-345.924-198.816-789.033-79.141-987.866,266.714
	c-198.837,345.859-79.271,788.964,266.623,987.931c105.516,60.662,220.087,91.223,333.979,95.174
	c-117.775-2.545-236.526-33.744-345.758-96.541c-348.122-200.138-468.505-646.216-268.39-994.35
	c200.116-348.188,646.248-468.571,994.433-268.341c109.169,62.704,195.819,149.649,257.345,250.126
	C2492.175,813.326,2408.067,729.776,2302.532,669.047z M1890.189,1835.8c-235.854-135.593-317.508-437.833-181.804-673.687
	c135.511-235.902,437.814-317.464,673.712-181.846c30.213,17.369,57.816,37.504,82.922,59.897
	c-23.583-20.495-49.2-39.032-77.237-55.15c-235.215-135.227-536.648-53.79-671.942,181.441
	c-135.245,235.146-53.902,536.642,181.33,671.937c28.02,16.051,57.084,28.894,86.548,38.956
	C1951.817,1866.969,1920.464,1853.264,1890.189,1835.8z M2298.576,654.377C1947.505,452.544,1497.758,573.92,1295.949,925
	c-201.833,351.072-80.469,800.841,270.602,1002.674c107.263,61.665,223.791,92.78,339.627,96.714
	c-119.824-2.535-240.608-34.158-351.634-97.987c-353.4-203.119-475.625-655.938-272.44-1009.36
	c203.182-353.418,656.001-475.643,1009.354-272.44c111.025,63.829,199.175,152.318,261.638,254.527
	C2491.41,801.004,2405.863,716,2298.576,654.377z M1900.217,1833.094c-232.348-133.578-312.702-431.264-179.096-663.66
	c133.578-232.35,431.266-312.698,663.639-179.162c29.379,16.946,56.379,36.449,80.754,58.139
	c-22.965-19.799-47.904-37.832-75.127-53.483c-231.71-133.211-528.655-53.06-661.914,178.733
	c-133.262,231.797-53.11,528.742,178.555,661.928c27.312,15.701,55.401,28.153,84.021,38.016
	C1960.021,1863.382,1929.602,1849.928,1900.217,1833.094z M2294.543,639.436c-356.303-204.896-812.824-81.673-1017.677,274.652
	c-204.829,356.283-81.671,812.714,274.677,1017.633c109.211,62.733,227.874,94.389,345.789,98.271
	c-121.975-2.462-245.031-34.488-358.065-99.472c-358.702-206.161-482.732-665.877-276.458-1024.572
	c206.256-358.815,665.896-482.919,1024.593-276.646c113.034,64.984,202.561,155.231,266.037,259.444
	C2490.734,788.731,2403.711,702.141,2294.543,639.436z M1910.02,1830.484c-228.891-131.591-308.034-424.94-176.418-653.875
	c131.613-228.931,424.945-308.145,653.836-176.555c28.828,16.518,55.287,35.766,79.2,57.075
	c-22.498-19.415-46.925-37.155-73.637-52.512c-228.331-131.269-520.904-52.301-652.223,176.116
	c-131.322,228.424-52.348,520.995,176.008,652.22c26.668,15.331,54.309,27.583,82.324,37.209
	C1968.688,1860.178,1938.798,1847.088,1910.02,1830.484z M2290.35,624.175c-361.626-207.901-824.897-82.872-1032.797,278.752
	c-207.875,361.583-82.799,824.915,278.766,1032.723c111.303,64.046,232.116,96.204,352.271,99.948
	c-124.262-2.129-249.609-34.727-364.735-100.914c-364.126-209.285-490.121-675.871-280.746-1040.062
	c209.398-364.23,675.964-490.038,1040.067-280.714c115.126,66.187,206.385,158.17,270.778,264.445
	C2490.326,776.386,2401.634,688.152,2290.35,624.175z M1919.804,1827.807c-225.513-129.648-303.46-418.556-173.81-644.072
	c129.604-225.537,418.54-303.525,644.01-173.902c15.898,9.14,30.899,19.242,45.234,29.815
	c-12.655-9.038-25.811-17.511-39.568-25.421c-225.089-129.404-513.351-51.598-642.753,173.487
	c-129.386,225.157-51.598,513.35,173.505,642.82c13.77,7.8,27.729,14.975,41.89,21.294
	C1951.896,1844.783,1935.658,1836.922,1919.804,1827.807z M2286.196,608.652c-366.984-211.038-837.22-84.042-1048.218,283.021
	c-211.02,367.054-84.181,837.315,282.828,1048.311c112.89,64.843,235.534,97.482,357.407,101.306
	c-126.046-2.298-253.195-35.315-369.993-102.463c-369.573-212.47-497.418-685.977-284.927-1055.537
	c212.479-369.682,686.047-497.49,1055.64-284.953c116.798,67.147,209.348,160.44,274.731,268.253
	C2489.066,763.152,2399.129,673.521,2286.196,608.652z M1929.404,1825.256c-222.139-127.709-298.94-412.382-171.213-634.451
	c127.664-222.162,412.273-299.056,634.495-171.299c15.494,8.851,30.14,18.691,44.217,29.115
	c-12.446-8.918-25.299-17.217-38.716-24.93c-221.71-127.463-505.84-50.918-633.307,170.9
	c-127.486,221.754-50.736,505.827,170.999,633.246c13.392,7.757,27.118,14.74,41,20.956
	C1960.786,1841.877,1944.938,1834.128,1929.404,1825.256z M2281.912,593.055c-372.436-214.115-849.756-85.279-1063.848,287.117
	c-214.191,372.618-85.278,849.756,287.157,1063.871c115.131,66.188,240.239,99.395,364.438,103.019
	c-128.512-1.957-258.242-35.428-377.303-103.876c-375.218-215.715-505.002-696.422-289.335-1071.608
	c215.728-375.148,696.433-504.881,1071.651-289.166c119.144,68.496,213.298,163.85,279.764,273.932
	C2488.841,750.684,2397.062,659.312,2281.912,593.055z M1938.825,1822.713c-218.848-125.816-294.461-406.227-168.645-625.074
	c125.791-218.803,406.229-294.568,625.034-168.776c15.152,8.654,29.496,18.321,43.305,28.422
	c-12.178-8.594-24.689-16.696-37.853-24.265c-218.419-125.57-498.379-50.04-623.948,168.378
	c-125.529,218.448-50.015,498.341,168.469,623.891c13.139,7.611,26.523,14.397,39.973,20.477
	C1969.527,1838.938,1953.953,1831.41,1938.825,1822.713z M2277.672,577.197c-378.125-217.386-862.485-86.684-1079.844,291.394
	c-217.335,378.036-86.568,862.382,291.533,1079.807c117.223,67.392,244.654,101.194,371.1,104.578
	c-130.861-1.829-263.022-35.62-384.393-105.396c-380.729-218.883-512.497-706.925-293.542-1087.728
	c218.961-380.966,707.021-512.612,1087.748-293.729c121.371,69.776,217.097,166.943,284.542,279.181
	C2488.186,737.685,2394.894,644.589,2277.672,577.197z M1948.137,1820.159c-215.514-123.899-290.138-400.096-166.201-615.763
	c123.879-215.58,400.23-290.17,615.783-166.248c14.592,8.445,28.369,17.617,41.629,27.287c-11.643-8.229-23.618-16.08-36.182-23.303
	c-215.216-123.729-491.078-49.198-614.78,165.972c-123.818,215.281-49.305,491.069,165.95,614.821
	c12.524,7.2,25.358,13.56,38.328,19.479C1977.543,1835.871,1962.67,1828.514,1948.137,1820.159z M2273.291,560.977
	c-383.634-220.554-875.369-87.951-1095.995,295.81c-220.606,383.777-87.835,875.412,295.798,1095.965
	c119.148,68.499,248.777,102.937,377.388,106.312c-133.07-1.848-267.414-36.095-390.793-107.026
	c-386.54-222.224-520.202-717.555-297.949-1104.247c222.271-386.571,717.628-520.276,1104.146-298.065
	c123.336,70.906,220.639,169.775,289.128,283.863C2487.338,724.119,2392.42,629.406,2273.291,560.977z M1957.294,1817.691
	c-212.311-122.059-285.801-394.19-163.757-606.678c122.146-212.26,394.321-285.725,606.631-163.667
	c13.93,8.008,27.226,16.731,39.953,26.039c-11.071-7.843-22.535-15.4-34.499-22.278c-212.052-121.91-483.876-48.469-605.784,163.581
	c-121.961,212.14-48.604,483.915,163.492,605.851c11.921,6.853,24.137,12.909,36.485,18.53
	C1985.432,1832.732,1971.223,1825.699,1957.294,1817.691z M2268.833,544.596c-389.401-223.869-888.456-89.219-1112.35,300.225
	c-223.945,389.533-89.142,888.42,300.281,1112.302c121.175,69.722,252.937,104.704,383.736,108.028
	c-135.289-1.754-271.936-36.645-397.345-108.685c-392.413-225.659-528.139-728.43-302.571-1120.785
	c225.589-392.393,728.348-528.097,1120.808-302.47c125.34,72.059,224.229,172.636,293.859,288.688
	C2486.494,710.557,2390.014,614.207,2268.833,544.596z M2539.67,1691.656c-129.268,179.844-377.162,236.393-573.359,123.598
	c-209.146-120.239-281.571-388.289-161.257-597.566c120.287-209.229,388.4-281.563,597.547-161.324
	c196.153,112.77,272.062,355.477,181.619,557.701c-6.021,13.541-12.757,26.838-20.274,39.914
	C2556.403,1667.098,2548.255,1679.59,2539.67,1691.656z M2264.458,527.98C1869.07,300.67,1362.607,437.429,1135.37,832.74
	c-227.243,395.311-90.583,901.752,304.739,1129.025c123.317,70.837,257.393,106.24,390.406,109.471
	c-137.615-1.556-276.645-36.85-404.251-110.211c-398.338-229.006-536.091-739.371-307.132-1137.678
	c228.955-398.246,739.366-536.091,1137.726-307.072c127.538,73.38,227.995,175.768,298.571,293.842
	C2485.73,696.755,2387.644,598.743,2264.458,527.98z M2252.291,499.094c151.797,87.27,266.222,214.916,337.781,361.531
	c-71.215-141.584-182.807-264.759-330.266-349.478c-401.219-230.72-915.215-92.037-1145.89,309.202
	c-230.677,401.243-91.87,915.224,309.376,1145.844c147.435,84.761,310.094,119.311,468.305,109.573
	c-162.782,11.947-330.683-22.773-482.48-110.043c-404.402-232.493-544.208-750.519-311.693-1154.856
	C1329.842,406.594,1847.951,266.693,2252.291,499.094z"/>
</svg>
