<?xml version="1.0" encoding="utf-8"?>
<!-- Generator: Adobe Illustrator 16.0.0, SVG Export Plug-In . SVG Version: 6.00 Build 0)  -->
<!DOCTYPE svg PUBLIC "-//W3C//DTD SVG 1.1//EN" "http://www.w3.org/Graphics/SVG/1.1/DTD/svg11.dtd">
<svg version="1.1" id="Layer_1" xmlns="http://www.w3.org/2000/svg" xmlns:xlink="http://www.w3.org/1999/xlink" x="0px" y="0px"
	 width="282.2px" height="638.28px" viewBox="0 0 282.2 638.28" enable-background="new 0 0 282.2 638.28" xml:space="preserve">
<g opacity="0.17">
	<path fill="#43B3D8" d="M167.34,47.189c-2.768,1.515-3.782,4.988-2.266,7.755c1.516,2.768,4.988,3.781,7.756,2.266
		c93.1-51.009,207.261-48.545,297.933,6.429c140.497,85.183,185.498,268.786,100.315,409.283
		c-85.18,140.492-268.771,185.495-409.267,100.324c-0.003-0.001-0.005-0.003-0.008-0.005c-0.34-0.206-0.692-0.373-1.053-0.502
		c-0.012-0.004-0.023-0.004-0.035-0.008c-0.827-0.29-1.686-0.359-2.521-0.263c-1.696,0.193-3.292,1.119-4.245,2.692
		c-1.637,2.697-0.775,6.211,1.923,7.847c145.884,88.449,336.527,41.722,424.977-104.162
		C669.298,332.96,622.57,142.317,476.687,53.868C382.539-3.213,264.005-5.772,167.34,47.189z"/>
	<path fill="#43B3D8" d="M35.127,219.179c0.19-0.313,0.372-0.657,0.495-1.037c1.072-2.957-0.477-6.221-3.455-7.305
		c-2.968-1.053-6.232,0.496-7.304,3.454c-1.054,2.97,0.496,6.234,3.453,7.306C30.927,222.537,33.741,221.464,35.127,219.179z"/>
	<path fill="#43B3D8" d="M20.07,281.215c0.391-0.644,0.657-1.393,0.774-2.204c0.418-3.112-1.787-5.999-4.9-6.418
		c-3.145-0.41-6.001,1.787-6.431,4.921c-0.398,3.126,1.787,6,4.913,6.399C16.749,284.226,18.922,283.11,20.07,281.215z"/>
	<path fill="#43B3D8" d="M47.488,189.713c0.095-0.156,0.188-0.312,0.264-0.48c1.381-2.851,0.193-6.271-2.656-7.651
		c-2.844-1.35-6.263-0.161-7.632,2.669c-1.382,2.852-0.182,6.251,2.669,7.632C42.796,193.176,45.983,192.194,47.488,189.713z"/>
	<path fill="#43B3D8" d="M25.965,249.807c0.296-0.488,0.514-1.024,0.654-1.607c0.742-3.077-1.129-6.162-4.205-6.905
		c-3.064-0.763-6.162,1.128-6.905,4.205c-0.73,3.057,1.14,6.142,4.216,6.885C22.188,252.995,24.708,251.878,25.965,249.807z"/>
	<path fill="#43B3D8" d="M62.854,161.724c0.011-0.02,0.023-0.039,0.035-0.059c1.623-2.678,0.769-6.162-1.884-7.823
		c-2.686-1.655-6.209-0.824-7.863,1.86c-1.674,2.673-0.844,6.195,1.829,7.869C57.676,165.239,61.181,164.396,62.854,161.724z"/>
	<path fill="#43B3D8" d="M124.062,90.654c0.496-0.421,0.881-0.881,1.201-1.409c1.231-2.031,1.104-4.729-0.514-6.645
		c-2.039-2.412-5.643-2.727-8.055-0.688c-2.411,2.038-2.727,5.642-0.688,8.055C118.045,92.379,121.649,92.693,124.062,90.654z"/>
	<path fill="#43B3D8" d="M149.065,71.716c0.717-0.475,1.267-1.076,1.682-1.76c1.126-1.857,1.149-4.275-0.151-6.186
		c-1.767-2.595-5.33-3.285-7.925-1.518c-2.614,1.755-3.305,5.318-1.519,7.925C142.908,72.792,146.451,73.472,149.065,71.716z"/>
	<path fill="#43B3D8" d="M101.188,112.116c0.292-0.305,0.545-0.633,0.758-0.984c1.362-2.247,1.039-5.196-0.92-7.078
		c-2.282-2.186-5.908-2.112-8.094,0.171c-2.186,2.282-2.101,5.889,0.183,8.073C95.397,114.483,99.002,114.399,101.188,112.116z"/>
	<path fill="#43B3D8" d="M80.719,135.917c0.138-0.185,0.244-0.36,0.363-0.556c1.48-2.442,0.924-5.667-1.381-7.465
		c-2.519-1.928-6.083-1.47-8.02,1.018c-1.928,2.519-1.47,6.084,1.018,8.021C75.207,138.881,78.783,138.403,80.719,135.917z"/>
	<path fill="#43B3D8" d="M22.553,376.734c0.699-1.152,0.999-2.574,0.748-4.01c-0.577-3.103-3.559-5.15-6.661-4.573
		s-5.15,3.559-4.573,6.662c0.578,3.102,3.539,5.138,6.661,4.572C20.383,379.08,21.735,378.083,22.553,376.734z"/>
	<path fill="#43B3D8" d="M69.586,495.79c0.684-0.467,1.234-1.068,1.638-1.732c1.137-1.876,1.141-4.305-0.159-6.217
		c-1.799-2.587-5.354-3.246-7.961-1.459c-2.587,1.799-3.246,5.354-1.447,7.941C63.442,496.931,66.998,497.589,69.586,495.79z"/>
	<path fill="#43B3D8" d="M89.606,520.729c0.472-0.382,0.858-0.842,1.166-1.351c1.244-2.052,1.096-4.761-0.561-6.7
		c-2.051-2.393-5.659-2.656-8.051-0.605c-2.393,2.051-2.668,5.679-0.605,8.051C83.605,522.517,87.202,522.8,89.606,520.729z"/>
	<path fill="#43B3D8" d="M112.139,543.423c0.279-0.284,0.531-0.612,0.733-0.945c1.374-2.266,1.012-5.238-0.978-7.113
		c-2.295-2.166-5.913-2.061-8.079,0.232c-2.146,2.307-2.042,5.925,0.253,8.092C106.374,545.834,109.992,545.729,112.139,543.423z"/>
	<path fill="#43B3D8" d="M136.936,563.615c0.125-0.164,0.252-0.329,0.358-0.504c1.493-2.462,0.909-5.729-1.438-7.5
		c-2.531-1.909-6.107-1.431-8.017,1.1c-1.896,2.512-1.419,6.088,1.111,7.996C131.45,566.623,135.038,566.126,136.936,563.615z"/>
	<path fill="#43B3D8" d="M17.533,313.081c0.497-0.821,0.811-1.779,0.823-2.814c0.094-3.15-2.411-5.764-5.562-5.857
		c-3.15-0.092-5.764,2.411-5.857,5.562c-0.072,3.162,2.399,5.784,5.562,5.857C14.627,315.889,16.502,314.781,17.533,313.081z"/>
	<path fill="#43B3D8" d="M18.381,345.049c0.604-0.997,0.896-2.183,0.791-3.422l0.021,0.013c-0.256-3.148-2.997-5.505-6.146-5.249
		c-3.155,0.225-5.504,2.997-5.248,6.144c0.236,3.137,3.008,5.486,6.144,5.249C15.834,347.62,17.468,346.554,18.381,345.049z"/>
	<path fill="#43B3D8" d="M26.764,410.341c1.429-0.417,2.55-1.341,3.261-2.514c0.806-1.329,1.064-2.988,0.59-4.586l0.012-0.02
		c-0.903-3.006-4.074-4.741-7.1-3.851c-3.037,0.911-4.753,4.094-3.861,7.12c0.012-0.021,0.012-0.021,0.012-0.021
		C20.567,409.496,23.737,411.231,26.764,410.341z"/>
	<path fill="#43B3D8" d="M52.34,468.873c0.924-0.51,1.647-1.22,2.157-2.06c1.019-1.681,1.135-3.855,0.137-5.69
		c-1.517-2.789-4.991-3.801-7.75-2.293c-2.777,1.497-3.789,4.972-2.293,7.75C46.099,469.338,49.562,470.369,52.34,468.873z"/>
	<path fill="#43B3D8" d="M38.011,440.275c1.179-0.488,2.106-1.315,2.71-2.312c0.912-1.505,1.11-3.417,0.381-5.168
		c-1.209-2.897-4.542-4.276-7.459-3.078c-2.918,1.196-4.309,4.55-3.08,7.458C31.761,440.094,35.094,441.473,38.011,440.275z"/>
</g>
</svg>
