<?xml version="1.0" encoding="utf-8"?>
<!-- Generator: Adobe Illustrator 16.0.0, SVG Export Plug-In . SVG Version: 6.00 Build 0)  -->
<!DOCTYPE svg PUBLIC "-//W3C//DTD SVG 1.1//EN" "http://www.w3.org/Graphics/SVG/1.1/DTD/svg11.dtd">
<svg version="1.1" id="Layer_1" xmlns="http://www.w3.org/2000/svg" xmlns:xlink="http://www.w3.org/1999/xlink" x="0px" y="0px"
	 width="360.604px" height="595.28px" viewBox="0 0 360.604 595.28" enable-background="new 0 0 360.604 595.28"
	 xml:space="preserve">
<g id="XMLID_1_" opacity="0.1">
	<g>
		<g id="XMLID_110_">
			<polygon id="XMLID_121_" fill="#333E47" points="-15.574,575.098 11.974,575.098 -1.8,598.846 			"/>
			<polygon id="XMLID_120_" fill="#333E47" points="-49.06,517.293 45.46,517.293 31.686,541.041 -35.286,541.041 			"/>
			<polygon id="XMLID_119_" fill="#333E47" points="-116.03,401.732 112.431,401.732 98.657,425.48 -102.256,425.48 			"/>
			<polygon id="XMLID_118_" fill="#333E47" points="-82.545,459.537 78.945,459.537 65.171,483.285 -68.771,483.285 			"/>
			<polygon id="XMLID_117_" fill="#333E47" points="-149.516,343.928 145.916,343.928 132.143,367.678 -135.742,367.678 			"/>
			<polygon id="XMLID_116_" fill="#333E47" points="-183.002,286.172 179.401,286.172 165.628,309.92 -169.227,309.92 			"/>
			<polygon id="XMLID_115_" fill="#333E47" points="-216.487,228.368 212.888,228.368 199.113,252.117 -202.712,252.117 			"/>
			<polygon id="XMLID_114_" fill="#333E47" points="-249.973,170.564 246.373,170.564 232.599,194.313 -236.198,194.313 			"/>
			<polygon id="XMLID_113_" fill="#333E47" points="-283.458,112.808 279.858,112.808 266.084,136.556 -269.684,136.556 			"/>
			<polygon id="XMLID_112_" fill="#333E47" points="-316.943,55.003 313.345,55.003 299.569,78.751 -303.169,78.751 			"/>
			<polygon id="XMLID_111_" fill="#333E47" points="-350.429,-2.801 346.829,-2.801 333.056,20.948 -336.655,20.948 			"/>
		</g>
	</g>
</g>
<g id="XMLID_2_" opacity="0.1">
	<g id="XMLID_29_">
		<polygon id="XMLID_38_" fill="#43B3D8" points="-102.256,490.969 126.204,490.969 112.431,514.717 -88.482,514.717 		"/>
		<polygon id="XMLID_37_" fill="#43B3D8" points="-68.771,548.773 92.719,548.773 78.944,572.521 -54.997,572.521 		"/>
		<polygon id="XMLID_36_" fill="#43B3D8" points="-135.742,433.164 159.69,433.164 145.917,456.912 -121.968,456.912 		"/>
		<polygon id="XMLID_35_" fill="#43B3D8" points="-169.228,375.408 193.176,375.408 179.401,399.156 -155.453,399.156 		"/>
		<polygon id="XMLID_34_" fill="#43B3D8" points="-202.713,317.604 226.661,317.604 212.888,341.352 -188.938,341.352 		"/>
		<polygon id="XMLID_33_" fill="#43B3D8" points="-236.199,259.8 260.147,259.8 246.372,283.549 -222.424,283.549 		"/>
		<polygon id="XMLID_32_" fill="#43B3D8" points="-269.684,202.043 293.632,202.043 279.858,225.792 -255.91,225.792 		"/>
		<polygon id="XMLID_31_" fill="#43B3D8" points="-303.169,144.239 327.118,144.239 313.344,167.987 -289.396,167.987 		"/>
		<polygon id="XMLID_30_" fill="#43B3D8" points="-336.655,86.435 360.604,86.435 346.829,110.184 -322.881,110.184 		"/>
	</g>
</g>
</svg>
