<?xml version="1.0" encoding="utf-8"?>
<!-- Generator: Adobe Illustrator 16.0.0, SVG Export Plug-In . SVG Version: 6.00 Build 0)  -->
<!DOCTYPE svg PUBLIC "-//W3C//DTD SVG 1.1//EN" "http://www.w3.org/Graphics/SVG/1.1/DTD/svg11.dtd">
<svg version="1.1" id="Layer_1" xmlns="http://www.w3.org/2000/svg" xmlns:xlink="http://www.w3.org/1999/xlink" x="0px" y="0px"
	 width="76.083px" height="76.084px" viewBox="0 0 76.083 76.084" enable-background="new 0 0 76.083 76.084" xml:space="preserve">
<path fill="#333E47" d="M76.083,38.042C76.083,17.032,59.051,0,38.042,0S0,17.032,0,38.042s17.031,38.042,38.041,38.042
	S76.083,59.052,76.083,38.042z M63.75,37.676c-0.005,0.855-0.383,1.666-1.035,2.218L38.47,60.435
	c-1.232,1.042-3.079,0.888-4.124-0.341c-1.045-1.232-0.893-3.08,0.341-4.125l18.218-15.435H15.206c-1.586,0-2.872-1.286-2.872-2.872
	c0-1.587,1.286-2.873,2.872-2.873h37.833L36.073,20.096c-1.223-1.058-1.354-2.905-0.297-4.129c0.579-0.666,1.394-1.009,2.213-1.009
	c0.679,0,1.361,0.233,1.915,0.714l22.835,19.777C63.385,36.009,63.754,36.822,63.75,37.676z"/>
</svg>
